<svg width="61" height="91" viewBox="0 0 61 91" fill="none" xmlns="http://www.w3.org/2000/svg">
<path d="M24.602 27.435L24.566 27.453V28.166L25.212 27.783L25.543 27.586L24.928 27.244L24.602 27.435Z" fill="#D0C1A7"/>
<path d="M7.76997 21.252L29.033 33.529L34.879 30.201L34.887 28.469L13.814 17.748L7.77998 19.522L7.76997 21.252Z" fill="#A7A9AC"/>
<path d="M7.77998 19.522L29.041 31.801L34.887 28.469L13.822 16.016L7.77998 19.522Z" fill="#E4DBCC"/>
<path d="M7.50798 20.397V21.117L8.101 21.457L10.125 20.295L10.121 18.912L7.50798 20.397Z" fill="#704738"/>
<path d="M29.033 88.268L52.841 74.447V18.029L29.033 31.803V88.268Z" fill="#AA9976"/>
<path d="M1.34099 15.815V72.273L29.033 88.063V31.803L1.34099 15.815Z" fill="#AA9976"/>
<path d="M7.76997 76.26L29.041 88.545L29.033 33.529L7.76997 21.252V76.26Z" fill="#BFAC85"/>
<path d="M59.884 16.518L59.881 70.438L45.572 78.879V24.885L59.884 16.518Z" fill="#BFAC85"/>
<path d="M43.282 77.537L45.574 78.877L45.572 24.885L43.279 23.621L43.282 77.537Z" fill="#A58855"/>
<path d="M1.34099 15.815L25.18 2.06L45.254 13.752L50.2 10.895L59.996 16.518L45.572 24.885L43.279 23.621L28.946 32.178L1.34099 15.815Z" fill="#E4DBCC"/>
<path d="M29.041 33.535V88.545L34.887 85.188V30.174L29.041 33.535Z" fill="#A58855"/>
<path d="M43.282 80.225L34.887 84.978L34.892 82.313L43.282 77.537V80.225Z" fill="#704738"/>
<path d="M43.279 80.225L45.568 81.525V78.84L43.279 77.537V80.225Z" fill="#7A643F"/>
<path d="M59.881 70.438V73.316L45.568 81.525L45.572 78.846L59.881 70.438Z" fill="#704738"/>
<path d="M7.76997 75.223V77.902L29.033 90.172L29.041 90.178V90.172V87.5L7.76997 75.223Z" fill="#704738"/>
<path d="M1.34099 72.346L7.765 76.051L7.76997 76.055V76.047V73.383L1.34099 69.666V72.346Z" fill="#7A643F"/>
<path d="M29.033 90.172H29.041L34.887 86.787V84.148L29.041 87.5L29.033 90.172Z" fill="#7A643F"/>
<path d="M49.033 27.691V35.389L55.987 31.35V31.346L49.27 35.242V27.551L49.033 27.691Z" fill="#27AAE1"/>
<path d="M49.041 27.471V35.172L55.996 31.131V23.451L49.041 27.471Z" fill="#8DBBD3"/>
<path d="M49.249 27.531V27.537L55.965 23.65V30.838L56.38 31.088V23.406L49.249 27.531Z" fill="#6D6E71"/>
<path d="M49.041 34.758V35.272L56.318 31.033L55.961 30.828L49.041 34.758Z" fill="#6D6E71"/>
<path d="M49.27 27.525V27.533L55.987 23.647V30.879L56.405 31.084V23.4L49.27 27.525Z" fill="#A7A9AC"/>
<path d="M49.033 34.803V35.318L56.343 31.047L55.987 30.838L49.033 34.803Z" fill="#D1D3D4"/>
<path d="M52.631 25.543V32.77L53.047 32.978V25.295L52.631 25.543Z" fill="#A7A9AC"/>
<path d="M53.329 24.94V32.81L53.047 32.978V25.295L53.329 24.94Z" fill="#BCBEC0"/>
<path d="M49.033 27.426V35.643L56.645 31.219V23.026L49.033 27.426ZM49.332 27.58L56.343 23.519V31.046L49.332 35.142V27.58Z" fill="#E3DBCA"/>
<path d="M37.889 33.873V41.482L40.422 39.961V32.369L37.889 33.873Z" fill="#8DBBD3"/>
<path d="M40.393 32.57V39.67L40.808 39.92V32.322L40.393 32.57Z" fill="#6D6E71"/>
<path d="M37.889 41.123V41.553L40.748 39.865L40.393 39.658L37.889 41.123Z" fill="#6D6E71"/>
<path d="M40.419 32.565V39.709L40.831 39.912V32.322L40.419 32.565Z" fill="#A7A9AC"/>
<path d="M37.889 41.141V41.592L40.773 39.879L40.419 39.676L37.889 41.141Z" fill="#D1D3D4"/>
<path d="M37.554 33.94V42.077L41.068 40.052V31.945L37.554 33.94ZM37.889 34.078L40.774 32.437V39.878L37.889 41.552V34.078Z" fill="#E3DBCA"/>
<path d="M48.875 42.316V50.012L55.83 45.973L49.117 49.867V42.174L48.875 42.316Z" fill="#27AAE1"/>
<path d="M48.882 42.096V49.795L55.835 45.756V38.072L48.882 42.096Z" fill="#8DBBD3"/>
<path d="M49.091 42.156V42.162L55.806 38.275V45.463L56.221 45.711V38.027L49.091 42.156Z" fill="#6D6E71"/>
<path d="M48.882 49.381V49.893L56.162 45.658L55.804 45.455L48.882 49.381Z" fill="#6D6E71"/>
<path d="M49.117 42.154V42.156L55.83 38.272V45.502L56.245 45.707V38.027L49.117 42.154Z" fill="#A7A9AC"/>
<path d="M48.875 49.43V49.941L56.188 45.676L55.83 45.467L48.875 49.43Z" fill="#D1D3D4"/>
<path d="M52.473 40.164V47.393L52.888 47.598V39.92L52.473 40.164Z" fill="#A7A9AC"/>
<path d="M53.171 39.565V47.435L52.888 47.598V39.92L53.171 39.565Z" fill="#BCBEC0"/>
<path d="M48.875 42.051V50.268L56.489 45.848V37.649L48.875 42.051ZM49.18 42.201L56.188 38.142V45.675L49.18 49.769V42.201Z" fill="#E3DBCA"/>
<path d="M37.731 48.496V56.105L40.267 54.584V46.992L37.731 48.496Z" fill="#8DBBD3"/>
<path d="M40.238 47.193V54.293L40.649 54.541V46.951L40.238 47.193Z" fill="#6D6E71"/>
<path d="M37.731 55.746V56.18L40.591 54.486L40.238 54.281L37.731 55.746Z" fill="#6D6E71"/>
<path d="M40.263 47.188V54.334L40.675 54.537V46.947L40.263 47.188Z" fill="#A7A9AC"/>
<path d="M37.731 55.766V56.217L40.616 54.502L40.263 54.295L37.731 55.766Z" fill="#D1D3D4"/>
<path d="M37.396 48.565V56.704L40.907 54.671V46.571L37.396 48.565ZM37.731 48.699L40.616 47.062V54.502L37.731 56.18V48.699Z" fill="#E3DBCA"/>
<path d="M48.875 56.781V64.477L55.832 60.44V60.438L49.117 64.33V56.643L48.875 56.781Z" fill="#27AAE1"/>
<path d="M48.882 56.563V64.26L55.835 60.219V52.539L48.882 56.563Z" fill="#8DBBD3"/>
<path d="M49.091 56.619V56.627L55.806 52.74V59.928L56.221 60.174V52.494L49.091 56.619Z" fill="#6D6E71"/>
<path d="M48.882 63.846V64.361L56.162 60.121L55.804 59.916L48.882 63.846Z" fill="#6D6E71"/>
<path d="M49.117 56.617V56.619L55.832 52.736V59.969L56.248 60.174V52.494L49.117 56.617Z" fill="#A7A9AC"/>
<path d="M48.875 63.893V64.406L56.188 60.139L55.83 59.932L48.875 63.893Z" fill="#D1D3D4"/>
<path d="M52.473 54.631V61.859L52.888 62.063V54.383L52.473 54.631Z" fill="#A7A9AC"/>
<path d="M53.171 54.029V61.897L52.888 62.063V54.383L53.171 54.029Z" fill="#BCBEC0"/>
<path d="M48.875 56.516V64.735L56.489 60.311V52.11L48.875 56.516ZM49.18 56.664L56.188 52.609V60.138L49.18 64.232V56.664Z" fill="#E3DBCA"/>
<path d="M37.731 62.961V70.57L40.267 69.049V61.455L37.731 62.961Z" fill="#8DBBD3"/>
<path d="M40.238 61.66V68.76L40.65 69.004V61.412L40.238 61.66Z" fill="#6D6E71"/>
<path d="M37.731 70.211V70.643L40.591 68.955L40.238 68.748L37.731 70.211Z" fill="#6D6E71"/>
<path d="M40.263 61.652V68.799L40.675 69.002V61.412L40.263 61.652Z" fill="#A7A9AC"/>
<path d="M37.731 70.228V70.68L40.617 68.967L40.263 68.764L37.731 70.228Z" fill="#D1D3D4"/>
<path d="M37.396 63.027V71.164L40.91 69.139V61.032L37.396 63.027ZM37.731 63.162L40.617 61.527V68.966L37.731 70.642V63.162Z" fill="#E3DBCA"/>
<path d="M26.921 38.035V45.73L19.969 41.69L26.679 45.582V37.891L26.921 38.035Z" fill="#27AAE1"/>
<path d="M26.913 37.81V45.512L19.959 41.473V33.791L26.913 37.81Z" fill="#8DBBD3"/>
<path d="M26.705 37.873V37.879L19.988 33.992V41.182L19.575 41.428V33.744L26.705 37.873Z" fill="#6D6E71"/>
<path d="M26.913 45.1V45.611L19.631 41.373L19.993 41.168L26.913 45.1Z" fill="#6D6E71"/>
<path d="M26.679 37.869V37.873L19.969 33.988V41.219L19.549 41.426V33.744L26.679 37.869Z" fill="#A7A9AC"/>
<path d="M26.921 45.145V45.658L19.61 41.391L19.969 41.185L26.921 45.145Z" fill="#D1D3D4"/>
<path d="M23.324 35.879V43.111L22.907 43.316V35.635L23.324 35.879Z" fill="#A7A9AC"/>
<path d="M22.626 35.281V43.15L22.907 43.316V35.635L22.626 35.281Z" fill="#BCBEC0"/>
<path d="M19.31 33.367V41.564L26.921 45.986V37.769L19.31 33.367ZM26.619 45.486L19.61 41.39V33.859L26.619 37.916V45.486Z" fill="#E3DBCA"/>
<path d="M17.315 32.467V40.16L10.358 36.125V36.121L17.076 40.016V32.322L17.315 32.467Z" fill="#27AAE1"/>
<path d="M17.31 32.246V39.945L10.354 35.904V28.225L17.31 32.246Z" fill="#8DBBD3"/>
<path d="M17.096 32.307V32.31L10.386 28.428V35.613L9.96898 35.865V28.182L17.096 32.307Z" fill="#6D6E71"/>
<path d="M17.31 39.527V40.049L10.028 35.807L10.386 35.603L17.31 39.527Z" fill="#6D6E71"/>
<path d="M17.076 32.301V32.31L10.358 28.426V35.652L9.94398 35.857V28.178L17.076 32.301Z" fill="#A7A9AC"/>
<path d="M17.315 39.58V40.094L10.005 35.824L10.358 35.617L17.315 39.58Z" fill="#D1D3D4"/>
<path d="M13.714 30.313V37.547L13.3 37.752V30.066L13.714 30.313Z" fill="#A7A9AC"/>
<path d="M13.016 29.713V37.584L13.3 37.752V30.066L13.016 29.713Z" fill="#BCBEC0"/>
<path d="M9.70497 27.797V35.998L17.315 40.416V32.201L9.70497 27.797ZM17.013 39.92L10.005 35.824V28.295L17.013 32.35V39.92Z" fill="#E3DBCA"/>
<path d="M5.959 25.727V33.334L3.42497 31.816V24.223L5.959 25.727Z" fill="#8DBBD3"/>
<path d="M3.45399 24.424V31.525L3.04298 31.772V24.18L3.45399 24.424Z" fill="#6D6E71"/>
<path d="M5.959 32.978V33.41L3.10298 31.719L3.45399 31.516L5.959 32.978Z" fill="#6D6E71"/>
<path d="M3.42897 24.42V31.565L3.01598 31.768V24.178L3.42897 24.42Z" fill="#A7A9AC"/>
<path d="M5.959 32.998V33.445L3.07799 31.732L3.42897 31.531L5.959 32.998Z" fill="#D1D3D4"/>
<path d="M2.77898 23.799V31.907L6.32698 33.954V25.911L2.77898 23.799ZM5.959 33.41L3.07799 31.732V24.293L5.959 25.961V33.41Z" fill="#E3DBCA"/>
<path d="M26.705 52.355V60.053L19.749 56.012L26.462 59.908V52.215L26.705 52.355Z" fill="#27AAE1"/>
<path d="M26.696 52.137V59.836L19.743 55.795V48.115L26.696 52.137Z" fill="#8DBBD3"/>
<path d="M26.49 52.195V52.201L19.774 48.315V55.504L19.358 55.752V48.07L26.49 52.195Z" fill="#6D6E71"/>
<path d="M26.696 59.424V59.932L19.416 55.697L19.778 55.494L26.696 59.424Z" fill="#6D6E71"/>
<path d="M26.462 52.191V52.195L19.749 48.313V55.543L19.331 55.746V48.066L26.462 52.191Z" fill="#A7A9AC"/>
<path d="M26.705 59.469V59.982L19.393 55.711L19.75 55.506L26.705 59.469Z" fill="#D1D3D4"/>
<path d="M23.105 50.205V57.435L22.689 57.639V49.959L23.105 50.205Z" fill="#A7A9AC"/>
<path d="M22.41 49.605V57.473L22.689 57.639V49.959L22.41 49.605Z" fill="#BCBEC0"/>
<path d="M19.093 47.691V55.886L26.705 60.308V52.089L19.093 47.691ZM26.401 59.809L19.392 55.711V48.184L26.401 52.243V59.809Z" fill="#E3DBCA"/>
<path d="M17.096 46.789V54.484L10.145 50.445V50.443L16.856 54.338V46.648L17.096 46.789Z" fill="#27AAE1"/>
<path d="M17.092 46.572V54.268L10.139 50.232V42.547L17.092 46.572Z" fill="#8DBBD3"/>
<path d="M16.88 46.629V46.635L10.166 42.752V49.935L9.752 50.188V42.506L16.88 46.629Z" fill="#6D6E71"/>
<path d="M17.092 53.853V54.369L9.80998 50.137L10.17 49.926L17.092 53.853Z" fill="#6D6E71"/>
<path d="M16.856 46.623V46.633L10.145 42.746V49.978L9.72697 50.184V42.502L16.856 46.623Z" fill="#A7A9AC"/>
<path d="M17.096 53.9V54.416L9.78999 50.15L10.146 49.941L17.096 53.9Z" fill="#D1D3D4"/>
<path d="M13.502 44.637V51.867L13.084 52.072V44.391L13.502 44.637Z" fill="#A7A9AC"/>
<path d="M12.801 44.039V51.904L13.084 52.072V44.391L12.801 44.039Z" fill="#BCBEC0"/>
<path d="M9.48399 42.121V50.32L17.095 54.74V46.523L9.48399 42.121ZM16.797 54.24L9.78999 50.15V42.619L16.797 46.674V54.24Z" fill="#E3DBCA"/>
<path d="M5.74699 40.051V47.656L3.209 46.137V38.545L5.74699 40.051Z" fill="#8DBBD3"/>
<path d="M3.23799 38.746V45.848L2.825 46.096V38.506L3.23799 38.746Z" fill="#6D6E71"/>
<path d="M5.74699 47.301V47.732L2.88597 46.043L3.23799 45.838L5.74699 47.301Z" fill="#6D6E71"/>
<path d="M3.209 38.742V45.889L2.79997 46.092V38.5L3.209 38.742Z" fill="#A7A9AC"/>
<path d="M5.74699 47.322V47.772L2.86098 46.057L3.209 45.852L5.74699 47.322Z" fill="#D1D3D4"/>
<path d="M2.55998 38.119V46.226L6.11098 48.275V40.236L2.55998 38.119ZM5.74699 47.732L2.86098 46.056V38.617L5.74699 40.285V47.732Z" fill="#E3DBCA"/>
<path d="M26.705 66.935V74.631L19.749 70.592L26.462 74.486V66.795L26.705 66.935Z" fill="#27AAE1"/>
<path d="M26.696 66.715V74.416L19.743 70.375V62.695L26.696 66.715Z" fill="#8DBBD3"/>
<path d="M26.49 66.777V66.781L19.774 62.897V70.084L19.358 70.33V62.652L26.49 66.777Z" fill="#6D6E71"/>
<path d="M26.696 74.006V74.518L19.416 70.277L19.778 70.072L26.696 74.006Z" fill="#6D6E71"/>
<path d="M26.462 66.772V66.777L19.749 62.897V70.123L19.331 70.33V62.647L26.462 66.772Z" fill="#A7A9AC"/>
<path d="M26.705 74.049V74.56L19.393 70.291L19.75 70.088L26.705 74.049Z" fill="#D1D3D4"/>
<path d="M23.105 64.785V72.014L22.689 72.221V64.537L23.105 64.785Z" fill="#A7A9AC"/>
<path d="M22.41 64.185V72.051L22.689 72.221V64.537L22.41 64.185Z" fill="#BCBEC0"/>
<path d="M19.093 62.27V70.467L26.705 74.889V66.672L19.093 62.27ZM26.401 74.389L19.392 70.291V62.766L26.401 66.821V74.389Z" fill="#E3DBCA"/>
<path d="M17.096 61.367V69.065L10.145 65.027V65.023L16.856 68.92V61.23L17.096 61.367Z" fill="#27AAE1"/>
<path d="M17.092 61.152V68.848L10.139 64.809V57.131L17.092 61.152Z" fill="#8DBBD3"/>
<path d="M16.88 61.209V61.213L10.166 57.328V64.516L9.752 64.766V57.086L16.88 61.209Z" fill="#6D6E71"/>
<path d="M17.092 68.434V68.949L9.80998 64.715L10.17 64.508L17.092 68.434Z" fill="#6D6E71"/>
<path d="M16.856 61.205V61.213L10.145 57.328V64.555L9.72697 64.762V57.08L16.856 61.205Z" fill="#A7A9AC"/>
<path d="M17.096 68.482V68.996L9.78999 64.728L10.146 64.522L17.096 68.482Z" fill="#D1D3D4"/>
<path d="M13.502 59.219V66.449L13.084 66.654V58.971L13.502 59.219Z" fill="#A7A9AC"/>
<path d="M12.801 58.615V66.49L13.084 66.654V58.971L12.801 58.615Z" fill="#BCBEC0"/>
<path d="M9.48399 56.703V64.9L17.095 69.318V61.103L9.48399 56.703ZM16.797 68.82L9.78999 64.728V57.197L16.797 61.252V68.82Z" fill="#E3DBCA"/>
<path d="M5.74699 54.633V62.24L3.209 60.719V53.129L5.74699 54.633Z" fill="#8DBBD3"/>
<path d="M3.23799 53.326V60.432L2.825 60.678V53.082L3.23799 53.326Z" fill="#6D6E71"/>
<path d="M5.74699 61.881V62.31L2.88597 60.623L3.23799 60.418L5.74699 61.881Z" fill="#6D6E71"/>
<path d="M3.209 53.322V60.469L2.79997 60.67V53.08L3.209 53.322Z" fill="#A7A9AC"/>
<path d="M5.74699 61.902V62.35L2.86098 60.639L3.209 60.434L5.74699 61.902Z" fill="#D1D3D4"/>
<path d="M2.55998 52.703V60.807L6.11098 62.858V54.815L2.55998 52.703ZM5.74699 62.31L2.86098 60.638V53.195L5.74699 54.865V62.31Z" fill="#E3DBCA"/>
<path d="M0.43898 14.451V15.855L1.04097 16.203L1.144 16.264L8.57399 20.535V19.277L0.43898 14.451Z" fill="#704738"/>
<path d="M9.82799 19.268V20.666L8.47398 21.465V20.049L9.82799 19.268Z" fill="#704738"/>
<path d="M44.94 12.637L44.948 12.633L49.908 9.76401L60.33 15.789V16.543L59.699 16.906L49.908 11.248L44.961 14.109L44.94 12.637Z" fill="#704738"/>
<path d="M1.12099 14.859L1.144 16.264L25.469 2.211L25.453 0.727997L1.12099 14.859Z" fill="#704738"/>
<path d="M24.227 2.133L43.06 13.008L43.675 13.363H43.68L44.961 14.109L46.227 13.373L46.238 13.369L44.948 12.633L44.333 12.275L24.236 0.735992V0.746002L24.227 2.133Z" fill="#704738"/>
<path d="M33.143 28.191L42.895 22.559L45.125 23.842L60.327 15.063H60.33V16.543L45.283 25.236L42.992 23.982L33.146 29.67L33.143 28.191Z" fill="#704738"/>
<path d="M29.013 32.637L33.598 29.949L32.539 29.316L32.533 27.816L34.919 29.18L35.5 28.85V30.357L28.966 34.139L7.22697 21.471V20.066L29.013 32.637Z" fill="#704738"/>
<path d="M8.605 19.277L7.24699 20.06L28.94 32.777L35.5 28.849L33.784 27.837L42.895 22.558L45.125 23.841L60.362 15.062L49.943 9.064L44.984 11.915L44.98 11.919L24.878 0.384003L0.466995 14.45L8.605 19.277ZM9.86098 19.268L1.765 14.5L24.865 1.09L44.97 12.637L49.94 9.76401L59.122 15.071L45.169 23.118L42.922 21.843L32.526 27.816L34.255 28.816L28.945 32.179L8.52498 20.04L9.86098 19.268Z" fill="#704738"/>
<path d="M24.602 27.435L24.566 27.453V28.166L25.212 27.783L25.543 27.586L24.928 27.244L24.602 27.435Z" fill="#D0C1A7"/>
<path d="M7.76997 21.252L29.033 33.529L34.879 30.201L34.887 28.469L13.814 17.748L7.77998 19.522L7.76997 21.252Z" fill="#A7A9AC"/>
<path d="M7.77998 19.522L29.041 31.801L34.887 28.469L13.822 16.016L7.77998 19.522Z" fill="#E4DBCC"/>
<path d="M7.50798 20.397V21.117L8.101 21.457L10.125 20.295L10.121 18.912L7.50798 20.397Z" fill="#704738"/>
<path d="M29.033 88.268L52.841 74.447V18.029L29.033 31.803V88.268Z" fill="#A16845"/>
<path d="M1.34099 15.815V72.273L29.033 88.063V31.803L1.34099 15.815Z" fill="#C78D69"/>
<path d="M7.76997 76.26L29.041 88.545L29.033 33.529L7.76997 21.252V76.26Z" fill="#F6CA88"/>
<path d="M59.884 16.518L59.881 70.438L45.572 78.879V24.885L59.884 16.518Z" fill="#E3A546"/>
<path d="M43.282 77.537L45.574 78.877L45.572 24.885L43.279 23.621L43.282 77.537Z" fill="#704738"/>
<path d="M1.34099 15.815L25.18 2.06L45.254 13.752L50.2 10.895L59.996 16.518L45.572 24.885L43.279 23.621L28.946 32.178L1.34099 15.815Z" fill="#E4DBCC"/>
<path d="M29.041 33.535V88.545L34.887 85.188V30.174L29.041 33.535Z" fill="#E3A546"/>
<path d="M43.282 80.225L34.887 84.978L34.892 82.313L43.282 77.537V80.225Z" fill="#443029"/>
<path d="M43.279 80.225L45.568 81.525V78.84L43.279 77.537V80.225Z" fill="#443029"/>
<path d="M59.881 70.438V73.316L45.568 81.525L45.572 78.846L59.881 70.438Z" fill="#443029"/>
<path d="M7.76997 75.223V77.902L29.033 90.172L29.041 90.178V90.172V87.5L7.76997 75.223Z" fill="#704738"/>
<path d="M1.34099 72.346L7.765 76.051L7.76997 76.055V76.047V73.383L1.34099 69.666V72.346Z" fill="#704738"/>
<path d="M29.033 90.172H29.041L34.887 86.787V84.148L29.041 87.5L29.033 90.172Z" fill="#443029"/>
<path d="M49.033 27.691V35.389L55.987 31.35V31.346L49.27 35.242V27.551L49.033 27.691Z" fill="#27AAE1"/>
<path d="M49.041 27.471V35.172L55.996 31.131V23.451L49.041 27.471Z" fill="#8DBBD3"/>
<path d="M49.249 27.531V27.537L55.965 23.65V30.838L56.38 31.088V23.406L49.249 27.531Z" fill="#6D6E71"/>
<path d="M49.041 34.758V35.272L56.318 31.033L55.961 30.828L49.041 34.758Z" fill="#6D6E71"/>
<path d="M49.27 27.525V27.533L55.987 23.647V30.879L56.405 31.084V23.4L49.27 27.525Z" fill="#A7A9AC"/>
<path d="M49.033 34.803V35.318L56.343 31.047L55.987 30.838L49.033 34.803Z" fill="#D1D3D4"/>
<path d="M52.631 25.543V32.77L53.047 32.978V25.295L52.631 25.543Z" fill="#A7A9AC"/>
<path d="M53.329 24.94V32.81L53.047 32.978V25.295L53.329 24.94Z" fill="#BCBEC0"/>
<path d="M49.033 27.426V35.643L56.645 31.219V23.026L49.033 27.426ZM49.332 27.58L56.343 23.519V31.046L49.332 35.142V27.58Z" fill="#E3DBCA"/>
<path d="M37.889 33.873V41.482L40.422 39.961V32.369L37.889 33.873Z" fill="#8DBBD3"/>
<path d="M40.393 32.57V39.67L40.808 39.92V32.322L40.393 32.57Z" fill="#6D6E71"/>
<path d="M37.889 41.123V41.553L40.748 39.865L40.393 39.658L37.889 41.123Z" fill="#6D6E71"/>
<path d="M40.419 32.565V39.709L40.831 39.912V32.322L40.419 32.565Z" fill="#A7A9AC"/>
<path d="M37.889 41.141V41.592L40.773 39.879L40.419 39.676L37.889 41.141Z" fill="#D1D3D4"/>
<path d="M37.554 33.94V42.077L41.068 40.052V31.945L37.554 33.94ZM37.889 34.078L40.774 32.437V39.878L37.889 41.552V34.078Z" fill="#E3DBCA"/>
<path d="M48.875 42.316V50.012L55.83 45.973L49.117 49.867V42.174L48.875 42.316Z" fill="#27AAE1"/>
<path d="M48.882 42.096V49.795L55.835 45.756V38.072L48.882 42.096Z" fill="#8DBBD3"/>
<path d="M49.091 42.156V42.162L55.806 38.275V45.463L56.221 45.711V38.027L49.091 42.156Z" fill="#6D6E71"/>
<path d="M48.882 49.381V49.893L56.162 45.658L55.804 45.455L48.882 49.381Z" fill="#6D6E71"/>
<path d="M49.117 42.154V42.156L55.83 38.272V45.502L56.245 45.707V38.027L49.117 42.154Z" fill="#A7A9AC"/>
<path d="M48.875 49.43V49.941L56.188 45.676L55.83 45.467L48.875 49.43Z" fill="#D1D3D4"/>
<path d="M52.473 40.164V47.393L52.888 47.598V39.92L52.473 40.164Z" fill="#A7A9AC"/>
<path d="M53.171 39.565V47.435L52.888 47.598V39.92L53.171 39.565Z" fill="#BCBEC0"/>
<path d="M48.875 42.051V50.268L56.489 45.848V37.649L48.875 42.051ZM49.18 42.201L56.188 38.142V45.675L49.18 49.769V42.201Z" fill="#E3DBCA"/>
<path d="M37.731 48.496V56.105L40.267 54.584V46.992L37.731 48.496Z" fill="#8DBBD3"/>
<path d="M40.238 47.193V54.293L40.649 54.541V46.951L40.238 47.193Z" fill="#6D6E71"/>
<path d="M37.731 55.746V56.18L40.591 54.486L40.238 54.281L37.731 55.746Z" fill="#6D6E71"/>
<path d="M40.263 47.188V54.334L40.675 54.537V46.947L40.263 47.188Z" fill="#A7A9AC"/>
<path d="M37.731 55.766V56.217L40.616 54.502L40.263 54.295L37.731 55.766Z" fill="#D1D3D4"/>
<path d="M37.396 48.565V56.704L40.907 54.671V46.571L37.396 48.565ZM37.731 48.699L40.616 47.062V54.502L37.731 56.18V48.699Z" fill="#E3DBCA"/>
<path d="M48.875 56.781V64.477L55.832 60.44V60.438L49.117 64.33V56.643L48.875 56.781Z" fill="#27AAE1"/>
<path d="M48.882 56.563V64.26L55.835 60.219V52.539L48.882 56.563Z" fill="#8DBBD3"/>
<path d="M49.091 56.619V56.627L55.806 52.74V59.928L56.221 60.174V52.494L49.091 56.619Z" fill="#6D6E71"/>
<path d="M48.882 63.846V64.361L56.162 60.121L55.804 59.916L48.882 63.846Z" fill="#6D6E71"/>
<path d="M49.117 56.617V56.619L55.832 52.736V59.969L56.248 60.174V52.494L49.117 56.617Z" fill="#A7A9AC"/>
<path d="M48.875 63.893V64.406L56.188 60.139L55.83 59.932L48.875 63.893Z" fill="#D1D3D4"/>
<path d="M52.473 54.631V61.859L52.888 62.063V54.383L52.473 54.631Z" fill="#A7A9AC"/>
<path d="M53.171 54.029V61.897L52.888 62.063V54.383L53.171 54.029Z" fill="#BCBEC0"/>
<path d="M48.875 56.516V64.735L56.489 60.311V52.11L48.875 56.516ZM49.18 56.664L56.188 52.609V60.138L49.18 64.232V56.664Z" fill="#E3DBCA"/>
<path d="M37.731 62.961V70.57L40.267 69.049V61.455L37.731 62.961Z" fill="#8DBBD3"/>
<path d="M40.238 61.66V68.76L40.65 69.004V61.412L40.238 61.66Z" fill="#6D6E71"/>
<path d="M37.731 70.211V70.643L40.591 68.955L40.238 68.748L37.731 70.211Z" fill="#6D6E71"/>
<path d="M40.263 61.652V68.799L40.675 69.002V61.412L40.263 61.652Z" fill="#A7A9AC"/>
<path d="M37.731 70.228V70.68L40.617 68.967L40.263 68.764L37.731 70.228Z" fill="#D1D3D4"/>
<path d="M37.396 63.027V71.164L40.91 69.139V61.032L37.396 63.027ZM37.731 63.162L40.617 61.527V68.966L37.731 70.642V63.162Z" fill="#E3DBCA"/>
<path d="M26.921 38.035V45.73L19.969 41.69L26.679 45.582V37.891L26.921 38.035Z" fill="#27AAE1"/>
<path d="M26.913 37.81V45.512L19.959 41.473V33.791L26.913 37.81Z" fill="#8DBBD3"/>
<path d="M26.705 37.873V37.879L19.988 33.992V41.182L19.575 41.428V33.744L26.705 37.873Z" fill="#6D6E71"/>
<path d="M26.913 45.1V45.611L19.631 41.373L19.993 41.168L26.913 45.1Z" fill="#6D6E71"/>
<path d="M26.679 37.869V37.873L19.969 33.988V41.219L19.549 41.426V33.744L26.679 37.869Z" fill="#A7A9AC"/>
<path d="M26.921 45.145V45.658L19.61 41.391L19.969 41.185L26.921 45.145Z" fill="#D1D3D4"/>
<path d="M23.324 35.879V43.111L22.907 43.316V35.635L23.324 35.879Z" fill="#A7A9AC"/>
<path d="M22.626 35.281V43.15L22.907 43.316V35.635L22.626 35.281Z" fill="#BCBEC0"/>
<path d="M19.31 33.367V41.564L26.921 45.986V37.769L19.31 33.367ZM26.619 45.486L19.61 41.39V33.859L26.619 37.916V45.486Z" fill="#E3DBCA"/>
<path d="M17.315 32.467V40.16L10.358 36.125V36.121L17.076 40.016V32.322L17.315 32.467Z" fill="#27AAE1"/>
<path d="M17.31 32.246V39.945L10.354 35.904V28.225L17.31 32.246Z" fill="#8DBBD3"/>
<path d="M17.096 32.307V32.31L10.386 28.428V35.613L9.96898 35.865V28.182L17.096 32.307Z" fill="#6D6E71"/>
<path d="M17.31 39.527V40.049L10.028 35.807L10.386 35.603L17.31 39.527Z" fill="#6D6E71"/>
<path d="M17.076 32.301V32.31L10.358 28.426V35.652L9.94398 35.857V28.178L17.076 32.301Z" fill="#A7A9AC"/>
<path d="M17.315 39.58V40.094L10.005 35.824L10.358 35.617L17.315 39.58Z" fill="#D1D3D4"/>
<path d="M13.714 30.313V37.547L13.3 37.752V30.066L13.714 30.313Z" fill="#A7A9AC"/>
<path d="M13.016 29.713V37.584L13.3 37.752V30.066L13.016 29.713Z" fill="#BCBEC0"/>
<path d="M9.70497 27.797V35.998L17.315 40.416V32.201L9.70497 27.797ZM17.013 39.92L10.005 35.824V28.295L17.013 32.35V39.92Z" fill="#E3DBCA"/>
<path d="M5.959 25.727V33.334L3.42497 31.816V24.223L5.959 25.727Z" fill="#8DBBD3"/>
<path d="M3.45399 24.424V31.525L3.04298 31.772V24.18L3.45399 24.424Z" fill="#6D6E71"/>
<path d="M5.959 32.978V33.41L3.10298 31.719L3.45399 31.516L5.959 32.978Z" fill="#6D6E71"/>
<path d="M3.42897 24.42V31.565L3.01598 31.768V24.178L3.42897 24.42Z" fill="#A7A9AC"/>
<path d="M5.959 32.998V33.445L3.07799 31.732L3.42897 31.531L5.959 32.998Z" fill="#D1D3D4"/>
<path d="M2.77898 23.799V31.907L6.32698 33.954V25.911L2.77898 23.799ZM5.959 33.41L3.07799 31.732V24.293L5.959 25.961V33.41Z" fill="#E3DBCA"/>
<path d="M26.705 52.355V60.053L19.749 56.012L26.462 59.908V52.215L26.705 52.355Z" fill="#27AAE1"/>
<path d="M26.696 52.137V59.836L19.743 55.795V48.115L26.696 52.137Z" fill="#8DBBD3"/>
<path d="M26.49 52.195V52.201L19.774 48.315V55.504L19.358 55.752V48.07L26.49 52.195Z" fill="#6D6E71"/>
<path d="M26.696 59.424V59.932L19.416 55.697L19.778 55.494L26.696 59.424Z" fill="#6D6E71"/>
<path d="M26.462 52.191V52.195L19.749 48.313V55.543L19.331 55.746V48.066L26.462 52.191Z" fill="#A7A9AC"/>
<path d="M26.705 59.469V59.982L19.393 55.711L19.75 55.506L26.705 59.469Z" fill="#D1D3D4"/>
<path d="M23.105 50.205V57.435L22.689 57.639V49.959L23.105 50.205Z" fill="#A7A9AC"/>
<path d="M22.41 49.605V57.473L22.689 57.639V49.959L22.41 49.605Z" fill="#BCBEC0"/>
<path d="M19.093 47.691V55.886L26.705 60.308V52.089L19.093 47.691ZM26.401 59.809L19.392 55.711V48.184L26.401 52.243V59.809Z" fill="#E3DBCA"/>
<path d="M17.096 46.789V54.484L10.145 50.445V50.443L16.856 54.338V46.648L17.096 46.789Z" fill="#27AAE1"/>
<path d="M17.092 46.572V54.268L10.139 50.232V42.547L17.092 46.572Z" fill="#8DBBD3"/>
<path d="M16.88 46.629V46.635L10.166 42.752V49.935L9.752 50.188V42.506L16.88 46.629Z" fill="#6D6E71"/>
<path d="M17.092 53.853V54.369L9.80998 50.137L10.17 49.926L17.092 53.853Z" fill="#6D6E71"/>
<path d="M16.856 46.623V46.633L10.145 42.746V49.978L9.72697 50.184V42.502L16.856 46.623Z" fill="#A7A9AC"/>
<path d="M17.096 53.9V54.416L9.78999 50.15L10.146 49.941L17.096 53.9Z" fill="#D1D3D4"/>
<path d="M13.502 44.637V51.867L13.084 52.072V44.391L13.502 44.637Z" fill="#A7A9AC"/>
<path d="M12.801 44.039V51.904L13.084 52.072V44.391L12.801 44.039Z" fill="#BCBEC0"/>
<path d="M9.48399 42.121V50.32L17.095 54.74V46.523L9.48399 42.121ZM16.797 54.24L9.78999 50.15V42.619L16.797 46.674V54.24Z" fill="#E3DBCA"/>
<path d="M5.74699 40.051V47.656L3.209 46.137V38.545L5.74699 40.051Z" fill="#8DBBD3"/>
<path d="M3.23799 38.746V45.848L2.825 46.096V38.506L3.23799 38.746Z" fill="#6D6E71"/>
<path d="M5.74699 47.301V47.732L2.88597 46.043L3.23799 45.838L5.74699 47.301Z" fill="#6D6E71"/>
<path d="M3.209 38.742V45.889L2.79997 46.092V38.5L3.209 38.742Z" fill="#A7A9AC"/>
<path d="M5.74699 47.322V47.772L2.86098 46.057L3.209 45.852L5.74699 47.322Z" fill="#D1D3D4"/>
<path d="M2.55998 38.119V46.226L6.11098 48.275V40.236L2.55998 38.119ZM5.74699 47.732L2.86098 46.056V38.617L5.74699 40.285V47.732Z" fill="#E3DBCA"/>
<path d="M26.705 66.935V74.631L19.749 70.592L26.462 74.486V66.795L26.705 66.935Z" fill="#27AAE1"/>
<path d="M26.696 66.715V74.416L19.743 70.375V62.695L26.696 66.715Z" fill="#8DBBD3"/>
<path d="M26.49 66.777V66.781L19.774 62.897V70.084L19.358 70.33V62.652L26.49 66.777Z" fill="#6D6E71"/>
<path d="M26.696 74.006V74.518L19.416 70.277L19.778 70.072L26.696 74.006Z" fill="#6D6E71"/>
<path d="M26.462 66.772V66.777L19.749 62.897V70.123L19.331 70.33V62.647L26.462 66.772Z" fill="#A7A9AC"/>
<path d="M26.705 74.049V74.56L19.393 70.291L19.75 70.088L26.705 74.049Z" fill="#D1D3D4"/>
<path d="M23.105 64.785V72.014L22.689 72.221V64.537L23.105 64.785Z" fill="#A7A9AC"/>
<path d="M22.41 64.185V72.051L22.689 72.221V64.537L22.41 64.185Z" fill="#BCBEC0"/>
<path d="M19.093 62.27V70.467L26.705 74.889V66.672L19.093 62.27ZM26.401 74.389L19.392 70.291V62.766L26.401 66.821V74.389Z" fill="#E3DBCA"/>
<path d="M17.096 61.367V69.065L10.145 65.027V65.023L16.856 68.92V61.23L17.096 61.367Z" fill="#27AAE1"/>
<path d="M17.092 61.152V68.848L10.139 64.809V57.131L17.092 61.152Z" fill="#8DBBD3"/>
<path d="M16.88 61.209V61.213L10.166 57.328V64.516L9.752 64.766V57.086L16.88 61.209Z" fill="#6D6E71"/>
<path d="M17.092 68.434V68.949L9.80998 64.715L10.17 64.508L17.092 68.434Z" fill="#6D6E71"/>
<path d="M16.856 61.205V61.213L10.145 57.328V64.555L9.72697 64.762V57.08L16.856 61.205Z" fill="#A7A9AC"/>
<path d="M17.096 68.482V68.996L9.78999 64.728L10.146 64.522L17.096 68.482Z" fill="#D1D3D4"/>
<path d="M13.502 59.219V66.449L13.084 66.654V58.971L13.502 59.219Z" fill="#A7A9AC"/>
<path d="M12.801 58.615V66.49L13.084 66.654V58.971L12.801 58.615Z" fill="#BCBEC0"/>
<path d="M9.48399 56.703V64.9L17.095 69.318V61.103L9.48399 56.703ZM16.797 68.82L9.78999 64.728V57.197L16.797 61.252V68.82Z" fill="#E3DBCA"/>
<path d="M5.74699 54.633V62.24L3.209 60.719V53.129L5.74699 54.633Z" fill="#8DBBD3"/>
<path d="M3.23799 53.326V60.432L2.825 60.678V53.082L3.23799 53.326Z" fill="#6D6E71"/>
<path d="M5.74699 61.881V62.31L2.88597 60.623L3.23799 60.418L5.74699 61.881Z" fill="#6D6E71"/>
<path d="M3.209 53.322V60.469L2.79997 60.67V53.08L3.209 53.322Z" fill="#A7A9AC"/>
<path d="M5.74699 61.902V62.35L2.86098 60.639L3.209 60.434L5.74699 61.902Z" fill="#D1D3D4"/>
<path d="M2.55998 52.703V60.807L6.11098 62.858V54.815L2.55998 52.703ZM5.74699 62.31L2.86098 60.638V53.195L5.74699 54.865V62.31Z" fill="#E3DBCA"/>
<path d="M0.43898 14.451V15.855L1.04097 16.203L1.144 16.264L8.57399 20.535V19.277L0.43898 14.451Z" fill="#704738"/>
<path d="M9.82799 19.268V20.666L8.47398 21.465V20.049L9.82799 19.268Z" fill="#704738"/>
<path d="M44.94 12.637L44.948 12.633L49.908 9.76401L60.33 15.789V16.543L59.699 16.906L49.908 11.248L44.961 14.109L44.94 12.637Z" fill="#704738"/>
<path d="M1.12099 14.859L1.144 16.264L25.469 2.211L25.453 0.727997L1.12099 14.859Z" fill="#704738"/>
<path d="M24.227 2.133L43.06 13.008L43.675 13.363H43.68L44.961 14.109L46.227 13.373L46.238 13.369L44.948 12.633L44.333 12.275L24.236 0.735992V0.746002L24.227 2.133Z" fill="#704738"/>
<path d="M33.143 28.191L42.895 22.559L45.125 23.842L60.327 15.063H60.33V16.543L45.283 25.236L42.992 23.982L33.146 29.67L33.143 28.191Z" fill="#704738"/>
<path d="M29.013 32.637L33.598 29.949L32.539 29.316L32.533 27.816L34.919 29.18L35.5 28.85V30.357L28.966 34.139L7.22697 21.471V20.066L29.013 32.637Z" fill="#704738"/>
<path d="M8.605 19.277L7.24699 20.06L28.94 32.777L35.5 28.849L33.784 27.837L42.895 22.558L45.125 23.841L60.362 15.062L49.943 9.064L44.984 11.915L44.98 11.919L24.878 0.384003L0.466995 14.45L8.605 19.277ZM9.86098 19.268L1.765 14.5L24.865 1.09L44.97 12.637L49.94 9.76401L59.122 15.071L45.169 23.118L42.922 21.843L32.526 27.816L34.255 28.816L28.945 32.179L8.52498 20.04L9.86098 19.268Z" fill="#443029"/>
</svg>
