<svg width="51" height="99" viewBox="0 0 51 99" fill="none" xmlns="http://www.w3.org/2000/svg">
<path d="M29.513 98.108L50.249 86.164V61.588L29.543 73.553L29.513 98.108Z" fill="#C0C7CE"/>
<path d="M0.551987 81.388L29.513 98.108L29.543 73.553L0.551987 56.811V81.388Z" fill="#C0C7CE"/>
<path d="M0.551987 79.241L29.513 95.964L29.543 73.553L0.551987 56.811V79.241Z" fill="#F1F2F2"/>
<path d="M29.513 95.964L50.249 84.017V61.588L29.543 73.553L29.513 95.964Z" fill="#D7E4E8"/>
<path d="M0.551987 56.811L29.543 73.553L50.249 61.588L21.286 44.865L0.551987 56.811Z" fill="#C0C7CE"/>
<path d="M3.877 57.392L29.111 71.963L29.136 31.099L3.877 16.513V57.392Z" fill="#F1F2F2"/>
<path d="M29.111 71.963L47.177 61.556V20.675L29.136 31.099L29.111 71.963Z" fill="#D7E4E8"/>
<path d="M3.877 16.513L29.136 31.099L47.177 20.675L21.944 6.104L3.877 16.513Z" fill="#C0C7CE"/>
<path d="M5.43797 21.786V30.23L6.46898 29.635L26.541 41.23L27.383 41.714L27.375 34.447L26.533 33.964L5.43797 21.786Z" fill="#BCDCE6"/>
<path d="M12.757 33.267V26.013L13.306 26.324L13.31 33.588L20.054 37.482L20.066 30.227L20.612 30.545L20.611 37.805L27.383 41.714V42.906L5.43797 30.23V29.039L12.757 33.267Z" fill="#7E7F82"/>
<path d="M6.46898 22.378V29.635L5.43797 30.23L5.43498 21.786L6.46898 22.378Z" fill="#76777A"/>
<path d="M20.612 30.545L27.382 39.009L27.375 34.447L20.612 30.545Z" fill="#6B6B6B"/>
<path d="M20.611 34.849V37.805L25.406 40.574L20.611 34.849Z" fill="#6B6B6B"/>
<path d="M13.306 26.324L20.06 34.77L20.066 30.227L13.306 26.324Z" fill="#6B6B6B"/>
<path d="M13.327 30.656L13.303 33.584L18.067 36.312L13.327 30.656Z" fill="#6B6B6B"/>
<path d="M6.49797 22.395L12.757 30.689V26.013L6.49797 22.395Z" fill="#6B6B6B"/>
<path d="M6.46898 26.694V29.635L11.239 32.39L6.46898 26.694Z" fill="#6B6B6B"/>
<path d="M5.43797 33.678V42.12L6.46999 41.529L26.542 53.119L27.384 53.606L27.377 46.34L26.535 45.855L5.43797 33.678Z" fill="#BCDCE6"/>
<path d="M12.759 45.158V37.902L13.306 38.215L13.31 45.479L20.058 49.373L20.068 42.119L20.613 42.437L20.612 49.695L27.384 53.606V54.798L5.43797 42.12V40.932L12.759 45.158Z" fill="#7E7F82"/>
<path d="M6.46999 34.269V41.529L5.43797 42.12L5.43498 33.678L6.46999 34.269Z" fill="#76777A"/>
<path d="M20.613 42.437L27.383 50.898L27.377 46.34L20.613 42.437Z" fill="#6B6B6B"/>
<path d="M20.613 46.739L20.612 49.695L25.406 52.467L20.613 46.739Z" fill="#6B6B6B"/>
<path d="M13.306 38.215L20.06 46.661L20.068 42.119L13.306 38.215Z" fill="#6B6B6B"/>
<path d="M13.327 42.546L13.303 45.475L18.069 48.202L13.327 42.546Z" fill="#6B6B6B"/>
<path d="M6.49998 34.287L12.759 42.581V37.902L6.49998 34.287Z" fill="#6B6B6B"/>
<path d="M6.46999 38.583V41.529L11.241 44.282L6.46999 38.583Z" fill="#6B6B6B"/>
<path d="M5.43797 45.374V53.817L6.46999 53.224L26.542 64.816L27.384 65.304L27.377 58.037L26.535 57.552L5.43797 45.374Z" fill="#BCDCE6"/>
<path d="M12.759 56.856V49.6L13.306 49.914L13.31 57.176L20.058 61.069L20.068 53.815L20.613 54.136L20.612 61.392L27.384 65.304V66.495L5.43797 53.817V52.628L12.759 56.856Z" fill="#7E7F82"/>
<path d="M6.46999 45.965V53.224L5.43797 53.817L5.43498 45.374L6.46999 45.965Z" fill="#76777A"/>
<path d="M20.613 54.136L27.383 62.595L27.377 58.037L20.613 54.136Z" fill="#6B6B6B"/>
<path d="M20.613 58.438L20.612 61.392L25.406 64.161L20.613 58.438Z" fill="#6B6B6B"/>
<path d="M13.306 49.914L20.06 58.358L20.068 53.815L13.306 49.914Z" fill="#6B6B6B"/>
<path d="M13.327 54.243L13.303 57.171L18.069 59.9L13.327 54.243Z" fill="#6B6B6B"/>
<path d="M6.49998 45.982L12.759 54.278V49.6L6.49998 45.982Z" fill="#6B6B6B"/>
<path d="M6.46999 50.281V53.224L11.241 55.979L6.46999 50.281Z" fill="#6B6B6B"/>
<path d="M3.2 62.187V70.63L4.22697 70.036L24.302 81.63L25.143 82.116L25.137 74.85L24.294 74.364L3.2 62.187Z" fill="#BCDCE6"/>
<path d="M10.521 73.668V66.413L11.065 66.725L11.069 73.988L17.815 77.883L17.828 70.626L18.372 70.945L18.371 78.204L25.143 82.116V83.308L3.2 70.63V69.438L10.521 73.668Z" fill="#7E7F82"/>
<path d="M4.22697 62.777V70.036L3.2 70.63L3.196 62.187L4.22697 62.777Z" fill="#76777A"/>
<path d="M18.372 70.945L25.142 79.407L25.137 74.85L18.372 70.945Z" fill="#6B6B6B"/>
<path d="M18.371 75.249V78.204L23.169 80.978L18.371 75.249Z" fill="#6B6B6B"/>
<path d="M11.065 66.725L17.819 75.171L17.828 70.626L11.065 66.725Z" fill="#6B6B6B"/>
<path d="M11.088 71.056L11.063 73.982L15.828 76.712L11.088 71.056Z" fill="#6B6B6B"/>
<path d="M4.25999 62.794L10.521 71.088V66.413L4.25999 62.794Z" fill="#6B6B6B"/>
<path d="M4.22697 67.093V70.036L8.99898 72.79L4.22697 67.093Z" fill="#6B6B6B"/>
<path d="M3.86299 15.565L29.042 30.111L47.176 19.647L47.177 18.088L21.851 5.116L3.877 13.925L3.86299 15.565Z" fill="#EBECED"/>
<path d="M3.877 13.925L29.136 28.513L47.177 18.088L21.944 3.51801L3.877 13.925Z" fill="#C0C7CE"/>
<path d="M3.87099 12.322L29.049 26.868L47.185 16.403L47.188 14.845L21.855 1.87302L3.88597 10.683L3.87099 12.322Z" fill="#EBECED"/>
<path d="M3.88597 10.683L29.145 25.27L47.188 14.845L21.951 0.27301L3.88597 10.683Z" fill="#C0C7CE"/>
</svg>
