<svg width="54" height="101" viewBox="0 0 54 101" fill="none" xmlns="http://www.w3.org/2000/svg">
<path d="M52.329 21.828L52.314 79.61L26.963 94.283V36.788L52.329 21.828Z" fill="#704738"/>
<path d="M53.604 22.954L53.6 82.212L45.628 86.864L45.632 27.554L53.604 22.954Z" fill="#A16845"/>
<path d="M45.628 86.864L44.357 86.146L44.363 26.835L45.632 27.554L45.628 86.864Z" fill="#443029"/>
<path d="M28.231 96.899L26.963 96.181L26.968 36.869L28.237 37.589L28.231 96.899Z" fill="#C78D69"/>
<path d="M25.532 0.97702L52.329 16.446L26.966 31.096L0.169006 15.625L25.532 0.97702Z" fill="#F1F2F2"/>
<path d="M34.936 26.483L36.208 27.215L28.237 31.814L26.968 31.095L34.936 26.483Z" fill="#F1F2F2"/>
<path d="M52.33 16.446L53.604 17.179L45.632 21.779L44.363 21.059L52.33 16.446Z" fill="#F1F2F2"/>
<path d="M44.363 26.835L45.632 27.554V21.828L44.363 21.108V26.835Z" fill="#808285"/>
<path d="M44.363 21.108L44.357 26.835L36.208 31.534L36.205 27.219L35.007 26.522L44.363 21.108Z" fill="#A7A9AC"/>
<path d="M0.169006 15.625V21.398L28.235 37.589L28.237 31.814L0.169006 15.625Z" fill="#A7A9AC"/>
<path d="M53.604 17.184V22.954L45.632 27.554V21.828L53.604 17.184Z" fill="#939598"/>
<path d="M36.205 27.219V32.989L28.235 37.589L28.237 31.814L36.205 27.219Z" fill="#939598"/>
<path d="M25.833 27.589L5.04498 15.587L25.705 3.66003L46.491 15.662L25.833 27.589Z" fill="#C0C7CE"/>
<path d="M0.169006 21.398L28.236 37.589L28.231 97.348L0.156006 80.644L0.169006 21.398Z" fill="#C78D69"/>
<path d="M44.363 89.821L45.632 90.542V84.816L44.363 84.098V89.821Z" fill="#808285"/>
<path d="M44.363 84.098L44.357 89.821L36.208 94.524L36.205 90.207L35.007 89.513L44.363 84.098Z" fill="#A7A9AC"/>
<path d="M0.156006 78.612L0.169006 84.193L28.235 100.577L28.237 94.801L0.156006 78.612Z" fill="#A7A9AC"/>
<path d="M53.604 80.171V85.943L45.632 90.542V84.816L53.604 80.171Z" fill="#939598"/>
<path d="M36.208 32.989L36.203 92.247L28.231 96.899L28.236 37.589L36.208 32.989Z" fill="#A16845"/>
<path d="M36.205 90.207V95.977L28.235 100.577L28.237 94.801L36.205 90.207Z" fill="#939598"/>
<path d="M38.8849 35.825V43.688L41.506 42.117V34.267L38.8849 35.825Z" fill="#9BCCE5"/>
<path d="M41.474 34.475V41.819L41.901 42.072V34.223L41.474 34.475Z" fill="#6D6E71"/>
<path d="M38.8849 43.32V43.766L41.84 42.019L41.474 41.807L38.8849 43.32Z" fill="#6D6E71"/>
<path d="M41.499 34.47V41.856L41.927 42.068V34.221L41.499 34.47Z" fill="#BCBEC0"/>
<path d="M38.8849 43.342V43.805L41.864 42.033L41.4989 41.821L38.8849 43.342Z" fill="#D1D3D4"/>
<path d="M38.538 35.893V44.307L42.171 42.211V33.794L38.538 35.893ZM38.885 36.034L41.864 34.339V42.033L38.885 43.765V36.034Z" fill="white"/>
<path d="M38.882 51.268V59.131L41.506 57.56V49.709L38.882 51.268Z" fill="#9BCCE5"/>
<path d="M41.474 49.919V57.261L41.901 57.516V49.666L41.474 49.919Z" fill="#6D6E71"/>
<path d="M38.882 58.763V59.209L41.84 57.461L41.474 57.248L38.882 58.763Z" fill="#6D6E71"/>
<path d="M41.5 49.913V57.301L41.927 57.511V49.663L41.5 49.913Z" fill="#BCBEC0"/>
<path d="M38.882 58.782V59.246L41.864 57.476L41.5 57.265L38.882 58.782Z" fill="#D1D3D4"/>
<path d="M38.538 51.356V59.77L42.171 57.674V49.263L38.538 51.356ZM38.882 51.497L41.864 49.805V57.497L38.882 59.228V51.497Z" fill="white"/>
<path d="M38.882 66.801V74.663L41.506 73.093V65.241L38.882 66.801Z" fill="#9BCCE5"/>
<path d="M41.476 65.449V72.794L41.901 73.049V65.198L41.476 65.449Z" fill="#6D6E71"/>
<path d="M38.882 74.294V74.738L41.84 72.99L41.476 72.782L38.882 74.294Z" fill="#6D6E71"/>
<path d="M41.499 65.446V72.834L41.924 73.039V65.193L41.499 65.446Z" fill="#BCBEC0"/>
<path d="M38.882 74.313V74.779L41.864 73.004L41.4989 72.797L38.882 74.313Z" fill="#D1D3D4"/>
<path d="M38.538 66.891V75.308L42.171 73.21V64.795L38.538 66.891ZM38.882 67.032L41.864 65.34V73.033L38.882 74.766V67.032Z" fill="white"/>
<path d="M7.02698 33.355V41.218L4.40698 39.646V31.796L7.02698 33.355Z" fill="#9BCCE5"/>
<path d="M4.43796 32.006V39.35L4.00995 39.602V31.754L4.43796 32.006Z" fill="#6D6E71"/>
<path d="M7.02698 40.849V41.296L4.07098 39.549L4.43799 39.337L7.02698 40.849Z" fill="#6D6E71"/>
<path d="M4.41199 32.001V39.389L3.98499 39.599V31.75L4.41199 32.001Z" fill="#BCBEC0"/>
<path d="M7.02698 40.871V41.334L4.04498 39.564L4.41199 39.353L7.02698 40.871Z" fill="#D1D3D4"/>
<path d="M3.74097 31.323V39.742L7.37396 41.838V33.423L3.74097 31.323ZM7.02696 41.296L4.04497 39.565V31.87L7.02696 33.562V41.296Z" fill="white"/>
<path d="M7.02899 48.799V56.662L4.40698 55.09V47.24L7.02899 48.799Z" fill="#9BCCE5"/>
<path d="M4.43796 47.45V54.791L4.00995 55.048V47.198L4.43796 47.45Z" fill="#6D6E71"/>
<path d="M7.02899 56.295V56.74L4.07098 54.993L4.43799 54.78L7.02899 56.295Z" fill="#6D6E71"/>
<path d="M4.41096 47.444V54.833L3.98596 55.041V47.193L4.41096 47.444Z" fill="#BCBEC0"/>
<path d="M7.02899 56.312V56.777L4.04498 55.008L4.41098 54.794L7.02899 56.312Z" fill="#D1D3D4"/>
<path d="M3.74097 46.795V55.203L7.37396 57.3V48.89L3.74097 46.795ZM7.02898 56.76L4.04497 55.028V47.335L7.02898 49.027V56.76Z" fill="white"/>
<path d="M7.02899 64.328V72.193L4.40698 70.622V62.771L7.02899 64.328Z" fill="#9BCCE5"/>
<path d="M4.43797 62.98V70.323L4.00897 70.578V62.729L4.43797 62.98Z" fill="#6D6E71"/>
<path d="M7.02901 71.824V72.272L4.073 70.522L4.438 70.313L7.02901 71.824Z" fill="#6D6E71"/>
<path d="M4.41197 62.978V70.364L3.98596 70.572V62.726L4.41197 62.978Z" fill="#BCBEC0"/>
<path d="M7.02899 71.843V72.308L4.04498 70.537L4.41199 70.327L7.02899 71.843Z" fill="#D1D3D4"/>
<path d="M3.73999 62.326V70.742L7.37398 72.839V64.423L3.73999 62.326ZM7.02899 72.298L4.04498 70.565V62.87L7.02899 64.564V72.298Z" fill="white"/>
<path d="M22.241 72.938V80.854L15.09 76.699V76.698L21.995 80.703V72.796L22.241 72.938Z" fill="#27AAE1"/>
<path d="M22.236 72.712V80.632L15.082 76.475V68.575L22.236 72.712Z" fill="#9BCCE5"/>
<path d="M22.021 72.774V72.778L15.114 68.78V76.176L14.684 76.433V68.53L22.021 72.774Z" fill="#6D6E71"/>
<path d="M22.236 80.205V80.734L14.747 76.376L15.114 76.163L22.236 80.205Z" fill="#6D6E71"/>
<path d="M21.995 72.769V72.775L15.09 68.777V76.217L14.661 76.428V68.527L21.995 72.769Z" fill="#BCBEC0"/>
<path d="M22.241 80.255V80.782L14.725 76.391L15.09 76.182L22.241 80.255Z" fill="#D1D3D4"/>
<path d="M18.544 70.725V78.161L18.114 78.374V70.471L18.544 70.725Z" fill="#BCBEC0"/>
<path d="M17.824 70.108V78.203L18.114 78.374V70.471L17.824 70.108Z" fill="white"/>
<path d="M14.412 68.137V76.57L22.242 81.118V72.665L14.412 68.137ZM21.932 80.604L14.725 76.39V68.648L21.932 72.818V80.604Z" fill="white"/>
<path d="M22.244 57.646V65.563L15.09 61.408L21.995 65.413V57.503L22.244 57.646Z" fill="#27AAE1"/>
<path d="M22.236 57.419V65.34L15.082 61.185V53.283L22.236 57.419Z" fill="#9BCCE5"/>
<path d="M22.021 57.481V57.488L15.114 53.492V60.884L14.684 61.14V53.237L22.021 57.481Z" fill="#6D6E71"/>
<path d="M22.236 64.916V65.444L14.748 61.086L15.116 60.873L22.236 64.916Z" fill="#6D6E71"/>
<path d="M21.995 57.479V57.485L15.09 53.489V60.926L14.661 61.136V53.235L21.995 57.479Z" fill="#BCBEC0"/>
<path d="M22.244 64.965V65.491L14.725 61.103L15.09 60.888L22.244 64.965Z" fill="#D1D3D4"/>
<path d="M18.545 55.433V62.87L18.114 63.083V55.18L18.545 55.433Z" fill="#BCBEC0"/>
<path d="M17.824 54.816V62.911L18.114 63.083V55.18L17.824 54.816Z" fill="white"/>
<path d="M14.412 52.847V61.28L22.244 65.829V57.372L14.412 52.847ZM21.932 65.313L14.725 61.103V53.356L21.932 57.53V65.313Z" fill="white"/>
<path d="M22.241 41.993V49.911L15.09 45.756V45.755L21.995 49.761V41.851L22.241 41.993Z" fill="#27AAE1"/>
<path d="M22.236 41.768V49.688L15.082 45.533V37.632L22.236 41.768Z" fill="#9BCCE5"/>
<path d="M22.021 41.83V41.835L15.114 37.841V45.229L14.684 45.487V37.587L22.021 41.83Z" fill="#6D6E71"/>
<path d="M22.236 49.264V49.789L14.747 45.433L15.114 45.221L22.236 49.264Z" fill="#6D6E71"/>
<path d="M21.995 41.825V41.833L15.09 37.837V45.271L14.661 45.487V37.584L21.995 41.825Z" fill="#BCBEC0"/>
<path d="M22.241 49.311V49.84L14.725 45.447L15.09 45.235L22.241 49.311Z" fill="#D1D3D4"/>
<path d="M18.544 39.782V47.219L18.114 47.431V39.527L18.544 39.782Z" fill="#BCBEC0"/>
<path d="M17.824 39.165V47.26L18.114 47.431V39.527L17.824 39.165Z" fill="white"/>
<path d="M14.412 37.193V45.627L22.242 50.174V41.722L14.412 37.193ZM21.932 49.658L14.725 45.447V37.704L21.932 41.876V49.658Z" fill="white"/>
<path d="M9.65298 74.736L13.488 72.514V76.698L9.65298 78.904V74.736Z" fill="#939598"/>
<path d="M13.488 72.514L12.528 71.96L9.22198 73.88L9.65298 74.736L13.488 72.514Z" fill="#A7A9AC"/>
<path d="M21.983 81.3L9.22198 73.88V79.012L21.983 86.432V81.3Z" fill="#C0C7CE"/>
<path d="M9.22198 73.88L10.373 73.215L23.133 80.632L21.983 81.3L9.22198 73.88Z" fill="#A7A9AC"/>
<path d="M25.352 79.359L24.394 78.804L21.558 80.464L21.99 81.318L25.352 79.359Z" fill="#A7A9AC"/>
<path d="M21.983 81.3L25.352 79.359L25.347 84.485L21.983 86.432V81.3Z" fill="#939598"/>
<path d="M9.65298 59.444L13.488 57.225V61.408L9.65298 63.615V59.444Z" fill="#939598"/>
<path d="M13.488 57.225L12.528 56.668L9.22198 58.588L9.65298 59.444L13.488 57.225Z" fill="#A7A9AC"/>
<path d="M21.983 66.01L9.22198 58.588V63.719L21.983 71.143V66.01Z" fill="#C0C7CE"/>
<path d="M9.22198 58.588L10.376 57.924L23.133 65.342L21.983 66.01L9.22198 58.588Z" fill="#A7A9AC"/>
<path d="M25.352 64.069L24.394 63.515L21.558 65.173L21.99 66.028L25.352 64.069Z" fill="#A7A9AC"/>
<path d="M21.983 66.01L25.352 64.069L25.347 69.195L21.983 71.143V66.01Z" fill="#939598"/>
<path d="M9.65298 43.791L13.488 41.569V45.755L9.65298 47.963V43.791Z" fill="#808285"/>
<path d="M13.488 41.569L12.528 41.017L9.22198 42.936L9.65298 43.791L13.488 41.569Z" fill="#A7A9AC"/>
<path d="M21.983 50.357L9.22198 42.936V48.068L21.983 55.489V50.357Z" fill="#C0C7CE"/>
<path d="M9.22198 42.936L10.373 42.271L23.133 49.689L21.983 50.357L9.22198 42.936Z" fill="#A7A9AC"/>
<path d="M25.352 48.416L24.394 47.863L21.558 49.521L21.99 50.375L25.352 48.416Z" fill="#A7A9AC"/>
<path d="M21.983 50.357L25.352 48.416L25.347 53.544L21.983 55.489V50.357Z" fill="#939598"/>
</svg>
