<svg width="55" height="91" viewBox="0 0 55 91" fill="none" xmlns="http://www.w3.org/2000/svg">
<path d="M0.0950012 11.51V14.275L18.438 24.908V22.143L0.0950012 11.51Z" fill="#A7A9AC"/>
<path d="M54.845 24.584L36.511 35.381L36.548 87.912L54.875 77.488L54.845 24.584Z" fill="#A16845"/>
<path d="M0.0950012 14.275L36.511 35.381L36.548 87.912L0.153992 66.896L0.0950012 14.275Z" fill="#C78D69"/>
<path d="M54.911 77.326L36.545 87.918V90.663L54.911 79.98V77.326Z" fill="#A7A9AC"/>
<path d="M36.55 87.906V90.653L0.153992 69.672V66.896L36.55 87.906Z" fill="#A7A9AC"/>
<path d="M36.511 32.613L54.824 21.973L54.845 24.584L36.511 35.375V32.613Z" fill="#A7A9AC"/>
<path d="M18.166 21.982V24.746L36.511 35.381V32.617L18.166 21.982Z" fill="#A7A9AC"/>
<path d="M36.511 32.818L0.0950012 11.51L18.335 0.979004L54.824 21.973L36.511 32.818Z" fill="#D5D8E6"/>
<path d="M22.185 22.068L23.843 23.049L36.424 30.484L49.088 22.982L50.755 21.998L36.435 13.873L22.185 22.068Z" fill="#6D6E71"/>
<path d="M23.843 23.049L36.424 30.484L49.088 22.982L36.435 15.807L23.843 23.049Z" fill="#E4DBCC"/>
<path d="M4.306 11.752L5.96301 12.73L18.546 20.164L31.21 12.664L32.879 11.678L18.553 3.55701L4.306 11.752Z" fill="#6D6E71"/>
<path d="M5.96301 12.73L18.546 20.164L31.21 12.664L18.553 5.48801L5.96301 12.73Z" fill="#E4DBCC"/>
<path d="M27.216 35.531V43.967L19.595 39.543V39.537L26.951 43.807V35.381L27.216 35.531Z" fill="#27AAE1"/>
<path d="M27.209 35.293V43.732L19.591 39.301V30.883L27.209 35.293Z" fill="#B5D4DE"/>
<path d="M26.98 35.355V35.363L19.622 31.105V38.984L19.167 39.254V30.838L26.98 35.355Z" fill="#6D6E71"/>
<path d="M27.209 43.277V43.838L19.231 39.197L19.622 38.971L27.209 43.277Z" fill="#6D6E71"/>
<path d="M26.951 35.355V35.357L19.595 31.102V39.027L19.139 39.254V30.832L26.951 35.355Z" fill="#A7A9AC"/>
<path d="M27.216 43.328V43.893L19.204 39.213L19.595 38.986L27.216 43.328Z" fill="#D1D3D4"/>
<path d="M23.273 33.174V41.1L22.817 41.324V32.904L23.273 33.174Z" fill="#A7A9AC"/>
<path d="M22.511 32.52V41.146L22.817 41.324V32.904L22.511 32.52Z" fill="#BCBEC0"/>
<path d="M18.874 30.416V39.402L27.216 44.246V35.242L18.874 30.416ZM26.888 43.701L19.204 39.213V30.959L26.888 35.408V43.701Z" fill="#E3DBCA"/>
<path d="M27.216 49.324V57.764L19.595 53.336V53.332L26.951 57.602V49.172L27.216 49.324Z" fill="#27AAE1"/>
<path d="M27.209 49.088V57.525L19.591 53.096V44.678L27.209 49.088Z" fill="#B5D4DE"/>
<path d="M26.98 49.148V49.154L19.622 44.898V52.777L19.167 53.049V44.629L26.98 49.148Z" fill="#6D6E71"/>
<path d="M27.209 57.07V57.633L19.231 52.99L19.622 52.766L27.209 57.07Z" fill="#6D6E71"/>
<path d="M26.951 49.148V49.152L19.595 44.895V52.82L19.139 53.049V44.625L26.951 49.148Z" fill="#A7A9AC"/>
<path d="M27.216 57.123V57.688L19.204 53.006L19.595 52.777L27.216 57.123Z" fill="#D1D3D4"/>
<path d="M23.273 46.967V54.893L22.817 55.119V46.697L23.273 46.967Z" fill="#A7A9AC"/>
<path d="M22.511 46.313V54.939L22.817 55.119V46.697L22.511 46.313Z" fill="#BCBEC0"/>
<path d="M18.874 44.209V53.195L27.216 58.041V49.035L18.874 44.209ZM26.888 57.496L19.204 53.006V44.754L26.888 49.201V57.496Z" fill="#E3DBCA"/>
<path d="M27.215 63.105V71.541L19.594 67.115V67.111L26.951 71.383V62.953L27.215 63.105Z" fill="#27AAE1"/>
<path d="M27.209 62.865V71.305L19.591 66.875V58.457L27.209 62.865Z" fill="#B5D4DE"/>
<path d="M26.978 62.928V62.936L19.622 58.68V66.557L19.163 66.828V58.408L26.978 62.928Z" fill="#6D6E71"/>
<path d="M27.209 70.85V71.414L19.231 66.77L19.622 66.545L27.209 70.85Z" fill="#6D6E71"/>
<path d="M26.951 62.926V62.932L19.594 58.674V66.6L19.138 66.826V58.406L26.951 62.926Z" fill="#A7A9AC"/>
<path d="M27.215 70.9V71.465L19.204 66.785L19.594 66.559L27.215 70.9Z" fill="#D1D3D4"/>
<path d="M23.272 60.744V68.672L22.815 68.896V60.477L23.272 60.744Z" fill="#A7A9AC"/>
<path d="M22.511 60.092V68.717L22.815 68.896V60.477L22.511 60.092Z" fill="#BCBEC0"/>
<path d="M18.873 57.986V66.974L27.215 71.82V62.816L18.873 57.986ZM26.887 71.275L19.204 66.785V58.533L26.887 62.98V71.275Z" fill="#E3DBCA"/>
<path d="M14.204 27.658V36.211L11.355 34.502V25.965L14.204 27.658Z" fill="#B5D4DE"/>
<path d="M11.387 26.189V34.176L10.922 34.453V25.916L11.387 26.189Z" fill="#6D6E71"/>
<path d="M14.204 35.811V36.297L10.99 34.395L11.387 34.164L14.204 35.811Z" fill="#6D6E71"/>
<path d="M11.358 26.186V34.221L10.895 34.447V25.912L11.358 26.186Z" fill="#A7A9AC"/>
<path d="M14.204 35.83V36.34L10.962 34.41L11.358 34.184L14.204 35.83Z" fill="#D1D3D4"/>
<path d="M10.628 25.539V34.602L14.62 36.907V27.862L10.628 25.539ZM14.204 36.297L10.962 34.41V26.043L14.204 27.922V36.297Z" fill="#E3DBCA"/>
<path d="M14.218 41.463V50.016L11.367 48.305V39.768L14.218 41.463Z" fill="#B5D4DE"/>
<path d="M11.4 39.992V47.982L10.935 48.256V39.721L11.4 39.992Z" fill="#6D6E71"/>
<path d="M14.218 49.615V50.1L11.002 48.197L11.4 47.969L14.218 49.615Z" fill="#6D6E71"/>
<path d="M11.373 39.988V48.023L10.91 48.254V39.717L11.373 39.988Z" fill="#A7A9AC"/>
<path d="M14.218 49.637V50.143L10.977 48.213L11.373 47.986L14.218 49.637Z" fill="#D1D3D4"/>
<path d="M10.64 39.344L10.644 48.407L14.633 50.71V41.665L10.64 39.344ZM14.218 50.1L10.977 48.213V39.848L14.218 41.723V50.1Z" fill="#E3DBCA"/>
<path d="M14.218 55.256V63.811L11.367 62.1V53.561L14.218 55.256Z" fill="#B5D4DE"/>
<path d="M11.4 53.787V61.773L10.935 62.051V53.514L11.4 53.787Z" fill="#6D6E71"/>
<path d="M14.218 63.408V63.895L11.002 61.992L11.4 61.764L14.218 63.408Z" fill="#6D6E71"/>
<path d="M11.373 53.781V61.818L10.91 62.049V53.51L11.373 53.781Z" fill="#A7A9AC"/>
<path d="M14.218 63.43V63.936L10.977 62.008L11.373 61.779L14.218 63.43Z" fill="#D1D3D4"/>
<path d="M10.64 53.137L10.644 62.2L14.633 64.503V55.46L10.64 53.137ZM14.218 63.895L10.977 62.008V53.641L14.218 55.518V63.895Z" fill="#E3DBCA"/>
<path d="M6.04901 61.82L9.61801 59.752V63.057L6.04901 65.127V61.82Z" fill="#939598"/>
<path d="M9.61801 59.752L8.73599 59.238L5.96301 60.859L6.04901 61.82L9.61801 59.752Z" fill="#A7A9AC"/>
<path d="M14.168 65.598L16.958 63.986L16.965 68.744L14.168 70.377V65.598Z" fill="#939598"/>
<path d="M14.168 65.598L5.96301 60.859V65.641L14.168 70.377V65.598Z" fill="#C0C7CE"/>
<path d="M5.96301 60.859L6.73099 60.404L14.934 65.146L14.168 65.598L5.96301 60.859Z" fill="#A7A9AC"/>
<path d="M16.958 63.984L16.076 63.473L13.28 65.086L14.168 65.598L16.958 63.984Z" fill="#A7A9AC"/>
<path d="M6.06 48.027L9.63 45.955V49.26L6.06 51.332V48.027Z" fill="#939598"/>
<path d="M9.63 45.955L8.74799 45.443L5.97299 47.063L6.06 48.027L9.63 45.955Z" fill="#A7A9AC"/>
<path d="M14.178 51.803L16.969 50.191L16.977 54.965L14.178 56.58V51.803Z" fill="#939598"/>
<path d="M14.178 51.803L5.97299 47.063V51.844L14.178 56.58V51.803Z" fill="#C0C7CE"/>
<path d="M5.97299 47.063L6.73999 46.607L14.944 51.352L14.178 51.803L5.97299 47.063Z" fill="#A7A9AC"/>
<path d="M16.969 50.191L16.088 49.68L13.291 51.291L14.178 51.803L16.969 50.191Z" fill="#A7A9AC"/>
<path d="M6.06 34.23L9.63 32.158V35.463L6.06 37.537V34.23Z" fill="#939598"/>
<path d="M9.63 32.158L8.74799 31.646L5.97299 33.266L6.06 34.23L9.63 32.158Z" fill="#A7A9AC"/>
<path d="M14.178 38.004L16.969 36.395L16.977 41.168L14.178 42.785V38.004Z" fill="#939598"/>
<path d="M14.178 38.004L5.97299 33.266V38.047L14.178 42.785V38.004Z" fill="#C0C7CE"/>
<path d="M5.97299 33.266L6.73999 32.814L14.944 37.553L14.178 38.004L5.97299 33.266Z" fill="#A7A9AC"/>
<path d="M16.969 36.395L16.088 35.885L13.291 37.494L14.178 38.004L16.969 36.395Z" fill="#A7A9AC"/>
<path d="M41.783 37.793V46.232L49.406 41.805V41.803L42.048 46.07V37.643L41.783 37.793Z" fill="#27AAE1"/>
<path d="M41.795 37.555V45.994L49.411 41.566V33.146L41.795 37.555Z" fill="#B5D4DE"/>
<path d="M42.02 37.617V37.625L49.377 33.371V41.246L49.835 41.518V33.1L42.02 37.617Z" fill="#6D6E71"/>
<path d="M41.795 45.539V46.102L49.769 41.461L49.377 41.232L41.795 45.539Z" fill="#6D6E71"/>
<path d="M42.048 37.617V37.621L49.406 33.363V41.289L49.862 41.516V33.092L42.048 37.617Z" fill="#A7A9AC"/>
<path d="M41.783 45.592V46.154L49.797 41.477L49.406 41.248L41.783 45.592Z" fill="#D1D3D4"/>
<path d="M45.726 35.438V43.361L46.185 43.586V35.166L45.726 35.438Z" fill="#A7A9AC"/>
<path d="M46.49 34.781V43.406L46.185 43.586V35.166L46.49 34.781Z" fill="#BCBEC0"/>
<path d="M41.783 37.504V46.51L50.126 41.664V32.678L41.783 37.504ZM42.114 37.668L49.797 33.221V41.477L42.114 45.963V37.668Z" fill="#E3DBCA"/>
<path d="M41.783 51.59V60.025L49.406 55.6V55.596L42.048 59.867V51.434L41.783 51.59Z" fill="#27AAE1"/>
<path d="M41.795 51.352V59.789L49.411 55.359V46.939L41.795 51.352Z" fill="#B5D4DE"/>
<path d="M42.02 51.412V51.418L49.377 47.166V55.041L49.835 55.313V46.893L42.02 51.412Z" fill="#6D6E71"/>
<path d="M41.795 59.332V59.898L49.769 55.254L49.377 55.027L41.795 59.332Z" fill="#6D6E71"/>
<path d="M42.048 51.412V51.414L49.406 47.156V55.082L49.862 55.311V46.887L42.048 51.412Z" fill="#A7A9AC"/>
<path d="M41.783 59.385V59.949L49.797 55.268L49.406 55.043L41.783 59.385Z" fill="#D1D3D4"/>
<path d="M45.726 49.23V57.154L46.185 57.383V48.961L45.726 49.23Z" fill="#A7A9AC"/>
<path d="M46.49 48.574V57.203L46.185 57.383V48.961L46.49 48.574Z" fill="#BCBEC0"/>
<path d="M41.783 51.299V60.303L50.126 55.457V46.473L41.783 51.299ZM42.114 51.463L49.797 47.018V55.268L42.114 59.758V51.463Z" fill="#E3DBCA"/>
<path d="M41.785 65.367V73.805L49.407 69.379V69.375L42.049 73.645V65.215L41.785 65.367Z" fill="#27AAE1"/>
<path d="M41.795 65.129V73.566L49.411 69.139V60.721L41.795 65.129Z" fill="#B5D4DE"/>
<path d="M42.02 65.191V65.197L49.38 60.941V68.82L49.839 69.09V60.67L42.02 65.191Z" fill="#6D6E71"/>
<path d="M41.795 73.111V73.676L49.77 69.035L49.38 68.807L41.795 73.111Z" fill="#6D6E71"/>
<path d="M42.049 65.189V65.193L49.407 60.936V68.861L49.863 69.088V60.668L42.049 65.189Z" fill="#A7A9AC"/>
<path d="M41.783 73.166V73.73L49.798 69.049L49.407 68.824L41.783 73.166Z" fill="#D1D3D4"/>
<path d="M45.729 63.01V70.936L46.185 71.16V62.74L45.729 63.01Z" fill="#A7A9AC"/>
<path d="M46.492 62.354V70.979L46.185 71.16V62.74L46.492 62.354Z" fill="#BCBEC0"/>
<path d="M41.785 65.076V74.08L50.129 69.238V60.25L41.785 65.076ZM42.114 65.242L49.798 60.797V69.049L42.114 73.537V65.242Z" fill="#E3DBCA"/>
</svg>
