<svg width="74" height="103" viewBox="0 0 74 103" fill="none" xmlns="http://www.w3.org/2000/svg">
<path d="M23.474 45.569L23.355 99.436L10.743 92.152L10.862 38.289L23.474 45.569Z" fill="#939598"/>
<path d="M23.474 45.569L32.135 40.536L32.016 94.402L23.355 99.436L23.474 45.569Z" fill="#939598"/>
<path d="M46.509 48.763V102.742L73.971 86.898L73.954 32.963L46.509 48.763Z" fill="#939598"/>
<path d="M46.509 48.763L3.20801 23.783V77.742L46.509 102.742V48.763Z" fill="#939598"/>
<path d="M46.509 45.075V99.055L73.971 83.211L73.954 29.275L46.509 45.075Z" fill="#C0C7CE"/>
<path d="M46.509 45.075L3.20801 20.096V74.055L46.509 99.055V45.075Z" fill="#D7E4E8"/>
<path d="M23.474 41.882L32.135 36.851L32.016 90.715L23.355 95.749L23.474 41.882Z" fill="#C0C7CE"/>
<path d="M46.512 47.789L46.518 57.311L48.759 58.982V49.086L46.512 47.789Z" fill="#A16845"/>
<path d="M70.331 34.034L70.324 43.938L72.585 45.236V35.336L70.331 34.034Z" fill="#D4CAB8"/>
<path d="M72.585 35.34L48.759 49.086V58.982L72.585 45.239V35.34Z" fill="#5B95AB"/>
<path d="M61.401 43.205L67.155 39.879V46.679L61.407 49.993L61.401 43.205Z" fill="#B5D4DE"/>
<path d="M67.339 39.809L67.333 46.818L67.339 46.824L67.333 46.828V46.831L67.331 46.829L61.236 50.336V49.846L61.407 49.746L66.975 46.533V39.766L67.339 39.564V39.809Z" fill="#6D6E71"/>
<path d="M67.506 46.975L61.237 50.589L61.236 43.063L61.398 42.967L61.407 49.746V49.993L67.155 46.679V39.636L67.306 39.548L67.517 39.669L67.506 46.975Z" fill="#58595B"/>
<path d="M67.517 39.669L67.155 39.879L61.401 43.205L61.236 43.063H61.234L61.236 43.061L67.155 39.636L67.306 39.548L67.517 39.669Z" fill="#58595B"/>
<path d="M65.607 40.775L61.405 47.875L61.401 43.205L65.607 40.775Z" fill="#3D3D3D"/>
<path d="M66.975 42.437V46.533L62.96 48.853L66.975 42.437Z" fill="#3D3D3D"/>
<path d="M55.337 46.712L61.09 43.385V50.185L55.341 53.502L55.337 46.712Z" fill="#B5D4DE"/>
<path d="M61.276 43.315L61.269 50.326L61.276 50.33L61.269 50.335V50.336L61.267 50.335L55.171 53.844V53.352L55.341 53.252L60.912 50.041V43.271L61.276 43.07V43.315Z" fill="#6D6E71"/>
<path d="M61.444 50.481L55.173 54.098L55.171 46.569L55.334 46.473L55.341 53.252V53.502L61.09 50.185V43.143L61.243 43.055L61.454 43.177L61.444 50.481Z" fill="#58595B"/>
<path d="M61.454 43.177L61.09 43.385L55.337 46.712L55.171 46.569H55.169L55.171 46.568L61.09 43.143L61.243 43.055L61.454 43.177Z" fill="#58595B"/>
<path d="M59.544 44.281L55.341 51.382L55.337 46.712L59.544 44.281Z" fill="#3D3D3D"/>
<path d="M60.912 45.943V50.041L56.895 52.359L60.912 45.943Z" fill="#3D3D3D"/>
<path d="M48.759 49.086L46.512 47.789L70.331 34.034L72.585 35.34L48.759 49.086Z" fill="#88C2DB"/>
<path d="M48.759 49.086V58.982L46.509 60.273V50.375L48.759 49.086Z" fill="#5B95AB"/>
<path d="M32.122 42.068L46.509 50.375V60.273L32.099 51.952L32.122 42.068Z" fill="#66A6C0"/>
<path d="M34.364 40.775L32.122 42.068L46.509 50.373L48.759 49.086L34.364 40.775Z" fill="#88C2DB"/>
<path d="M46.512 64.875L46.518 74.4L48.759 76.072V66.176L46.512 64.875Z" fill="#A16845"/>
<path d="M70.331 51.124L70.324 61.025L72.585 62.324V52.425L70.331 51.124Z" fill="#D4CAB8"/>
<path d="M72.585 52.428L48.759 66.176V76.072L72.585 62.326V52.428Z" fill="#5B95AB"/>
<path d="M61.401 60.295L67.155 56.968V63.766L61.407 67.083L61.401 60.295Z" fill="#B5D4DE"/>
<path d="M67.339 56.896L67.333 63.906L67.339 63.91L67.333 63.916V63.919L67.331 63.916L61.236 67.425V66.934L61.407 66.833L66.975 63.621V56.854L67.339 56.651V56.896Z" fill="#6D6E71"/>
<path d="M67.506 64.063L61.237 67.68L61.236 60.152L61.398 60.055L61.407 66.833V67.083L67.155 63.766V56.723L67.306 56.637L67.517 56.758L67.506 64.063Z" fill="#58595B"/>
<path d="M67.517 56.758L67.155 56.968L61.401 60.295L61.236 60.152L61.234 60.149L61.236 60.148L67.155 56.723L67.306 56.637L67.517 56.758Z" fill="#58595B"/>
<path d="M65.607 57.861L61.405 64.963L61.401 60.295L65.607 57.861Z" fill="#3D3D3D"/>
<path d="M66.975 59.523V63.621L62.96 65.94L66.975 59.523Z" fill="#3D3D3D"/>
<path d="M55.337 63.801L61.09 60.473V67.275L55.341 70.588L55.337 63.801Z" fill="#B5D4DE"/>
<path d="M61.276 60.402L61.269 67.414L61.276 67.418L61.269 67.422V67.425H61.267L55.171 70.932V70.438L55.341 70.341L60.912 67.127V60.359L61.276 60.157V60.402Z" fill="#6D6E71"/>
<path d="M61.444 67.568L55.173 71.186L55.171 63.659L55.334 63.561L55.341 70.341V70.588L61.09 67.275V60.229L61.243 60.142L61.454 60.263L61.444 67.568Z" fill="#58595B"/>
<path d="M61.454 60.263L61.09 60.473L55.337 63.801L55.171 63.659L55.169 63.656H55.171L61.09 60.229L61.243 60.142L61.454 60.263Z" fill="#58595B"/>
<path d="M59.544 61.369L55.341 68.469L55.337 63.801L59.544 61.369Z" fill="#3D3D3D"/>
<path d="M60.912 63.032V67.127L56.895 69.447L60.912 63.032Z" fill="#3D3D3D"/>
<path d="M48.759 66.176L46.512 64.875L70.331 51.124L72.585 52.428L48.759 66.176Z" fill="#88C2DB"/>
<path d="M48.759 66.176V76.072L46.509 77.363V67.463L48.759 66.176Z" fill="#5B95AB"/>
<path d="M32.122 59.156L46.509 67.463V77.363L32.099 69.041L32.122 59.156Z" fill="#66A6C0"/>
<path d="M34.374 57.869L32.122 59.156L46.509 67.461L48.759 66.176L34.374 57.869Z" fill="#88C2DB"/>
<path d="M46.512 82.013L46.518 91.535L48.759 93.205V83.309L46.512 82.013Z" fill="#A16845"/>
<path d="M70.331 68.26L70.324 78.16L72.585 79.46V69.559L70.331 68.26Z" fill="#D4CAB8"/>
<path d="M72.585 69.564L48.759 83.309V93.205L72.585 79.463V69.564Z" fill="#5B95AB"/>
<path d="M61.401 77.43L67.155 74.102V80.902L61.407 84.219L61.401 77.43Z" fill="#B5D4DE"/>
<path d="M67.339 74.034L67.333 81.041L67.339 81.047L67.333 81.051V81.053H67.331L61.236 84.561V84.069L61.407 83.969L66.975 80.757V73.99L67.339 73.789V74.034Z" fill="#6D6E71"/>
<path d="M67.506 81.199L61.237 84.813L61.236 77.287L61.398 77.192L61.407 83.969V84.219L67.155 80.902V73.859L67.306 73.771L67.517 73.893L67.506 81.199Z" fill="#58595B"/>
<path d="M67.517 73.893L67.155 74.102L61.401 77.43L61.236 77.287H61.234L61.236 77.285L67.155 73.859L67.306 73.771L67.517 73.893Z" fill="#58595B"/>
<path d="M65.607 74.998L61.405 82.1L61.401 77.43L65.607 74.998Z" fill="#3D3D3D"/>
<path d="M66.975 76.66V80.757L62.96 83.076L66.975 76.66Z" fill="#3D3D3D"/>
<path d="M55.337 80.938L61.09 77.609V84.408L55.341 87.725L55.337 80.938Z" fill="#B5D4DE"/>
<path d="M61.276 77.539L61.269 84.551L61.276 84.554L61.269 84.559V84.56L61.267 84.559L55.171 88.066V87.575L55.341 87.475L60.912 84.264V77.496L61.276 77.295V77.539Z" fill="#6D6E71"/>
<path d="M61.444 84.705L55.173 88.322L55.171 80.793L55.334 80.697L55.341 87.475V87.725L61.09 84.408V77.365L61.243 77.278L61.454 77.4L61.444 84.705Z" fill="#58595B"/>
<path d="M61.454 77.4L61.09 77.609L55.337 80.938L55.171 80.793H55.169L55.171 80.791L61.09 77.365L61.243 77.278L61.454 77.4Z" fill="#58595B"/>
<path d="M59.544 78.506L55.341 85.604L55.337 80.938L59.544 78.506Z" fill="#3D3D3D"/>
<path d="M60.912 80.168V84.264L56.895 86.584L60.912 80.168Z" fill="#3D3D3D"/>
<path d="M48.759 83.309L46.512 82.013L70.331 68.26L72.585 69.564L48.759 83.309Z" fill="#88C2DB"/>
<path d="M48.759 83.309V93.205L46.509 94.498V84.598L48.759 83.309Z" fill="#5B95AB"/>
<path d="M32.122 76.293L46.509 84.598V94.498L32.099 86.176L32.122 76.293Z" fill="#66A6C0"/>
<path d="M34.345 74.987L32.122 76.293L46.509 84.598L48.759 83.309L34.345 74.987Z" fill="#88C2DB"/>
<path d="M42.046 83.493L36.294 80.166V86.967L42.041 90.28L42.046 83.493Z" fill="#B5D4DE"/>
<path d="M36.108 80.094L36.114 87.106L36.108 87.111L36.114 87.115V87.117L36.117 87.115L42.212 90.625V90.131L42.041 90.033L36.473 86.821V80.053L36.108 79.852V80.094Z" fill="#6D6E71"/>
<path d="M35.939 87.262L42.21 90.877L42.212 83.352L42.049 83.254L42.041 90.033V90.28L36.294 86.967V79.924L36.142 79.836L35.931 79.957L35.939 87.262Z" fill="#58595B"/>
<path d="M35.931 79.957L36.294 80.166L42.046 83.493L42.212 83.352L42.214 83.35L42.212 83.349L36.294 79.924L36.142 79.836L35.931 79.957Z" fill="#58595B"/>
<path d="M37.84 81.063L42.044 88.164L42.046 83.493L37.84 81.063Z" fill="#3D3D3D"/>
<path d="M36.473 82.725V86.821L40.489 89.14L36.473 82.725Z" fill="#3D3D3D"/>
<path d="M42.134 66.496L36.382 63.168V69.971L42.13 73.283L42.134 66.496Z" fill="#B5D4DE"/>
<path d="M36.197 63.098L36.203 70.109L36.197 70.113L36.203 70.117V70.12L36.205 70.117L42.3 73.627V73.133L42.13 73.037L36.56 69.824V63.055L36.197 62.854V63.098Z" fill="#6D6E71"/>
<path d="M36.027 70.264L42.298 73.881L42.3 66.354L42.138 66.257L42.13 73.037V73.283L36.382 69.971V62.926L36.23 62.838L36.019 62.96L36.027 70.264Z" fill="#58595B"/>
<path d="M36.019 62.96L36.382 63.168L42.134 66.496L42.3 66.354L42.302 66.352H42.3L36.382 62.926L36.23 62.838L36.019 62.96Z" fill="#58595B"/>
<path d="M37.927 64.066L42.13 71.167L42.134 66.496L37.927 64.066Z" fill="#3D3D3D"/>
<path d="M36.56 65.729V69.824L40.576 72.143L36.56 65.729Z" fill="#3D3D3D"/>
<path d="M42.132 49.422L36.38 46.097V52.896L42.129 56.211L42.132 49.422Z" fill="#B5D4DE"/>
<path d="M36.195 46.026L36.201 53.038L36.195 53.041L36.201 53.046H36.203L42.298 56.555V56.062L42.129 55.963L36.56 52.752V45.983L36.195 45.781V46.026Z" fill="#6D6E71"/>
<path d="M36.026 53.192L42.296 56.811L42.298 49.281L42.136 49.186L42.129 55.963V56.211L36.38 52.896V45.854L36.228 45.767L36.018 45.888L36.026 53.192Z" fill="#58595B"/>
<path d="M36.018 45.888L36.38 46.097L42.132 49.422L42.298 49.281H42.301L42.298 49.278L36.38 45.854L36.228 45.767L36.018 45.888Z" fill="#58595B"/>
<path d="M37.926 46.991L42.13 54.093L42.132 49.422L37.926 46.991Z" fill="#3D3D3D"/>
<path d="M36.56 48.654V52.752L40.575 55.071L36.56 48.654Z" fill="#3D3D3D"/>
<path d="M17.279 30.909V40.804L15.029 42.095V32.196L17.279 30.909Z" fill="#A16845"/>
<path d="M0.990002 24.087L15.029 32.196V42.095L0.987 33.984L0.990002 24.087Z" fill="#66A6C0"/>
<path d="M3.20799 22.785L0.98999 24.087L15.029 32.194L17.279 30.909L3.20799 22.785Z" fill="#88C2DB"/>
<path d="M17.279 47.974V57.869L15.029 59.161V49.261L17.279 47.974Z" fill="#A16845"/>
<path d="M0.987 41.181L15.029 49.261V59.161L0.993999 51.056L0.987 41.181Z" fill="#66A6C0"/>
<path d="M3.208 39.908L0.987 41.181L15.014 49.303L17.279 47.974L3.208 39.908Z" fill="#88C2DB"/>
<path d="M17.279 65.131V75.027L15.029 76.318V66.419L17.279 65.131Z" fill="#A16845"/>
<path d="M0.987 58.283L15.029 66.419V76.318L0.987 68.207V58.283Z" fill="#66A6C0"/>
<path d="M3.208 57.007L0.987 58.283L15.051 66.402L17.279 65.131L3.208 57.007Z" fill="#88C2DB"/>
<path d="M10.991 65.505L5.23798 62.178V68.979L10.986 72.293L10.991 65.505Z" fill="#B5D4DE"/>
<path d="M5.052 62.107L5.059 69.118L5.052 69.123L5.059 69.127V69.129H5.06001L11.156 72.637V72.143L10.986 72.045L5.417 68.833V62.064L5.052 61.861V62.107Z" fill="#6D6E71"/>
<path d="M4.88399 69.273L11.155 72.891L11.156 65.361L10.994 65.266L10.986 72.045V72.293L5.23799 68.979V61.934L5.08499 61.846L4.87399 61.969L4.88399 69.273Z" fill="#58595B"/>
<path d="M4.87399 61.969L5.23799 62.178L10.991 65.505L11.156 65.361H11.158L11.156 65.359L5.23799 61.934L5.08499 61.846L4.87399 61.969Z" fill="#58595B"/>
<path d="M6.784 63.074L10.986 70.176L10.991 65.505L6.784 63.074Z" fill="#3D3D3D"/>
<path d="M5.41699 64.736V68.833L9.43299 71.152L5.41699 64.736Z" fill="#3D3D3D"/>
<path d="M11.078 48.507L5.32501 45.18V51.982L11.074 55.297L11.078 48.507Z" fill="#B5D4DE"/>
<path d="M5.13901 45.109L5.14601 52.121L5.13901 52.127L5.14601 52.13V52.131H5.14801L11.244 55.64V55.146L11.074 55.048L5.50401 51.835V45.067L5.13901 44.865V45.109Z" fill="#6D6E71"/>
<path d="M4.97001 52.276L11.242 55.893L11.244 48.365L11.082 48.269L11.074 55.048V55.297L5.325 51.982V44.938L5.173 44.85L4.96201 44.971L4.97001 52.276Z" fill="#58595B"/>
<path d="M4.96201 44.971L5.325 45.18L11.078 48.507L11.244 48.365L11.247 48.364L11.244 48.362L5.325 44.938L5.173 44.85L4.96201 44.971Z" fill="#58595B"/>
<path d="M6.87201 46.078L11.075 53.177L11.078 48.507L6.87201 46.078Z" fill="#3D3D3D"/>
<path d="M5.504 47.739V51.835L9.52 54.154L5.504 47.739Z" fill="#3D3D3D"/>
<path d="M11.077 31.436L5.32401 28.108V34.908L11.072 38.224L11.077 31.436Z" fill="#B5D4DE"/>
<path d="M5.138 28.038L5.145 35.048L5.138 35.053L5.145 35.058V35.06L5.147 35.058L11.243 38.566V38.075L11.072 37.975L5.502 34.763V27.995L5.138 27.794V28.038Z" fill="#6D6E71"/>
<path d="M4.97 35.204L11.24 38.822L11.243 31.293L11.082 31.197L11.072 37.975V38.224L5.324 34.908V27.865L5.172 27.777L4.961 27.898L4.97 35.204Z" fill="#58595B"/>
<path d="M4.961 27.898L5.324 28.108L11.077 31.436L11.243 31.293L11.245 31.291H11.243L5.324 27.865L5.172 27.777L4.961 27.898Z" fill="#58595B"/>
<path d="M6.871 29.003L11.074 36.104L11.077 31.436L6.871 29.003Z" fill="#3D3D3D"/>
<path d="M5.50201 30.667V34.763L9.52002 37.083L5.50201 30.667Z" fill="#3D3D3D"/>
<path d="M23.474 41.882L23.355 95.749L10.743 88.466L10.862 34.604L23.474 41.882Z" fill="#F1F2F2"/>
<path d="M20.859 44.095L13.62 39.91V48.467L20.852 52.639L20.859 44.095Z" fill="#B5D4DE"/>
<path d="M13.386 39.821L13.392 48.644L13.386 48.649L13.392 48.653V48.657H13.396L21.068 53.07V52.453L20.852 52.326L13.842 48.284V39.766L13.386 39.513V39.821Z" fill="#6D6E71"/>
<path d="M13.172 48.84L21.064 53.391L21.068 43.917L20.863 43.795L20.852 52.326V52.639L13.62 48.467V39.604L13.427 39.493L13.163 39.646L13.172 48.84Z" fill="#58595B"/>
<path d="M13.163 39.646L13.62 39.91L20.859 44.095L21.068 43.917L21.07 43.916L21.068 43.913L13.62 39.604L13.427 39.493L13.163 39.646Z" fill="#58595B"/>
<path d="M15.565 41.036L20.854 49.974L20.859 44.095L15.565 41.036Z" fill="#3D3D3D"/>
<path d="M13.842 43.129V48.284L18.898 51.204L13.842 43.129Z" fill="#3D3D3D"/>
<path d="M20.857 61.21L13.617 57.025V65.583L20.852 69.755L20.857 61.21Z" fill="#B5D4DE"/>
<path d="M13.384 56.934L13.392 65.76L13.384 65.764L13.392 65.77V65.772L13.395 65.771L21.067 70.186V69.566L20.852 69.441L13.841 65.396V56.88L13.384 56.627V56.934Z" fill="#6D6E71"/>
<path d="M13.171 65.953L21.064 70.504L21.067 61.032L20.862 60.91L20.852 69.441V69.755L13.617 65.583V56.716L13.426 56.607L13.162 56.76L13.171 65.953Z" fill="#58595B"/>
<path d="M13.162 56.76L13.617 57.025L20.857 61.21L21.067 61.032L21.069 61.029L21.067 61.027L13.617 56.716L13.426 56.607L13.162 56.76Z" fill="#58595B"/>
<path d="M15.565 58.148L20.853 67.088L20.857 61.21L15.565 58.148Z" fill="#3D3D3D"/>
<path d="M13.841 60.242V65.396L18.896 68.318L13.841 60.242Z" fill="#3D3D3D"/>
<path d="M20.843 78.684L13.603 74.496V83.057L20.837 87.229L20.843 78.684Z" fill="#B5D4DE"/>
<path d="M13.371 74.41L13.376 83.232L13.371 83.234L13.376 83.242V83.246L13.379 83.242L21.052 87.658V87.038L20.837 86.916L13.828 82.871V74.354L13.371 74.102V74.41Z" fill="#6D6E71"/>
<path d="M13.159 83.428L21.049 87.979L21.052 78.505L20.848 78.383L20.837 86.916V87.229L13.603 83.057V74.191L13.412 74.08L13.147 74.232L13.159 83.428Z" fill="#58595B"/>
<path d="M13.147 74.232L13.603 74.496L20.843 78.684L21.052 78.505H21.053L21.052 78.502L13.603 74.191L13.412 74.08L13.147 74.232Z" fill="#58595B"/>
<path d="M15.55 75.625L20.838 84.561L20.843 78.684L15.55 75.625Z" fill="#3D3D3D"/>
<path d="M13.828 77.716V82.871L18.881 85.792L13.828 77.716Z" fill="#3D3D3D"/>
<path d="M3.20801 20.096V16.569L30.618 4.27301L73.954 25.75V29.275L46.473 45.096L32.185 36.841L23.474 41.882L10.862 34.604V31.076L19.579 29.556L3.20801 20.096Z" fill="#939598"/>
<path d="M3.20801 16.569L30.618 0.747009L73.954 25.75L46.473 41.569L32.185 33.314L23.474 38.356L10.862 31.076L19.579 26.029L3.20801 16.569Z" fill="#C0C7CE"/>
</svg>
