<svg width="47" height="83" viewBox="0 0 47 83" fill="none" xmlns="http://www.w3.org/2000/svg">
<path d="M5.06299 60.435L5.14799 60.384V48.827L5.06699 48.876L5.06299 60.435Z" fill="#1D2021"/>
<path d="M0.898987 64.94L27.184 80.12L27.21 29.508L0.898987 14.315V64.94Z" fill="#F6CA88"/>
<path d="M27.184 80.12L46.002 69.28V18.643L27.21 29.498L27.184 80.12Z" fill="#E3A546"/>
<path d="M0.898987 67.728L27.184 82.901L27.21 80.097L0.898987 64.903V67.728Z" fill="#A7A9AC"/>
<path d="M27.184 82.901L46.002 72.064V69.237L27.21 80.097L27.184 82.901Z" fill="#939598"/>
<path d="M0.898987 14.305L27.21 29.498L46.002 18.643L19.718 3.46301L0.898987 14.305Z" fill="#C0C7CE"/>
<path d="M0.882996 13.32L27.11 28.471L45.998 17.572L46.002 15.947L19.62 2.43399L0.898994 11.611L0.882996 13.32Z" fill="#939598"/>
<path d="M0.898987 11.611L27.21 26.805L46.002 15.947L19.718 0.768005L0.898987 11.611Z" fill="#E4DBCC"/>
<path d="M27.207 49.446L27.2 50.612L46.067 39.69V38.568L27.207 49.446Z" fill="#939598"/>
<path d="M0.890991 34.242V33.906L27.207 49.165L45.784 38.408L46.067 38.568L27.207 49.454L27.2 50.612L0.890991 34.242Z" fill="#6D6E71"/>
<path d="M27.211 49.452L27.204 50.61L0.882996 35.41L0.890995 34.242L27.211 49.452Z" fill="#A7A9AC"/>
<path d="M27.215 64.091L27.21 65.255L46.075 54.337V53.216L27.215 64.091Z" fill="#939598"/>
<path d="M0.901001 48.89V48.554L27.213 63.814L45.791 53.056L46.075 53.216L27.215 64.101L27.21 65.255L0.901001 48.89Z" fill="#6D6E71"/>
<path d="M27.221 64.097L27.211 65.255L0.890991 50.061L0.900993 48.89L27.221 64.097Z" fill="#A7A9AC"/>
<path d="M27.207 34.16L27.2 35.322L46.067 24.402V23.281L27.207 34.16Z" fill="#939598"/>
<path d="M0.890991 18.955V18.619L27.207 33.879L45.784 23.121L46.067 23.281L27.207 34.168L27.2 35.322L0.890991 18.955Z" fill="#6D6E71"/>
<path d="M27.211 34.166L27.204 35.322L0.882996 20.125L0.890995 18.955L27.211 34.166Z" fill="#A7A9AC"/>
<path d="M31.022 35.998V43.302L41.487 37.227V29.945L31.022 35.998Z" fill="#8DBBD3"/>
<path d="M41.44 30.25V37.092L42.069 37.467V29.881L41.44 30.25Z" fill="#6D6E71"/>
<path d="M31.165 42.915V43.686L41.979 37.387L41.44 37.076L31.165 42.915Z" fill="#6D6E71"/>
<path d="M31.377 36.08V36.094L41.477 30.246V37.15L42.106 37.461V29.877L31.377 36.08Z" fill="#A7A9AC"/>
<path d="M31.01 43.061V43.831L42.016 37.408L41.477 37.096L31.01 43.061Z" fill="#D1D3D4"/>
<path d="M36.426 33.092V39.994L37.057 40.305V32.719L36.426 33.092Z" fill="#A7A9AC"/>
<path d="M37.475 32.19V40.059L37.057 40.305V32.719L37.475 32.19Z" fill="#BCBEC0"/>
<path d="M31.012 35.928V44.322L42.467 37.669V29.304L31.012 35.928ZM31.463 36.156L42.016 30.051V37.408L31.463 43.569V36.156Z" fill="#E3DBCA"/>
<path d="M31.067 51.448V58.751L41.53 52.675V45.396L31.067 51.448Z" fill="#8DBBD3"/>
<path d="M41.483 45.7V52.538L42.112 52.913V45.327L41.483 45.7Z" fill="#6D6E71"/>
<path d="M31.21 58.358V59.136L42.022 52.835L41.483 52.524L31.21 58.358Z" fill="#6D6E71"/>
<path d="M31.42 51.53V51.538L41.518 45.694V52.601L42.149 52.911V45.325L31.42 51.53Z" fill="#A7A9AC"/>
<path d="M31.053 58.507V59.28L42.059 52.854L41.518 52.546L31.053 58.507Z" fill="#D1D3D4"/>
<path d="M36.469 48.54V55.444L37.1 55.753V48.169L36.469 48.54Z" fill="#A7A9AC"/>
<path d="M37.518 47.638V55.507L37.1 55.753V48.169L37.518 47.638Z" fill="#BCBEC0"/>
<path d="M31.055 51.378V59.769L42.508 53.117V44.754L31.055 51.378ZM31.508 51.603L42.059 45.499V52.854L31.508 59.016V51.603Z" fill="#E3DBCA"/>
<path d="M31.067 66.14V73.442L41.532 67.366V60.085L31.067 66.14Z" fill="#8DBBD3"/>
<path d="M41.485 60.39V67.229L42.114 67.606V60.017L41.485 60.39Z" fill="#6D6E71"/>
<path d="M31.21 73.052V73.827L42.024 67.524L41.485 67.216L31.21 73.052Z" fill="#6D6E71"/>
<path d="M31.422 66.222V66.229L41.526 60.384V67.29L42.151 67.599V60.013L31.422 66.222Z" fill="#A7A9AC"/>
<path d="M31.059 73.198V73.97L42.061 67.548L41.526 67.235L31.059 73.198Z" fill="#D1D3D4"/>
<path d="M36.471 63.229V70.132L37.102 70.446V62.856L36.471 63.229Z" fill="#A7A9AC"/>
<path d="M37.522 62.329V70.196L37.102 70.446V62.856L37.522 62.329Z" fill="#BCBEC0"/>
<path d="M31.061 66.065V74.46L42.51 67.806V59.441L31.061 66.065ZM31.508 66.294L42.061 60.189V67.548L31.508 73.706V66.294Z" fill="#E3DBCA"/>
<path d="M26.219 37.617V44.921L15.754 38.844V31.563L26.219 37.617Z" fill="#8DBBD3"/>
<path d="M15.801 31.867V38.709L15.172 39.082V31.496L15.801 31.867Z" fill="#6D6E71"/>
<path d="M26.077 44.528V45.306L15.262 39.004L15.801 38.693L26.077 44.528Z" fill="#6D6E71"/>
<path d="M25.864 37.699V37.707L15.762 31.863V38.77L15.135 39.078V31.494L25.864 37.699Z" fill="#A7A9AC"/>
<path d="M26.231 44.677V45.45L15.225 39.023L15.762 38.713L26.231 44.677Z" fill="#D1D3D4"/>
<path d="M20.815 34.709V41.613L20.185 41.924V34.338L20.815 34.709Z" fill="#A7A9AC"/>
<path d="M19.766 33.809V41.676L20.185 41.924V34.338L19.766 33.809Z" fill="#BCBEC0"/>
<path d="M14.774 30.92V39.285L26.229 45.938V37.546L14.774 30.92ZM25.776 45.186L15.225 39.023V31.668L25.776 37.772V45.186Z" fill="#E3DBCA"/>
<path d="M13.303 30.148V37.453L2.83801 31.375V24.094L13.303 30.148Z" fill="#8DBBD3"/>
<path d="M2.88502 24.398V31.24L2.25702 31.613V24.029L2.88502 24.398Z" fill="#6D6E71"/>
<path d="M13.161 37.06V37.836L2.34601 31.533L2.88501 31.225L13.161 37.06Z" fill="#6D6E71"/>
<path d="M12.95 30.23V30.24L2.84602 24.395V31.299L2.21902 31.609V24.023L12.95 30.23Z" fill="#A7A9AC"/>
<path d="M13.313 37.209V37.978L2.311 31.557L2.846 31.246L13.313 37.209Z" fill="#D1D3D4"/>
<path d="M7.89802 27.238V34.145L7.27002 34.455V26.867L7.89802 27.238Z" fill="#A7A9AC"/>
<path d="M6.849 26.338V34.209L7.27 34.455V26.867L6.849 26.338Z" fill="#BCBEC0"/>
<path d="M1.86002 23.451V31.814L13.311 38.466V30.075L1.86002 23.451ZM12.86 37.717L2.31102 31.557V24.2L12.86 30.304V37.717Z" fill="#E3DBCA"/>
<path d="M26.291 53.101V60.405L15.827 54.329V47.048L26.291 53.101Z" fill="#8DBBD3"/>
<path d="M15.872 47.354V54.196L15.243 54.567V46.981L15.872 47.354Z" fill="#6D6E71"/>
<path d="M26.147 60.017V60.788L15.334 54.487L15.872 54.181L26.147 60.017Z" fill="#6D6E71"/>
<path d="M25.934 53.185V53.196L15.834 47.347V54.253L15.208 54.564V46.979L25.934 53.185Z" fill="#A7A9AC"/>
<path d="M26.301 60.163V60.933L15.297 54.511L15.834 54.198L26.301 60.163Z" fill="#D1D3D4"/>
<path d="M20.887 50.194V57.099L20.256 57.411V49.821L20.887 50.194Z" fill="#A7A9AC"/>
<path d="M19.836 49.294V57.161L20.256 57.411V49.821L19.836 49.294Z" fill="#BCBEC0"/>
<path d="M14.846 46.405V54.77L26.299 61.422V53.029L14.846 46.405ZM25.846 60.671L15.297 54.511V47.156L25.846 53.259V60.671Z" fill="#E3DBCA"/>
<path d="M13.226 45.593V52.897L2.76001 46.821V39.541L13.226 45.593Z" fill="#8DBBD3"/>
<path d="M2.80801 39.842V46.685L2.17801 47.06V39.475L2.80801 39.842Z" fill="#6D6E71"/>
<path d="M13.083 52.507V53.28L2.26801 46.979L2.808 46.669L13.083 52.507Z" fill="#6D6E71"/>
<path d="M12.87 45.677V45.685L2.77002 39.84V46.747L2.14102 47.056V39.471L12.87 45.677Z" fill="#A7A9AC"/>
<path d="M13.238 52.653V53.427L2.23102 47.001L2.77002 46.692L13.238 52.653Z" fill="#D1D3D4"/>
<path d="M7.82101 42.682V49.593L7.19202 49.899V42.315L7.82101 42.682Z" fill="#A7A9AC"/>
<path d="M6.772 41.783V49.653L7.19201 49.899V42.315L6.772 41.783Z" fill="#BCBEC0"/>
<path d="M1.78201 38.893V47.263L13.233 53.913V45.524L1.78201 38.893ZM12.782 53.163L2.23101 47.001V39.644L12.782 45.748V53.163Z" fill="#E3DBCA"/>
<path d="M26.284 67.786V75.093L15.819 69.015V61.733L26.284 67.786Z" fill="#8DBBD3"/>
<path d="M15.866 62.038V68.88L15.238 69.253V61.671L15.866 62.038Z" fill="#6D6E71"/>
<path d="M26.141 74.702V75.474L15.329 69.173L15.866 68.864L26.141 74.702Z" fill="#6D6E71"/>
<path d="M25.93 67.872V67.882L15.827 62.034V68.94L15.2 69.251V61.663L25.93 67.872Z" fill="#A7A9AC"/>
<path d="M26.294 74.851V75.618L15.29 69.196L15.827 68.888L26.294 74.851Z" fill="#D1D3D4"/>
<path d="M20.878 64.878V71.786L20.251 72.097V64.509L20.878 64.878Z" fill="#A7A9AC"/>
<path d="M19.831 63.978V71.849L20.251 72.097V64.509L19.831 63.978Z" fill="#BCBEC0"/>
<path d="M14.838 61.091V69.454L26.291 76.108V67.715L14.838 61.091ZM25.842 75.356L15.289 69.196V61.839L25.842 67.943V75.356Z" fill="#E3DBCA"/>
<path d="M13.216 60.278V67.581L2.75 61.507V54.226L13.216 60.278Z" fill="#8DBBD3"/>
<path d="M2.79902 54.528V61.372L2.17102 61.745V54.161L2.79902 54.528Z" fill="#6D6E71"/>
<path d="M13.074 67.192V67.966L2.26001 61.667L2.79901 61.356L13.074 67.192Z" fill="#6D6E71"/>
<path d="M12.865 60.362V60.372L2.762 54.522V61.431L2.133 61.741V54.157L12.865 60.362Z" fill="#A7A9AC"/>
<path d="M13.228 67.341V68.11L2.22501 61.689L2.76201 61.378L13.228 67.341Z" fill="#D1D3D4"/>
<path d="M7.811 57.37V64.276L7.186 64.585V57.001L7.811 57.37Z" fill="#A7A9AC"/>
<path d="M6.76401 56.472V64.339L7.18601 64.585V57.001L6.76401 56.472Z" fill="#BCBEC0"/>
<path d="M1.772 53.583V61.948L13.228 68.6V60.207L1.772 53.583ZM12.775 67.849L2.225 61.689V54.332L12.775 60.437V67.849Z" fill="#E3DBCA"/>
</svg>
