<svg width="91" height="88" viewBox="0 0 91 88" fill="none" xmlns="http://www.w3.org/2000/svg">
<path d="M71.055 41.217L60.073 34.907L60.257 58.35L71.204 64.733L71.055 41.217Z" fill="#C0C7CE"/>
<path d="M71.055 41.217L71.204 64.733L87.128 55.539L86.978 32.023L71.055 41.217Z" fill="#5F9AB4"/>
<path d="M60.073 34.907L71.071 41.275L86.994 32.082V29.492L75.989 23.126L60.073 32.322V34.907Z" fill="#939598"/>
<path d="M60.073 32.322L71.071 38.691L86.994 29.498L75.989 23.126L60.073 32.322Z" fill="#C0C7CE"/>
<path d="M0.947998 14.068L35.997 34.305L36.031 84.862L1.003 64.637L0.947998 14.068Z" fill="#D7E4E8"/>
<path d="M36.034 84.86V87.503L1.00399 67.308L1.00299 64.637L36.034 84.86Z" fill="#939598"/>
<path d="M35.996 31.839L0.945984 11.602L0.947985 14.068L35.997 34.305L35.996 31.839Z" fill="#939598"/>
<path d="M35.996 31.839L35.997 34.3L71.263 13.941L71.265 11.476L35.996 31.839Z" fill="#939598"/>
<path d="M71.263 13.941L35.997 34.305L36.031 84.862L71.21 64.733L71.263 13.941Z" fill="#B5C2CE"/>
<path d="M36.031 84.862V87.506L87.128 58.201V55.539L36.031 84.862Z" fill="#939598"/>
<path d="M43.108 32.833V43.535L52.776 37.92V37.915L43.442 43.333V32.639L43.108 32.833Z" fill="#27AAE1"/>
<path d="M43.118 32.53V43.233L52.784 37.618V26.936L43.118 32.53Z" fill="#8DBBD3"/>
<path d="M43.408 32.61V32.618L52.743 27.219V37.211L53.321 37.557V26.875L43.408 32.61Z" fill="#6D6E71"/>
<path d="M43.118 42.656V43.373L53.237 37.483L52.743 37.196L43.118 42.656Z" fill="#6D6E71"/>
<path d="M43.442 32.607V32.613L52.776 27.212V37.267L53.356 37.554V26.87L43.442 32.607Z" fill="#A7A9AC"/>
<path d="M43.108 42.726V43.44L53.272 37.504L52.776 37.214L43.108 42.726Z" fill="#D1D3D4"/>
<path d="M48.11 29.84V39.895L48.691 40.182V29.499L48.11 29.84Z" fill="#A7A9AC"/>
<path d="M49.079 29.011V39.955L48.691 40.182V29.499L49.079 29.011Z" fill="#BCBEC0"/>
<path d="M43.108 32.464V43.888L53.691 37.744V26.34L43.108 32.464ZM43.527 32.675L53.272 27.033V37.504L43.527 43.196V32.675Z" fill="#7E7F82"/>
<path d="M43.108 50.333V61.034L52.776 55.419V55.415L43.442 60.834V50.138L43.108 50.333Z" fill="#27AAE1"/>
<path d="M43.118 50.029V60.734L52.784 55.117V44.436L43.118 50.029Z" fill="#8DBBD3"/>
<path d="M43.408 50.11V50.117L52.743 44.719V54.711L53.321 55.055V44.375L43.408 50.11Z" fill="#6D6E71"/>
<path d="M43.118 60.157V60.873L53.237 54.982L52.743 54.696L43.118 60.157Z" fill="#6D6E71"/>
<path d="M43.442 50.106V50.114L52.776 44.711V54.766L53.356 55.052V44.369L43.442 50.106Z" fill="#A7A9AC"/>
<path d="M43.108 60.225V60.94L53.272 55.003L52.776 54.715L43.108 60.225Z" fill="#D1D3D4"/>
<path d="M48.11 47.34V57.395L48.691 57.683V46.999L48.11 47.34Z" fill="#A7A9AC"/>
<path d="M49.079 46.51V57.453L48.691 57.683V46.999L49.079 46.51Z" fill="#BCBEC0"/>
<path d="M43.108 49.963V61.388L53.691 55.243V43.843L43.108 49.963ZM43.527 50.173L53.272 44.533V55.003L43.527 60.695V50.173Z" fill="#7E7F82"/>
<path d="M43.11 67.814V78.516L52.778 72.902V72.896L43.444 78.313V67.619L43.11 67.814Z" fill="#27AAE1"/>
<path d="M43.12 67.509V78.216L52.785 72.597V61.915L43.12 67.509Z" fill="#8DBBD3"/>
<path d="M43.41 67.589V67.599L52.745 62.199V72.194L53.325 72.536V61.855L43.41 67.589Z" fill="#6D6E71"/>
<path d="M43.12 77.636V78.354L53.239 72.465L52.745 72.178L43.12 77.636Z" fill="#6D6E71"/>
<path d="M43.444 67.586V67.595L52.778 62.193V72.245L53.358 72.533V61.852L43.444 67.586Z" fill="#A7A9AC"/>
<path d="M43.108 77.706V78.42L53.274 72.484L52.778 72.196L43.108 77.706Z" fill="#D1D3D4"/>
<path d="M48.112 64.821V74.875L48.693 75.161V64.479L48.112 64.821Z" fill="#A7A9AC"/>
<path d="M49.08 63.99V74.934L48.693 75.161V64.479L49.08 63.99Z" fill="#BCBEC0"/>
<path d="M43.11 67.443V78.868L53.693 72.724V61.321L43.11 67.443ZM43.528 67.656L53.274 62.013V72.484L43.528 78.177V67.656Z" fill="#7E7F82"/>
<path d="M59.616 22.846V33.696L63.233 31.526V20.695L59.616 22.846Z" fill="#8DBBD3"/>
<path d="M63.19 20.98V31.114L63.78 31.465V20.634L63.19 20.98Z" fill="#6D6E71"/>
<path d="M59.616 33.188V33.802L63.694 31.39L63.19 31.099L59.616 33.188Z" fill="#6D6E71"/>
<path d="M63.227 20.976V31.17L63.813 31.459V20.629L63.227 20.976Z" fill="#A7A9AC"/>
<path d="M59.616 33.214V33.855L63.729 31.41L63.227 31.119L59.616 33.214Z" fill="#D1D3D4"/>
<path d="M59.09 23.102V34.576L64.153 31.653V20.158L59.09 23.102ZM59.616 23.176L63.729 20.794V31.41L59.616 33.802V23.176Z" fill="#7E7F82"/>
<path d="M59.598 40.356V51.209L63.217 49.038V38.206L59.598 40.356Z" fill="#8DBBD3"/>
<path d="M63.174 38.492V48.625L63.762 48.976V38.145L63.174 38.492Z" fill="#6D6E71"/>
<path d="M59.598 50.699V51.313L63.675 48.901L63.174 48.61L59.598 50.699Z" fill="#6D6E71"/>
<path d="M63.21 38.487V48.683L63.795 48.97V38.141L63.21 38.487Z" fill="#A7A9AC"/>
<path d="M59.598 50.725V51.368L63.71 48.923L63.21 48.632L59.598 50.725Z" fill="#D1D3D4"/>
<path d="M59.074 40.614V52.087L64.134 49.166L64.136 37.669L59.074 40.614ZM59.598 40.688L63.71 38.308V48.923L59.598 51.313V40.688Z" fill="#7E7F82"/>
<path d="M59.598 57.855V68.708L63.217 66.536V55.706L59.598 57.855Z" fill="#8DBBD3"/>
<path d="M63.174 55.992V66.127L63.762 66.477V55.645L63.174 55.992Z" fill="#6D6E71"/>
<path d="M59.598 68.198V68.814L63.675 66.402L63.174 66.109L59.598 68.198Z" fill="#6D6E71"/>
<path d="M63.21 55.987V66.18L63.795 66.47V55.641L63.21 55.987Z" fill="#A7A9AC"/>
<path d="M59.598 68.224V68.866L63.71 66.422L63.21 66.13L59.598 68.224Z" fill="#D1D3D4"/>
<path d="M59.074 58.114V69.589L64.134 66.666L64.136 55.17L59.074 58.114ZM59.598 58.186L63.71 55.805V66.421L59.598 68.813V58.186Z" fill="#7E7F82"/>
<path d="M29.035 32.924V43.627L19.366 38.011V38.007L28.702 43.425V32.73L29.035 32.924Z" fill="#27AAE1"/>
<path d="M29.024 32.619V43.325L19.359 37.708V27.025L29.024 32.619Z" fill="#8DBBD3"/>
<path d="M28.735 32.701V32.709L19.4 27.309V37.302L18.821 37.648V26.965L28.735 32.701Z" fill="#6D6E71"/>
<path d="M29.024 42.747V43.463L18.905 37.574L19.4 37.287L29.024 42.747Z" fill="#6D6E71"/>
<path d="M28.702 32.698V32.704L19.366 27.303V37.357L18.786 37.644V26.963L28.702 32.698Z" fill="#A7A9AC"/>
<path d="M29.035 42.816V43.532L18.872 37.594L19.366 37.305L29.035 42.816Z" fill="#D1D3D4"/>
<path d="M24.032 29.931V39.986L23.452 40.273V29.589L24.032 29.931Z" fill="#A7A9AC"/>
<path d="M23.064 29.102V40.046L23.452 40.273V29.589L23.064 29.102Z" fill="#BCBEC0"/>
<path d="M18.451 26.433V37.835L29.035 43.98V32.557L18.451 26.433ZM28.618 43.287L18.872 37.594V27.124L28.618 32.766V43.287Z" fill="#7E7F82"/>
<path d="M29.035 50.424V61.126L19.366 55.511V55.506L28.702 60.924V50.23L29.035 50.424Z" fill="#27AAE1"/>
<path d="M29.024 50.12V60.825L19.359 55.207V44.525L29.024 50.12Z" fill="#8DBBD3"/>
<path d="M28.735 50.2V50.208L19.4 44.81V54.802L18.821 55.145V44.467L28.735 50.2Z" fill="#6D6E71"/>
<path d="M29.024 60.248V60.962L18.905 55.073L19.4 54.787L29.024 60.248Z" fill="#6D6E71"/>
<path d="M28.702 50.196V50.205L19.366 44.804V54.856L18.786 55.144V44.461L28.702 50.196Z" fill="#A7A9AC"/>
<path d="M29.035 60.315V61.031L18.872 55.094L19.366 54.806L29.035 60.315Z" fill="#D1D3D4"/>
<path d="M24.032 47.432V57.485L23.452 57.773V47.09L24.032 47.432Z" fill="#A7A9AC"/>
<path d="M23.064 46.602V57.545L23.452 57.773V47.09L23.064 46.602Z" fill="#BCBEC0"/>
<path d="M18.451 43.932V55.335L29.035 61.48V50.054L18.451 43.932ZM28.618 60.786L18.872 55.094V44.623L28.618 50.265V60.786Z" fill="#7E7F82"/>
<path d="M29.033 67.904V78.607L19.365 72.992V72.985L28.7 78.404V67.71L29.033 67.904Z" fill="#27AAE1"/>
<path d="M29.024 67.601V78.305L19.358 72.686V62.005L29.024 67.601Z" fill="#8DBBD3"/>
<path d="M28.733 67.68V67.69L19.399 62.289V72.283L18.818 72.628V61.945L28.733 67.68Z" fill="#6D6E71"/>
<path d="M29.024 77.727V78.443L18.904 72.553L19.399 72.27L29.024 77.727Z" fill="#6D6E71"/>
<path d="M28.7 67.678V67.686L19.365 62.283V72.336L18.785 72.626V61.942L28.7 67.678Z" fill="#A7A9AC"/>
<path d="M29.035 77.796V78.508L18.869 72.575L19.365 72.287L29.035 77.796Z" fill="#D1D3D4"/>
<path d="M24.031 64.911V74.964L23.449 75.253V64.569L24.031 64.911Z" fill="#A7A9AC"/>
<path d="M23.063 64.081V75.025L23.449 75.253V64.569L23.063 64.081Z" fill="#BCBEC0"/>
<path d="M18.451 61.411V72.815L29.033 78.96V67.536L18.451 61.411ZM28.616 78.268L18.869 72.576V62.106L28.616 67.748V78.268Z" fill="#7E7F82"/>
<path d="M12.526 22.935V33.787L8.91098 31.616V20.786L12.526 22.935Z" fill="#8DBBD3"/>
<path d="M8.95198 21.071V31.205L8.36398 31.556V20.725L8.95198 21.071Z" fill="#6D6E71"/>
<path d="M12.526 33.278V33.894L8.448 31.48L8.952 31.189L12.526 33.278Z" fill="#6D6E71"/>
<path d="M8.91599 21.067V31.26L8.32999 31.551V20.72L8.91599 21.067Z" fill="#A7A9AC"/>
<path d="M12.526 33.304V33.947L8.414 31.499L8.916 31.211L12.526 33.304Z" fill="#D1D3D4"/>
<path d="M7.98898 20.249V31.744L13.052 34.667V23.193L7.98898 20.249ZM12.526 33.894L8.41399 31.499V20.886L12.526 23.267V33.894Z" fill="#7E7F82"/>
<path d="M12.544 40.446V51.299L8.92596 49.129V38.296L12.544 40.446Z" fill="#8DBBD3"/>
<path d="M8.96898 38.584V48.718L8.38098 49.067V38.236L8.96898 38.584Z" fill="#6D6E71"/>
<path d="M12.544 50.79V51.405L8.46597 48.993L8.96898 48.701L12.544 50.79Z" fill="#6D6E71"/>
<path d="M8.93298 38.578V48.773L8.34698 49.064V38.232L8.93298 38.578Z" fill="#A7A9AC"/>
<path d="M12.544 50.815V51.459L8.43198 49.013L8.93298 48.722L12.544 50.815Z" fill="#D1D3D4"/>
<path d="M8.00598 37.76L8.00698 49.256L13.07 52.179V40.706L8.00598 37.76ZM12.544 51.405L8.43198 49.012V38.396L12.544 40.777V51.405Z" fill="#7E7F82"/>
<path d="M12.544 57.946V68.798L8.92596 66.628V55.797L12.544 57.946Z" fill="#8DBBD3"/>
<path d="M8.96898 56.083V66.217L8.38098 66.565V55.736L8.96898 56.083Z" fill="#6D6E71"/>
<path d="M12.544 68.291V68.904L8.46597 66.492L8.96898 66.202L12.544 68.291Z" fill="#6D6E71"/>
<path d="M8.93298 56.078V66.271L8.34698 66.561V55.73L8.93298 56.078Z" fill="#A7A9AC"/>
<path d="M12.544 68.314V68.958L8.43198 66.514L8.93298 66.222L12.544 68.314Z" fill="#D1D3D4"/>
<path d="M8.00598 55.26L8.00698 66.759L13.07 69.677V58.204L8.00598 55.26ZM12.544 68.904L8.43198 66.513V55.895L12.544 58.276V68.904Z" fill="#7E7F82"/>
<path d="M51.665 0.253998L71.265 11.476L35.996 31.839L0.945984 11.602L20.39 0.288002L35.996 9.26199L51.665 0.253998Z" fill="#C0C7CE"/>
<path d="M77.332 65.395L73.654 63.281V65.932L77.332 68.03V65.395Z" fill="#939598"/>
<path d="M77.331 65.392L73.654 63.27L84.918 56.806L88.582 58.912L77.331 65.392Z" fill="#C0C7CE"/>
<path d="M77.332 68.03L77.331 65.392L88.582 58.912L88.581 61.546L77.332 68.03Z" fill="#939598"/>
<path d="M74.304 62.913V45.398L84.581 39.466L84.591 57.269L83.969 57.635L83.732 57.495L74.304 62.913Z" fill="#939598"/>
<path d="M74.304 45.398L83.731 39.955L83.732 57.495L74.304 62.913V45.398Z" fill="#D1D3D4"/>
<path d="M83.969 57.635L83.971 39.816L83.729 39.965L83.723 57.485L83.969 57.635Z" fill="#58595B"/>
<path d="M81.972 51C81.972 51.303 82.17 51.421 82.42 51.27C82.666 51.121 82.867 50.755 82.867 50.455C82.867 50.157 82.666 50.035 82.42 50.187C82.17 50.339 81.972 50.704 81.972 51Z" fill="#58595B"/>
<path d="M82.033 51.046C82.033 51.342 82.232 51.465 82.48 51.313C82.727 51.165 82.926 50.797 82.926 50.498C82.926 50.2 82.727 50.081 82.48 50.229C82.232 50.379 82.033 50.742 82.033 51.046Z" fill="#6D6E71"/>
<path d="M74.062 45.535L74.922 45.04L74.933 62.842L74.311 63.207L74.062 63.058V45.535Z" fill="#58595B"/>
<path d="M74.303 45.398L74.922 45.04L74.933 62.842L74.311 63.207L74.303 45.398Z" fill="#939598"/>
<path d="M72.493 45.252V44.505L81.383 39.385L90.012 42.486V43.234L79.491 49.299L72.493 45.252Z" fill="#939598"/>
<path d="M72.493 44.505L83.004 38.429L90.012 42.486L79.491 48.553L72.493 44.505Z" fill="#C0C7CE"/>
</svg>
