<svg width="73" height="96" viewBox="0 0 73 96" fill="none" xmlns="http://www.w3.org/2000/svg">
<path d="M1.37201 15.556L1.383 67.331L21.351 78.89V27.337L1.37201 15.556Z" fill="#88C2DB"/>
<path d="M0.368011 17.177L0.372009 67.905L6.65201 71.567L6.647 20.802L0.368011 17.177Z" fill="#F1F2F2"/>
<path d="M6.65201 71.567L7.65201 70.993L7.647 20.233L6.647 20.802L6.65201 71.567Z" fill="#AFADAC"/>
<path d="M45.087 93.702L66.356 81.353V30.956L45.087 42.396V93.702Z" fill="#5B95AB"/>
<path d="M14.07 25.081L14.073 75.808L45.087 93.519L45.09 42.894L14.07 25.081Z" fill="#F1F2F2"/>
<path d="M45.09 44.802L45.095 93.948L50.317 90.95L50.31 41.757L45.09 44.802Z" fill="#B5C2CE"/>
<path d="M7.65201 70.993L6.647 71.567V69.183L7.651 68.62L7.65201 70.993Z" fill="#808285"/>
<path d="M57.819 86.517L50.317 90.765L50.319 88.386L57.819 84.114V86.517Z" fill="#939598"/>
<path d="M57.816 86.517L59.86 87.681V85.284L57.816 84.114V86.517Z" fill="#808285"/>
<path d="M72.645 77.772V80.345L59.86 87.681L59.862 85.286L72.645 77.772Z" fill="#919090"/>
<path d="M7.65201 70.993L14.07 74.739V72.353L7.64999 68.62L7.65201 70.993Z" fill="#939598"/>
<path d="M0.369995 67.911L6.647 71.567V69.183L0.365997 65.538L0.369995 67.911Z" fill="#AFADAD"/>
<path d="M45.087 95.405H45.095L50.317 92.378V90.019L45.095 93.019L45.087 95.405Z" fill="#919090"/>
<path d="M14.07 75.087L14.073 77.462L45.087 95.405L45.095 95.409V95.405V93.019L14.07 75.087Z" fill="#AFADAD"/>
<path d="M57.813 35.894L50.31 40.14V39.399L48.847 38.601L57.813 33.493V35.894Z" fill="#939598"/>
<path d="M57.808 35.894L59.863 37.081L59.852 34.659L57.808 33.493V35.894Z" fill="#808285"/>
<path d="M72.637 27.286V29.722L59.863 37.081L59.854 34.661L72.637 27.286Z" fill="#919090"/>
<path d="M0.36499 17.292L6.642 20.948L6.67599 18.569L0.360992 14.915L0.36499 17.292Z" fill="#AFADAD"/>
<path d="M45.082 44.782L45.087 44.778L50.31 41.757V39.399L45.087 42.396L45.082 44.782Z" fill="#919090"/>
<path d="M14.065 24.462L14.068 26.837L45.082 44.782L45.087 44.786V44.778V42.396L14.065 24.462Z" fill="#AFADAD"/>
<path d="M7.64801 20.372L16.509 25.528V23.142L7.64499 17.997L7.64801 20.372Z" fill="#939598"/>
<path d="M7.64801 20.372L6.642 20.948L6.647 18.585L7.651 18.02L7.64801 20.372Z" fill="#808285"/>
<path d="M45.087 42.396L14.099 24.474L16.509 23.142L7.651 18.02L6.647 18.585L0.360992 14.915L25.768 0.226013L72.637 27.286L59.888 34.669L57.849 33.503L48.882 38.61L50.31 39.399L45.087 42.396Z" fill="#D1D3D4"/>
<path d="M72.637 29.722L72.645 77.772L59.863 85.314V37.081L72.637 29.722Z" fill="#B5C2CE"/>
<path d="M11.963 31.37V37.565L9.89801 36.327V30.142L11.963 31.37Z" fill="#9BCCE5"/>
<path d="M9.923 30.308V36.095L9.58701 36.29V30.11L9.923 30.308Z" fill="#6D6E71"/>
<path d="M11.963 37.272V37.622L9.634 36.247L9.923 36.081L11.963 37.272Z" fill="#6D6E71"/>
<path d="M9.90399 30.304V36.122L9.56601 36.288V30.106L9.90399 30.304Z" fill="#BCBEC0"/>
<path d="M11.963 37.288V37.655L9.61499 36.259L9.90399 36.095L11.963 37.288Z" fill="#D1D3D4"/>
<path d="M9.375 29.77V36.401L12.234 38.051V31.422L9.375 29.77ZM11.963 37.622L9.61499 36.259V30.2L11.963 31.534V37.622Z" fill="#58595B"/>
<path d="M11.965 43.532V49.729L9.89801 48.491V42.306L11.965 43.532Z" fill="#9BCCE5"/>
<path d="M9.923 42.472V48.255L9.58701 48.454V42.274L9.923 42.472Z" fill="#6D6E71"/>
<path d="M11.965 49.439V49.788L9.634 48.411L9.923 48.245L11.965 49.439Z" fill="#6D6E71"/>
<path d="M9.901 42.468V48.286L9.56601 48.452V42.271L9.901 42.468Z" fill="#BCBEC0"/>
<path d="M11.965 49.454V49.817L9.61499 48.425L9.901 48.259L11.965 49.454Z" fill="#D1D3D4"/>
<path d="M9.375 41.954V48.577L12.234 50.229V43.604L9.375 41.954ZM11.965 49.804L9.61499 48.441V42.381L11.965 43.715V49.804Z" fill="#58595B"/>
<path d="M11.965 55.769V61.962L9.89801 60.724V54.54L11.965 55.769Z" fill="#9BCCE5"/>
<path d="M9.923 54.702V60.489L9.58701 60.689V54.507L9.923 54.702Z" fill="#6D6E71"/>
<path d="M11.965 61.671V62.022L9.634 60.644L9.923 60.476L11.965 61.671Z" fill="#6D6E71"/>
<path d="M9.90399 54.698V60.521L9.56799 60.683V54.503L9.90399 54.698Z" fill="#BCBEC0"/>
<path d="M11.965 61.683V62.05L9.61499 60.655L9.90399 60.489L11.965 61.683Z" fill="#D1D3D4"/>
<path d="M9.37399 54.189V60.818L12.234 62.468V55.839L9.37399 54.189ZM11.965 62.044L9.61499 60.679V54.618L11.965 55.952V62.044Z" fill="#58595B"/>
<path d="M62.956 39.589V46.464L69.167 42.856V42.854L63.169 46.333V39.464L62.956 39.589Z" fill="#27AAE1"/>
<path d="M62.961 39.394V46.271L69.173 42.661V35.8L62.961 39.394Z" fill="#8DBBD3"/>
<path d="M63.148 39.446V39.45L69.145 35.981V42.401L69.519 42.622V35.761L63.148 39.446Z" fill="#6D6E71"/>
<path d="M62.961 45.899V46.36L69.464 42.575L69.145 42.392L62.961 45.899Z" fill="#6D6E71"/>
<path d="M63.169 39.442V39.446L69.167 35.978V42.436L69.54 42.622V35.759L63.169 39.442Z" fill="#A7A9AC"/>
<path d="M62.956 45.942V46.399L69.485 42.589L69.167 42.403L62.956 45.942Z" fill="#D1D3D4"/>
<path d="M66.168 37.669V44.124L66.54 44.31V37.446L66.168 37.669Z" fill="#A7A9AC"/>
<path d="M66.791 37.132V44.161L66.54 44.31V37.446L66.791 37.132Z" fill="#BCBEC0"/>
<path d="M62.956 39.353V46.693L69.757 42.742V35.42L62.956 39.353ZM63.226 39.485L69.486 35.862V42.589L63.226 46.245V39.485Z" fill="#58595B"/>
<path d="M53 45.11V51.907L55.265 50.55V43.765L53 45.11Z" fill="#8DBBD3"/>
<path d="M55.238 43.946V50.29L55.606 50.509V43.728L55.238 43.946Z" fill="#6D6E71"/>
<path d="M53 51.587V51.974L55.554 50.464L55.238 50.278L53 51.587Z" fill="#6D6E71"/>
<path d="M55.261 43.942V50.325L55.629 50.505V43.726L55.261 43.942Z" fill="#A7A9AC"/>
<path d="M53 51.606V52.005L55.578 50.476L55.261 50.294L53 51.606Z" fill="#D1D3D4"/>
<path d="M52.701 45.169V52.442L55.84 50.627V43.387L52.701 45.169ZM53 45.292L55.578 43.829V50.475L53 51.974V45.292Z" fill="#58595B"/>
<path d="M62.815 52.651V59.526L69.026 55.919L63.03 59.397V52.524L62.815 52.651Z" fill="#27AAE1"/>
<path d="M62.821 52.458V59.333L69.033 55.724V48.862L62.821 52.458Z" fill="#8DBBD3"/>
<path d="M63.007 52.509V52.513L69.006 49.044V55.464L69.376 55.686V48.825L63.007 52.509Z" fill="#6D6E71"/>
<path d="M62.821 58.962V59.423L69.323 55.638L69.004 55.454L62.821 58.962Z" fill="#6D6E71"/>
<path d="M63.03 52.507V52.513L69.026 49.042V55.499L69.399 55.685V48.821L63.03 52.507Z" fill="#A7A9AC"/>
<path d="M62.815 59.007V59.464L69.344 55.653L69.023 55.468L62.815 59.007Z" fill="#D1D3D4"/>
<path d="M66.029 50.731V57.186L66.399 57.372V50.509L66.029 50.731Z" fill="#A7A9AC"/>
<path d="M66.651 50.196V57.228L66.399 57.372V50.509L66.651 50.196Z" fill="#BCBEC0"/>
<path d="M62.815 52.415V59.755L69.615 55.808V48.484L62.815 52.415ZM63.085 52.548L69.344 48.927V55.654L63.085 59.31V52.548Z" fill="#58595B"/>
<path d="M52.858 58.173V64.972L55.124 63.61V56.829L52.858 58.173Z" fill="#8DBBD3"/>
<path d="M55.097 57.011V63.353L55.465 63.573V56.792L55.097 57.011Z" fill="#6D6E71"/>
<path d="M52.858 64.649V65.036L55.412 63.526L55.097 63.343L52.858 64.649Z" fill="#6D6E71"/>
<path d="M55.12 57.007V63.388L55.487 63.569V56.79L55.12 57.007Z" fill="#A7A9AC"/>
<path d="M52.858 64.665V65.067L55.435 63.538L55.12 63.354L52.858 64.665Z" fill="#D1D3D4"/>
<path d="M52.56 58.233V65.501L55.698 63.692V56.454L52.56 58.233ZM52.858 58.354L55.435 56.891V63.537L52.858 65.035V58.354Z" fill="#58595B"/>
<path d="M62.815 65.573V72.448L69.026 68.843V68.841L63.03 72.319V65.452L62.815 65.573Z" fill="#27AAE1"/>
<path d="M62.821 65.378V72.255L69.033 68.647V61.786L62.821 65.378Z" fill="#8DBBD3"/>
<path d="M63.007 65.431V65.435L69.006 61.966V68.386L69.377 68.608V61.747L63.007 65.431Z" fill="#6D6E71"/>
<path d="M62.821 71.884V72.345L69.323 68.561L69.004 68.376L62.821 71.884Z" fill="#6D6E71"/>
<path d="M63.03 65.427V65.433L69.026 61.964V68.421L69.4 68.606V61.743L63.03 65.427Z" fill="#A7A9AC"/>
<path d="M62.815 71.927V72.386L69.346 68.575L69.025 68.39L62.815 71.927Z" fill="#D1D3D4"/>
<path d="M66.029 63.651V70.112L66.399 70.292V63.431L66.029 63.651Z" fill="#A7A9AC"/>
<path d="M66.652 63.116V70.146L66.399 70.292V63.431L66.652 63.116Z" fill="#BCBEC0"/>
<path d="M62.815 65.337V72.677L69.615 68.73V61.404L62.815 65.337ZM63.085 65.47L69.346 61.849V68.576L63.085 72.232V65.47Z" fill="#58595B"/>
<path d="M52.858 71.095V77.892L55.124 76.536V69.751L52.858 71.095Z" fill="#8DBBD3"/>
<path d="M55.098 69.931V76.272L55.467 76.495V69.714L55.098 69.931Z" fill="#6D6E71"/>
<path d="M52.858 77.571V77.958L55.412 76.448L55.098 76.267L52.858 77.571Z" fill="#6D6E71"/>
<path d="M55.12 69.929V76.31L55.487 76.491V69.71L55.12 69.929Z" fill="#A7A9AC"/>
<path d="M52.858 77.587V77.987L55.436 76.46L55.12 76.276L52.858 77.587Z" fill="#D1D3D4"/>
<path d="M52.56 71.153V78.425L55.701 76.612V69.374L52.56 71.153ZM52.858 71.278L55.436 69.813V76.459L52.858 77.957V71.278Z" fill="#58595B"/>
<path d="M41.727 47.96V54.833L35.516 51.226V51.224L41.513 54.702V47.835L41.727 47.96Z" fill="#27AAE1"/>
<path d="M41.722 47.761V54.64L35.508 51.03V44.169L41.722 47.761Z" fill="#8DBBD3"/>
<path d="M41.532 47.815V47.819L35.536 44.349V50.769L35.164 50.991V44.13L41.532 47.815Z" fill="#6D6E71"/>
<path d="M41.722 54.272V54.729L35.216 50.944L35.537 50.761L41.722 54.272Z" fill="#6D6E71"/>
<path d="M41.513 47.814V47.815L35.516 44.345V50.806L35.142 50.989V44.128L41.513 47.814Z" fill="#A7A9AC"/>
<path d="M41.727 54.315V54.771L35.197 50.96L35.516 50.774L41.727 54.315Z" fill="#D1D3D4"/>
<path d="M38.515 46.036V52.493L38.141 52.679V45.817L38.515 46.036Z" fill="#A7A9AC"/>
<path d="M37.89 45.501V52.528L38.141 52.679V45.817L37.89 45.501Z" fill="#BCBEC0"/>
<path d="M34.928 43.788V51.112L41.727 55.059V47.721L34.928 43.788ZM41.457 54.618L35.197 50.96V44.231L41.457 47.854V54.618Z" fill="#58595B"/>
<path d="M33.145 42.983V49.86L26.933 46.255V46.249L32.932 49.729V42.86L33.145 42.983Z" fill="#27AAE1"/>
<path d="M33.139 42.792V49.667L26.928 46.058V39.196L33.139 42.792Z" fill="#8DBBD3"/>
<path d="M32.952 42.843V42.847L26.957 39.378V45.798L26.584 46.021V39.159L32.952 42.843Z" fill="#6D6E71"/>
<path d="M33.139 49.298V49.755L26.636 45.972L26.958 45.79L33.139 49.298Z" fill="#6D6E71"/>
<path d="M32.932 42.837V42.847L26.933 39.376V45.833L26.56 46.017V39.153L32.932 42.837Z" fill="#A7A9AC"/>
<path d="M33.145 49.341V49.8L26.615 45.985L26.933 45.8L33.145 49.341Z" fill="#D1D3D4"/>
<path d="M29.931 41.064V47.524L29.56 47.706V40.843L29.931 41.064Z" fill="#A7A9AC"/>
<path d="M29.308 40.528V47.558L29.56 47.706V40.843L29.308 40.528Z" fill="#BCBEC0"/>
<path d="M26.347 38.815V46.139L33.146 50.086V42.748L26.347 38.815ZM32.876 49.644L26.615 45.986V39.261L32.876 42.882V49.644Z" fill="#58595B"/>
<path d="M41.532 60.755V67.628L35.32 64.019L41.317 67.497V60.628L41.532 60.755Z" fill="#27AAE1"/>
<path d="M41.528 60.558V67.435L35.317 63.825V56.966L41.528 60.558Z" fill="#8DBBD3"/>
<path d="M41.34 60.61V60.614L35.344 57.146V63.565L34.971 63.79V56.927L41.34 60.61Z" fill="#6D6E71"/>
<path d="M41.528 67.065V67.522L35.025 63.739L35.346 63.556L41.528 67.065Z" fill="#6D6E71"/>
<path d="M41.317 60.608V60.612L35.32 57.146V63.603L34.948 63.784V56.923L41.317 60.608Z" fill="#A7A9AC"/>
<path d="M41.532 67.108V67.564L35.004 63.751L35.322 63.569L41.532 67.108Z" fill="#D1D3D4"/>
<path d="M38.321 58.833V65.288L37.947 65.476V58.612L38.321 58.833Z" fill="#A7A9AC"/>
<path d="M37.696 58.298V65.323L37.947 65.476V58.612L37.696 58.298Z" fill="#BCBEC0"/>
<path d="M34.734 56.585V63.907L41.532 67.856V60.516L34.734 56.585ZM41.263 67.411L35.004 63.751V57.024L41.263 60.651V67.411Z" fill="#58595B"/>
<path d="M32.952 55.78V62.655L26.739 59.05V59.046L32.737 62.526V55.657L32.952 55.78Z" fill="#27AAE1"/>
<path d="M32.948 55.585V62.462L26.736 58.856V51.993L32.948 55.585Z" fill="#8DBBD3"/>
<path d="M32.76 55.638V55.642L26.762 52.175V58.591L26.391 58.817V51.954L32.76 55.638Z" fill="#6D6E71"/>
<path d="M32.948 62.095V62.552L26.444 58.771L26.764 58.583L32.948 62.095Z" fill="#6D6E71"/>
<path d="M32.737 55.636V55.64L26.739 52.171V58.628L26.366 58.814V51.948L32.737 55.636Z" fill="#A7A9AC"/>
<path d="M32.952 62.134V62.595L26.425 58.78L26.74 58.597L32.952 62.134Z" fill="#D1D3D4"/>
<path d="M29.741 53.858V60.317L29.367 60.503V53.638L29.741 53.858Z" fill="#A7A9AC"/>
<path d="M29.115 53.325V60.353L29.367 60.503V53.638L29.115 53.325Z" fill="#BCBEC0"/>
<path d="M26.153 51.61V58.936L32.952 62.883V55.543L26.153 51.61ZM32.685 62.439L26.425 58.781V52.056L32.685 55.677V62.439Z" fill="#58595B"/>
<path d="M41.532 73.776V80.651L35.32 77.046V77.042L41.317 80.521V73.655L41.532 73.776Z" fill="#27AAE1"/>
<path d="M41.528 73.581V80.46L35.317 76.853V69.989L41.528 73.581Z" fill="#8DBBD3"/>
<path d="M41.34 73.636V73.64L35.344 70.171V76.591L34.971 76.81V69.95L41.34 73.636Z" fill="#6D6E71"/>
<path d="M41.528 80.093V80.55L35.025 76.763L35.346 76.583L41.528 80.093Z" fill="#6D6E71"/>
<path d="M41.317 73.63V73.636L35.32 70.165V76.624L34.948 76.81V69.946L41.317 73.63Z" fill="#A7A9AC"/>
<path d="M41.532 80.132V80.589L35.004 76.776L35.322 76.595L41.532 80.132Z" fill="#D1D3D4"/>
<path d="M38.321 71.856V78.311L37.947 78.499V71.636L38.321 71.856Z" fill="#A7A9AC"/>
<path d="M37.696 71.319V78.351L37.947 78.499V71.636L37.696 71.319Z" fill="#BCBEC0"/>
<path d="M34.734 69.606V76.932L41.532 80.879V73.539L34.734 69.606ZM41.263 80.436L35.004 76.776V70.051L41.263 73.674V80.436Z" fill="#58595B"/>
<path d="M32.952 68.806V75.677L26.739 72.073V72.069L32.737 75.55V68.681L32.952 68.806Z" fill="#27AAE1"/>
<path d="M32.948 68.61V75.485L26.736 71.88V65.019L32.948 68.61Z" fill="#8DBBD3"/>
<path d="M32.76 68.663V68.665L26.762 65.198V71.616L26.391 71.841V64.976L32.76 68.663Z" fill="#6D6E71"/>
<path d="M32.948 75.118V75.575L26.444 71.792L26.764 71.608L32.948 75.118Z" fill="#6D6E71"/>
<path d="M32.737 68.657V68.665L26.739 65.194V71.651L26.366 71.837V64.974L32.737 68.657Z" fill="#A7A9AC"/>
<path d="M32.952 75.161V75.62L26.425 71.804L26.74 71.62L32.952 75.161Z" fill="#D1D3D4"/>
<path d="M29.741 66.886V73.343L29.367 73.526V66.661L29.741 66.886Z" fill="#A7A9AC"/>
<path d="M29.115 66.349V73.38L29.367 73.526V66.661L29.115 66.349Z" fill="#BCBEC0"/>
<path d="M26.153 64.634V71.958L32.952 75.907V68.567L26.153 64.634ZM32.685 75.462L26.425 71.804V65.081L32.685 68.7V75.462Z" fill="#58595B"/>
<path d="M24.579 38.034V44.909L18.367 41.302V41.3L24.366 44.778V37.909L24.579 38.034Z" fill="#27AAE1"/>
<path d="M24.574 37.837V44.716L18.362 41.108V34.243L24.574 37.837Z" fill="#8DBBD3"/>
<path d="M24.385 37.89V37.894L18.39 34.427V40.847L18.019 41.067V34.208L24.385 37.89Z" fill="#6D6E71"/>
<path d="M24.574 44.345V44.802L18.072 41.021L18.392 40.837L24.574 44.345Z" fill="#6D6E71"/>
<path d="M24.366 37.888V37.892L18.367 34.421V40.882L17.994 41.064V34.202L24.366 37.888Z" fill="#A7A9AC"/>
<path d="M24.579 44.39V44.845L18.05 41.032L18.368 40.849L24.579 44.39Z" fill="#D1D3D4"/>
<path d="M21.365 36.112V42.569L20.995 42.755V35.892L21.365 36.112Z" fill="#A7A9AC"/>
<path d="M20.742 35.577V42.606L20.995 42.755V35.892L20.742 35.577Z" fill="#BCBEC0"/>
<path d="M17.781 33.862V41.188L24.579 45.139V37.797L17.781 33.862ZM24.31 44.689L18.05 41.033V34.308L24.31 37.933V44.689Z" fill="#58595B"/>
<path d="M24.385 50.829V57.704L18.174 54.097L24.172 57.573V50.702L24.385 50.829Z" fill="#27AAE1"/>
<path d="M24.383 50.636V57.513L18.169 53.903V47.038L24.383 50.636Z" fill="#8DBBD3"/>
<path d="M24.192 50.689V50.69L18.194 47.22V53.642L17.824 53.862V47.001L24.192 50.689Z" fill="#6D6E71"/>
<path d="M24.383 57.14V57.597L17.879 53.815L18.197 53.634L24.383 57.14Z" fill="#6D6E71"/>
<path d="M24.172 50.685V50.689L18.174 47.218V53.677L17.801 53.862V46.997L24.172 50.685Z" fill="#A7A9AC"/>
<path d="M24.385 57.183V57.642L17.857 53.829L18.176 53.646L24.385 57.183Z" fill="#D1D3D4"/>
<path d="M21.175 48.909V55.366L20.802 55.552V48.689L21.175 48.909Z" fill="#A7A9AC"/>
<path d="M20.55 48.372V55.399L20.802 55.552V48.689L20.55 48.372Z" fill="#BCBEC0"/>
<path d="M17.586 46.659V53.985L24.385 57.934V50.59L17.586 46.659ZM24.118 57.487L17.857 53.829V47.104L24.118 50.727V57.487Z" fill="#58595B"/>
<path d="M24.385 63.854V70.729L18.174 67.12L24.172 70.599V63.728L24.385 63.854Z" fill="#27AAE1"/>
<path d="M24.383 63.659V70.536L18.169 66.927V60.064L24.383 63.659Z" fill="#8DBBD3"/>
<path d="M24.192 63.712V63.716L18.194 60.243V66.667L17.824 66.888V60.026L24.192 63.712Z" fill="#6D6E71"/>
<path d="M24.383 70.165V70.624L17.879 66.839L18.197 66.655L24.383 70.165Z" fill="#6D6E71"/>
<path d="M24.172 63.706V63.714L18.174 60.241V66.702L17.801 66.886V60.024L24.172 63.706Z" fill="#A7A9AC"/>
<path d="M24.385 70.208V70.665L17.857 66.854L18.176 66.669L24.385 70.208Z" fill="#D1D3D4"/>
<path d="M21.175 61.933V68.39L20.802 68.575V61.712L21.175 61.933Z" fill="#A7A9AC"/>
<path d="M20.55 61.396V68.429L20.802 68.575V61.712L20.55 61.396Z" fill="#BCBEC0"/>
<path d="M17.586 59.685V67.009L24.385 70.958V63.618L17.586 59.685ZM24.118 70.511L17.857 66.855V60.128L24.118 63.751V70.511Z" fill="#58595B"/>
<path d="M57.819 84.114L59.868 85.311L59.863 37.081L57.813 35.894L57.819 84.114Z" fill="#AFADAC"/>
</svg>
