<svg width="45" height="81" viewBox="0 0 45 81" fill="none" xmlns="http://www.w3.org/2000/svg">
<path d="M44.614 15.257V70.907L27.318 80.896V25.241L44.614 15.257Z" fill="#919090"/>
<path d="M6.56 13.257L27.318 25.241V80.896L6.56 68.874V13.257Z" fill="#AFADAD"/>
<path d="M6.56 13.257L27.318 25.241V77.884L6.56 65.864V13.257Z" fill="#D7E4E8"/>
<path d="M44.614 15.257V67.897L27.318 77.884V25.241L44.614 15.257Z" fill="#B5C2CE"/>
<path d="M18.102 19.917V75.565L11.792 79.206L11.778 23.571L18.102 19.917Z" fill="#919090"/>
<path d="M0.348 19.964L11.778 26.579L11.792 79.206L0.345001 72.601L0.348 19.964Z" fill="#AFADAD"/>
<path d="M0.348 16.954L11.778 23.571L11.792 76.2L0.345001 69.591L0.348 16.954Z" fill="#F1F2F2"/>
<path d="M18.102 19.917V72.558L11.792 76.2L11.778 23.571L18.102 19.917Z" fill="#C0C7CE"/>
<path d="M44.614 15.186L23.942 3.25302L0.347992 16.954L11.778 23.571L18.105 19.921L27.318 25.241L44.614 15.186Z" fill="#C0C7CE"/>
<path d="M18.093 17.155V19.921L11.778 23.571V20.802L18.093 17.155Z" fill="#919090"/>
<path d="M42.097 11.05L23.976 0.585022L0.372009 14.218L11.803 20.816L18.094 17.156L27.319 22.488L27.324 22.482L27.33 22.488L44.612 12.504L42.097 11.05ZM18.064 14.077L11.741 17.737L5.65901 14.217L23.978 3.63501L39.274 12.535L27.329 19.441L18.064 14.077Z" fill="#D7E4E8"/>
<path d="M11.778 23.571L0.343994 16.954L0.371994 14.216L11.778 20.802V23.571Z" fill="#AFADAD"/>
<path d="M27.315 25.241L18.098 19.923L18.093 17.155L27.318 22.485L27.315 25.241Z" fill="#AFADAD"/>
<path d="M44.61 12.503L44.614 15.257L27.318 25.241L27.315 22.485H27.318L44.61 12.503Z" fill="#919090"/>
<path d="M8.85099 25.491L2.87299 22.038V29.101L8.84499 32.542L8.85099 25.491Z" fill="#B5D4DE"/>
<path d="M2.68399 21.964L2.68999 29.243L2.68399 29.249L2.68999 29.255H2.69199L9.02199 32.899V32.388L8.84499 32.284L3.05999 28.946V21.917L2.68399 21.708V21.964Z" fill="#6D6E71"/>
<path d="M2.50499 29.405L9.02099 33.161L9.02199 25.345L8.85399 25.243L8.84499 32.284V32.542L2.87299 29.101V21.782L2.71799 21.692L2.49899 21.817L2.50499 29.405Z" fill="#58595B"/>
<path d="M2.49899 21.817L2.87299 22.038L8.85099 25.491L9.02199 25.345H9.02499L9.02199 25.339L2.87299 21.782L2.71799 21.692L2.49899 21.817Z" fill="#58595B"/>
<path d="M4.47998 22.964L8.84798 30.341L8.85098 25.491L4.47998 22.964Z" fill="#3D3D3D"/>
<path d="M3.06 24.692V28.946L7.231 31.356L3.06 24.692Z" fill="#3D3D3D"/>
<path d="M8.84998 36.095L2.87299 32.642V39.706L8.84499 43.146L8.84998 36.095Z" fill="#B5D4DE"/>
<path d="M2.68399 32.567L2.68699 39.849L2.68399 39.853L2.68699 39.858H2.68999L9.02199 43.503V42.991L8.84499 42.888L3.05999 39.554V32.522L2.68399 32.311V32.567Z" fill="#6D6E71"/>
<path d="M2.50499 40.009L9.01899 43.767L9.02199 35.946L8.85299 35.847L8.84499 42.888V43.146L2.87299 39.706V32.388L2.71599 32.298L2.49899 32.423L2.50499 40.009Z" fill="#58595B"/>
<path d="M2.49899 32.423L2.87299 32.642L8.84999 36.095L9.02199 35.946H9.02299L9.02199 35.944L2.87299 32.388L2.71599 32.298L2.49899 32.423Z" fill="#58595B"/>
<path d="M4.47998 33.573L8.84598 40.948L8.84998 36.095L4.47998 33.573Z" fill="#3D3D3D"/>
<path d="M3.06 35.298V39.554L7.231 41.962L3.06 35.298Z" fill="#3D3D3D"/>
<path d="M8.83599 46.794L2.86099 43.339V50.401L8.83299 53.845L8.83599 46.794Z" fill="#B5D4DE"/>
<path d="M2.66898 43.265L2.67698 50.548L2.66898 50.552L2.67698 50.558V50.56L2.67798 50.558L9.00798 54.2V53.69L8.83298 53.585L3.04598 50.251V43.22L2.66898 43.011V43.265Z" fill="#6D6E71"/>
<path d="M2.49199 50.708L9.00499 54.468L9.00798 46.644L8.84198 46.546L8.83298 53.585V53.845L2.86098 50.401V43.087L2.70298 42.993L2.48499 43.12L2.49199 50.708Z" fill="#58595B"/>
<path d="M2.48499 43.12L2.86098 43.339L8.83598 46.794L9.00798 46.644H9.01099H9.00798L2.86098 43.087L2.70298 42.993L2.48499 43.12Z" fill="#58595B"/>
<path d="M4.46799 44.269L8.83299 51.644L8.83599 46.794L4.46799 44.269Z" fill="#3D3D3D"/>
<path d="M3.04599 45.995V50.251L7.21799 52.661L3.04599 45.995Z" fill="#3D3D3D"/>
<path d="M8.82998 57.577L2.85498 54.124V61.186L8.82598 64.63L8.82998 57.577Z" fill="#B5D4DE"/>
<path d="M2.66199 54.05L2.66899 61.331L2.66199 61.337L2.66899 61.341V61.343V61.341L9.00199 64.983V64.474L8.82599 64.372L3.04099 61.034V54.005L2.66199 53.794V54.05Z" fill="#6D6E71"/>
<path d="M2.48698 61.493L8.99998 65.249L9.00198 57.431L8.83298 57.331L8.82598 64.372V64.63L2.85498 61.186V53.868L2.69598 53.778L2.47598 53.903L2.48698 61.493Z" fill="#58595B"/>
<path d="M2.47598 53.903L2.85498 54.124L8.82998 57.577L9.00198 57.431H9.00398H9.00198L2.85498 53.868L2.69598 53.778L2.47598 53.903Z" fill="#58595B"/>
<path d="M4.45999 55.052L8.82599 62.429L8.82999 57.577L4.45999 55.052Z" fill="#3D3D3D"/>
<path d="M3.04099 56.778V61.034L7.21098 63.442L3.04099 56.778Z" fill="#3D3D3D"/>
<path d="M36.408 25.333L42.384 21.88V28.942L36.413 32.386L36.408 25.333Z" fill="#B5D4DE"/>
<path d="M42.574 21.806L42.569 29.087L42.574 29.091L42.569 29.097V29.101L42.567 29.097L36.235 32.741V32.229L36.413 32.126L42.196 28.79V21.761L42.574 21.552V21.806Z" fill="#6D6E71"/>
<path d="M42.752 29.249L36.235 33.005V25.186L36.404 25.085L36.413 32.126V32.386L42.384 28.942V21.624L42.54 21.534L42.76 21.661L42.752 29.249Z" fill="#58595B"/>
<path d="M42.76 21.661L42.384 21.88L36.408 25.333L36.235 25.186H36.233L36.235 25.185L42.384 21.624L42.54 21.534L42.76 21.661Z" fill="#58595B"/>
<path d="M40.775 22.81L36.411 30.183L36.408 25.333L40.775 22.81Z" fill="#3D3D3D"/>
<path d="M42.196 24.534V28.79L38.025 31.2L42.196 24.534Z" fill="#3D3D3D"/>
<path d="M30.111 28.974L36.086 25.521V32.585L30.113 36.026L30.111 28.974Z" fill="#B5D4DE"/>
<path d="M36.279 25.448L36.27 32.728L36.279 32.735L36.27 32.737V32.741H36.269L29.936 36.384V35.872L30.113 35.769L35.898 32.431V25.401L36.279 25.192V25.448Z" fill="#6D6E71"/>
<path d="M36.453 32.892L29.94 36.646L29.936 28.825L30.108 28.729L30.113 35.769V36.026L36.086 32.585V25.269L36.243 25.175L36.46 25.3L36.453 32.892Z" fill="#58595B"/>
<path d="M36.46 25.3L36.086 25.521L30.111 28.974L29.936 28.825H29.934H29.936L36.086 25.269L36.243 25.175L36.46 25.3Z" fill="#58595B"/>
<path d="M34.478 26.45L30.113 33.827L30.111 28.974L34.478 26.45Z" fill="#3D3D3D"/>
<path d="M35.898 28.177V32.431L31.729 34.843L35.898 28.177Z" fill="#3D3D3D"/>
<path d="M36.408 36.005L42.384 32.552V39.614L36.413 43.06L36.408 36.005Z" fill="#B5D4DE"/>
<path d="M42.574 32.479L42.569 39.759L42.574 39.765L42.569 39.769V39.772L42.567 39.771L36.235 43.411V42.901L36.413 42.802L42.196 39.462V32.431L42.574 32.224V32.479Z" fill="#6D6E71"/>
<path d="M42.752 39.921L36.235 43.679V35.86L36.404 35.761L36.413 42.802V43.06L42.384 39.614V32.298L42.54 32.206L42.76 32.333L42.752 39.921Z" fill="#58595B"/>
<path d="M42.76 32.333L42.384 32.552L36.408 36.005L36.235 35.86L36.233 35.858L36.235 35.856L42.384 32.298L42.54 32.206L42.76 32.333Z" fill="#58595B"/>
<path d="M40.775 33.483L36.411 40.856L36.408 36.005L40.775 33.483Z" fill="#3D3D3D"/>
<path d="M42.196 35.21V39.462L38.025 41.874L42.196 35.21Z" fill="#3D3D3D"/>
<path d="M30.111 39.647L36.086 36.194V43.257L30.113 46.7L30.111 39.647Z" fill="#B5D4DE"/>
<path d="M36.279 36.122L36.27 43.403L36.279 43.407L36.27 43.411H36.269L29.936 47.056V46.544L30.113 46.442L35.898 43.104V36.077L36.279 35.866V36.122Z" fill="#6D6E71"/>
<path d="M36.453 43.564L29.94 47.321L29.936 39.503L30.108 39.401L30.113 46.442V46.7L36.086 43.257V35.94L36.243 35.849L36.46 35.976L36.453 43.564Z" fill="#58595B"/>
<path d="M36.46 35.976L36.086 36.194L30.111 39.647L29.936 39.503L29.934 39.501H29.936L36.086 35.94L36.243 35.849L36.46 35.976Z" fill="#58595B"/>
<path d="M34.478 37.128L30.113 44.499L30.111 39.647L34.478 37.128Z" fill="#3D3D3D"/>
<path d="M35.898 38.853V43.104L31.729 45.515L35.898 38.853Z" fill="#3D3D3D"/>
<path d="M36.408 46.733L42.384 43.28V50.343L36.413 53.786L36.408 46.733Z" fill="#B5D4DE"/>
<path d="M42.574 43.206L42.569 50.487L42.574 50.493L42.569 50.497V50.501L42.567 50.497L36.235 54.142V53.63L36.413 53.528L42.196 50.19V43.161L42.574 42.952V43.206Z" fill="#6D6E71"/>
<path d="M42.752 50.649L36.235 54.405V46.587L36.404 46.487L36.413 53.528V53.786L42.384 50.343V43.026L42.54 42.936L42.76 43.061L42.752 50.649Z" fill="#58595B"/>
<path d="M42.76 43.061L42.384 43.28L36.408 46.733L36.235 46.587L36.233 46.585L36.235 46.583L42.384 43.026L42.54 42.936L42.76 43.061Z" fill="#58595B"/>
<path d="M40.775 44.208L36.411 51.585L36.408 46.733L40.775 44.208Z" fill="#3D3D3D"/>
<path d="M42.196 45.936V50.19L38.025 52.601L42.196 45.936Z" fill="#3D3D3D"/>
<path d="M30.111 50.376L36.086 46.923V53.985L30.113 57.431L30.111 50.376Z" fill="#B5D4DE"/>
<path d="M36.279 46.847L36.27 54.13L36.279 54.132L36.27 54.14V54.142L36.269 54.14L29.936 57.782V57.272L30.113 57.171L35.898 53.833V46.804L36.279 46.595V46.847Z" fill="#6D6E71"/>
<path d="M36.453 54.292L29.94 58.048L29.936 50.228L30.108 50.13L30.113 57.171V57.431L36.086 53.985V46.667L36.243 46.577L36.46 46.702L36.453 54.292Z" fill="#58595B"/>
<path d="M36.46 46.702L36.086 46.923L30.111 50.376L29.936 50.228H29.934H29.936L36.086 46.667L36.243 46.577L36.46 46.702Z" fill="#58595B"/>
<path d="M34.478 47.853L30.113 55.228L30.111 50.376L34.478 47.853Z" fill="#3D3D3D"/>
<path d="M35.898 49.577V53.833L31.729 56.245L35.898 49.577Z" fill="#3D3D3D"/>
<path d="M36.408 57.405L42.384 53.952V61.017L36.413 64.458L36.408 57.405Z" fill="#B5D4DE"/>
<path d="M42.574 53.88L42.569 61.161L42.574 61.163L42.569 61.171H42.567L36.235 64.814V64.302L36.413 64.2L42.196 60.864V53.833L42.574 53.624V53.88Z" fill="#6D6E71"/>
<path d="M42.752 61.323L36.235 65.075V57.259L36.404 57.161L36.413 64.2V64.458L42.384 61.017V53.7L42.54 53.606L42.76 53.735L42.752 61.323Z" fill="#58595B"/>
<path d="M42.76 53.735L42.384 53.952L36.408 57.405L36.235 57.259H36.233H36.235L42.384 53.7L42.54 53.606L42.76 53.735Z" fill="#58595B"/>
<path d="M40.775 54.884L36.411 62.259L36.408 57.405L40.775 54.884Z" fill="#3D3D3D"/>
<path d="M42.196 56.606V60.864L38.025 63.274L42.196 56.606Z" fill="#3D3D3D"/>
<path d="M30.111 61.048L36.086 57.593V64.657L30.113 68.103L30.111 61.048Z" fill="#B5D4DE"/>
<path d="M36.279 57.522L36.27 64.804L36.279 64.808L36.27 64.81V64.814L36.269 64.811L29.936 68.456V67.946L30.113 67.843L35.898 64.505V57.478L36.279 57.267V57.522Z" fill="#6D6E71"/>
<path d="M36.453 64.966L29.94 68.724L29.936 60.903L30.108 60.802L30.113 67.843V68.103L36.086 64.657V57.343L36.243 57.251L36.46 57.374L36.453 64.966Z" fill="#58595B"/>
<path d="M36.46 57.374L36.086 57.593L30.111 61.048L29.936 60.903L29.934 60.899H29.936L36.086 57.343L36.243 57.251L36.46 57.374Z" fill="#58595B"/>
<path d="M34.478 58.522L30.113 65.901L30.111 61.048L34.478 58.522Z" fill="#3D3D3D"/>
<path d="M35.898 60.253V64.505L31.729 66.915L35.898 60.253Z" fill="#3D3D3D"/>
<path d="M25.755 28.569L19.78 25.11V32.175L25.752 35.618L25.755 28.569Z" fill="#B5D4DE"/>
<path d="M19.588 25.036L19.592 32.321L19.588 32.325L19.592 32.327V32.333L19.597 32.329L25.929 35.974V35.464L25.752 35.36L19.967 32.024V24.991L19.588 24.786V25.036Z" fill="#6D6E71"/>
<path d="M19.414 32.483L25.926 36.239L25.929 28.421L25.759 28.319L25.752 35.36V35.618L19.78 32.175V24.86L19.622 24.769L19.405 24.894L19.414 32.483Z" fill="#58595B"/>
<path d="M19.405 24.894L19.78 25.11L25.755 28.569L25.929 28.421L25.93 28.417H25.929L19.78 24.86L19.622 24.769L19.405 24.894Z" fill="#58595B"/>
<path d="M21.387 26.042L25.752 33.419L25.755 28.569L21.387 26.042Z" fill="#3D3D3D"/>
<path d="M19.967 27.769V32.024L24.139 34.435L19.967 27.769Z" fill="#3D3D3D"/>
<path d="M25.755 39.173L19.78 35.72V42.78L25.752 46.224L25.755 39.173Z" fill="#B5D4DE"/>
<path d="M19.587 35.644L19.592 42.925L19.587 42.931L19.592 42.935V42.936H19.597L25.926 46.579V46.069L25.752 45.966L19.965 42.628V35.599L19.587 35.392V35.644Z" fill="#6D6E71"/>
<path d="M19.412 43.089L25.926 46.845V39.024L25.759 38.925L25.752 45.966V46.224L19.78 42.78V35.464L19.622 35.374L19.405 35.499L19.412 43.089Z" fill="#58595B"/>
<path d="M19.405 35.499L19.78 35.72L25.755 39.173L25.926 39.024L25.929 39.022L25.926 39.021L19.78 35.464L19.622 35.374L19.405 35.499Z" fill="#58595B"/>
<path d="M21.387 36.646L25.752 44.021L25.755 39.173L21.387 36.646Z" fill="#3D3D3D"/>
<path d="M19.965 38.374V42.628L24.135 45.04L19.965 38.374Z" fill="#3D3D3D"/>
<path d="M25.741 49.87L19.766 46.417V53.479L25.738 56.923L25.741 49.87Z" fill="#B5D4DE"/>
<path d="M19.575 46.343L19.582 53.624L19.575 53.626L19.582 53.634V53.636L19.583 53.634L25.916 57.278V56.767L25.738 56.665L19.953 53.327V46.298L19.575 46.087V46.343Z" fill="#6D6E71"/>
<path d="M19.4 53.786L25.914 57.542L25.916 49.722L25.748 49.624L25.738 56.665V56.923L19.766 53.479V46.163L19.608 46.071L19.39 46.198L19.4 53.786Z" fill="#58595B"/>
<path d="M19.39 46.198L19.766 46.417L25.741 49.87L25.916 49.722H25.918H25.916L19.766 46.163L19.608 46.071L19.39 46.198Z" fill="#58595B"/>
<path d="M21.373 47.347L25.738 54.722L25.741 49.87L21.373 47.347Z" fill="#3D3D3D"/>
<path d="M19.953 49.073V53.327L24.123 55.739L19.953 49.073Z" fill="#3D3D3D"/>
<path d="M25.741 60.544L19.766 57.089V64.151L25.738 67.597L25.741 60.544Z" fill="#B5D4DE"/>
<path d="M19.575 57.017L19.582 64.298L19.575 64.3L19.582 64.306V64.308L19.583 64.306L25.916 67.952V67.44L25.738 67.337L19.953 64.003V56.968L19.575 56.761V57.017Z" fill="#6D6E71"/>
<path d="M19.4 64.458L25.914 68.212L25.916 60.397L25.748 60.298L25.738 67.337V67.597L19.766 64.151V56.837L19.608 56.745L19.39 56.868L19.4 64.458Z" fill="#58595B"/>
<path d="M19.39 56.868L19.766 57.089L25.741 60.544L25.916 60.397L25.918 60.396H25.916L19.766 56.837L19.608 56.745L19.39 56.868Z" fill="#58595B"/>
<path d="M21.373 58.019L25.738 65.394L25.741 60.544L21.373 58.019Z" fill="#3D3D3D"/>
<path d="M19.953 59.745V64.003L24.123 66.411L19.953 59.745Z" fill="#3D3D3D"/>
</svg>
