<svg width="41" height="79" viewBox="0 0 41 79" fill="none" xmlns="http://www.w3.org/2000/svg">
<path d="M20.898 21.721L2.83701 11.229L2.81799 13.806L20.898 24.446V21.721Z" fill="#939598"/>
<path d="M38.991 11.239V13.966L20.898 24.451V21.726L38.991 11.239Z" fill="#939598"/>
<path d="M20.898 21.926L38.991 11.239L21.001 0.854004L2.83701 11.229L20.898 21.926Z" fill="#D5D8E6"/>
<path d="M34.942 11.249L33.308 12.214L20.9 19.546L8.41202 12.149L6.76501 11.178L20.892 3.164L34.942 11.249Z" fill="#6D6E71"/>
<path d="M33.308 12.214L20.9 19.546L8.41199 12.149L20.892 5.073L33.308 12.214Z" fill="#C0C7CE"/>
<path d="M2.81799 13.806L20.898 24.451V76.434L2.789 65.979L2.81799 13.806Z" fill="#D7E4E8"/>
<path d="M38.979 13.806L20.898 24.451V76.434L39.011 65.979L38.979 13.806Z" fill="#C0C7CE"/>
<path d="M20.906 28.912V36.549L18.91 37.691V30.058L20.906 28.912Z" fill="#D4CAB8"/>
<path d="M2.79399 18.455V26.089L0.799988 27.234V19.599L2.79399 18.455Z" fill="#D4CAB8"/>
<path d="M0.799988 19.602L18.91 30.058V37.691L0.799988 27.234V19.602Z" fill="#66A6C0"/>
<path d="M9.42499 25.857L4.98999 23.292V28.535L9.42099 31.092L9.42499 25.857Z" fill="#B5D4DE"/>
<path d="M4.84698 23.239L4.85098 28.643L4.84698 28.648L4.85098 28.65L9.55199 31.355V30.977L9.42099 30.901L5.12599 28.424V23.203L4.84698 23.048V23.239Z" fill="#6D6E71"/>
<path d="M4.71399 28.764L9.55199 31.554V25.747L9.42699 25.672L9.42099 30.901V31.092L4.98999 28.535V23.104L4.87299 23.035L4.70999 23.13L4.71399 28.764Z" fill="#58595B"/>
<path d="M4.70999 23.13L4.98999 23.292L9.42499 25.857L9.55199 25.747H9.55399L9.55199 25.745L4.98999 23.104L4.87299 23.035L4.70999 23.13Z" fill="#58595B"/>
<path d="M6.18298 23.982L9.42099 29.458L9.42499 25.857L6.18298 23.982Z" fill="#3D3D3D"/>
<path d="M5.12598 25.263V28.424L8.22597 30.214L5.12598 25.263Z" fill="#3D3D3D"/>
<path d="M14.101 28.561L9.66498 25.995V31.239L14.097 33.796L14.101 28.561Z" fill="#B5D4DE"/>
<path d="M9.52298 25.943L9.52899 31.35H9.52298L9.52899 31.354V31.355V31.354L14.23 34.063V33.682L14.097 33.605L9.80399 31.128V25.907L9.52298 25.752V25.943Z" fill="#6D6E71"/>
<path d="M9.39198 31.468L14.228 34.259L14.23 28.451L14.103 28.378L14.097 33.605V33.796L9.66498 31.239V25.81L9.54799 25.74L9.38599 25.834L9.39198 31.468Z" fill="#58595B"/>
<path d="M9.38599 25.834L9.66498 25.995L14.101 28.561L14.23 28.451H14.232H14.23L9.66498 25.81L9.54799 25.74L9.38599 25.834Z" fill="#58595B"/>
<path d="M10.857 26.686L14.097 32.162L14.101 28.561L10.857 26.686Z" fill="#3D3D3D"/>
<path d="M9.80399 27.967V31.128L12.9 32.917L9.80399 27.967Z" fill="#3D3D3D"/>
<path d="M20.898 31.197L20.906 28.912L2.79399 18.455L0.799988 19.602L20.898 31.197Z" fill="#88C2DB"/>
<path d="M20.912 41.13V48.767L18.915 49.908V42.275L20.912 41.13Z" fill="#D4CAB8"/>
<path d="M2.79997 30.674V38.306L0.805969 39.452V31.816L2.79997 30.674Z" fill="#D4CAB8"/>
<path d="M0.805969 31.82L18.915 42.275V49.908L0.805969 39.452V31.82Z" fill="#66A6C0"/>
<path d="M9.43097 38.076L4.99597 35.51V40.752L9.42697 43.311L9.43097 38.076Z" fill="#B5D4DE"/>
<path d="M4.85098 35.457L4.85498 40.861L4.85098 40.864L4.85498 40.868H4.85898L9.55998 43.573V43.194L9.42699 43.118L5.13399 40.642V35.421L4.85098 35.266V35.457Z" fill="#6D6E71"/>
<path d="M4.72198 40.984L9.55798 43.771L9.55998 37.964L9.43498 37.893L9.42699 43.118V43.311L4.99599 40.752V35.324L4.87799 35.254L4.71399 35.348L4.72198 40.984Z" fill="#58595B"/>
<path d="M4.71399 35.348L4.99599 35.51L9.43098 38.076L9.55998 37.964H9.56198H9.55998L4.99599 35.324L4.87799 35.254L4.71399 35.348Z" fill="#58595B"/>
<path d="M6.18698 36.2L9.42699 41.676L9.43098 38.076L6.18698 36.2Z" fill="#3D3D3D"/>
<path d="M5.13397 37.48V40.642L8.22997 42.43L5.13397 37.48Z" fill="#3D3D3D"/>
<path d="M14.109 40.779L9.67297 38.213V43.456L14.105 46.013L14.109 40.779Z" fill="#B5D4DE"/>
<path d="M9.52899 38.161L9.53299 43.566H9.52899L9.53299 43.57V43.573L9.53499 43.57L14.236 46.279V45.898L14.105 45.823L9.80998 43.346V38.126L9.52899 37.969V38.161Z" fill="#6D6E71"/>
<path d="M9.39597 43.685L14.234 46.476L14.236 40.668L14.109 40.596L14.105 45.823V46.013L9.67297 43.456V38.026L9.55397 37.96L9.39197 38.052L9.39597 43.685Z" fill="#58595B"/>
<path d="M9.39197 38.052L9.67297 38.213L14.109 40.779L14.236 40.668L9.67297 38.026L9.55397 37.96L9.39197 38.052Z" fill="#58595B"/>
<path d="M10.865 38.902L14.105 44.38L14.109 40.779L10.865 38.902Z" fill="#3D3D3D"/>
<path d="M9.80997 40.188V43.346L12.908 45.135L9.80997 40.188Z" fill="#3D3D3D"/>
<path d="M20.912 43.417V41.13L2.79997 30.674L0.805969 31.82L20.912 43.417Z" fill="#88C2DB"/>
<path d="M20.912 53.136V60.767L18.915 61.912V54.28L20.912 53.136Z" fill="#D4CAB8"/>
<path d="M2.79997 42.675V50.314L0.805969 51.452V43.82L2.79997 42.675Z" fill="#D4CAB8"/>
<path d="M0.805969 43.824L18.915 54.28V61.912L0.805969 51.458V43.824Z" fill="#66A6C0"/>
<path d="M9.43097 50.076L4.99597 47.514V52.759L9.42697 55.31L9.43097 50.076Z" fill="#B5D4DE"/>
<path d="M4.85098 47.458L4.85498 52.864L4.85098 52.869L4.85498 52.873H4.85898L9.55998 55.577V55.2L9.42699 55.125L5.13399 52.646V47.426L4.85098 47.269V47.458Z" fill="#6D6E71"/>
<path d="M4.72198 52.983L9.55798 55.77L9.55998 49.971L9.43498 49.895L9.42699 55.125V55.31L4.99599 52.759V47.322L4.87799 47.256L4.71399 47.349L4.72198 52.983Z" fill="#58595B"/>
<path d="M4.71399 47.349L4.99599 47.514L9.43098 50.076L9.55998 49.971H9.56198L9.55998 49.967L4.99599 47.322L4.87799 47.256L4.71399 47.349Z" fill="#58595B"/>
<path d="M6.18698 48.202L9.42699 53.681L9.43098 50.076L6.18698 48.202Z" fill="#3D3D3D"/>
<path d="M5.13397 49.486V52.646L8.22997 54.433L5.13397 49.486Z" fill="#3D3D3D"/>
<path d="M14.109 52.785L9.67297 50.218V55.463L14.105 58.019L14.109 52.785Z" fill="#B5D4DE"/>
<path d="M9.52899 50.16L9.53299 55.568L9.52899 55.573L9.53299 55.577H9.53499L14.236 58.281V57.904L14.105 57.827L9.80998 55.35V50.129L9.52899 49.975V50.16Z" fill="#6D6E71"/>
<path d="M9.39597 55.689L14.234 58.475L14.236 52.673L14.109 52.598L14.105 57.827V58.019L9.67297 55.463V50.028L9.55397 49.962L9.39197 50.055L9.39597 55.689Z" fill="#58595B"/>
<path d="M9.39197 50.055L9.67297 50.218L14.109 52.785L14.236 52.673V52.668L9.67297 50.028L9.55397 49.962L9.39197 50.055Z" fill="#58595B"/>
<path d="M10.865 50.906L14.105 56.385L14.109 52.785L10.865 50.906Z" fill="#3D3D3D"/>
<path d="M9.80997 52.189V55.35L12.908 57.139L9.80997 52.189Z" fill="#3D3D3D"/>
<path d="M20.91 55.416L20.912 53.136L2.79997 42.675L0.805969 43.824L20.91 55.416Z" fill="#88C2DB"/>
<path d="M18.902 30.055V37.685L20.898 38.83V31.197L18.902 30.055Z" fill="#66A6C0"/>
<path d="M37.015 19.595V27.23L39.005 28.371V20.74L37.015 19.595Z" fill="#D4CAB8"/>
<path d="M40.942 19.546L20.898 31.197V38.83L40.946 27.19L40.942 19.546Z" fill="#5F9AB4"/>
<path d="M30.382 26.995L34.819 24.431V29.677L30.386 32.233L30.382 26.995Z" fill="#B5D4DE"/>
<path d="M34.96 24.375L34.956 29.782L34.96 29.787L34.956 29.789V29.791H34.954L30.255 32.495V32.116L30.386 32.037L34.681 29.561V24.345L34.96 24.189V24.375Z" fill="#6D6E71"/>
<path d="M35.091 29.902L30.255 32.691V26.888L30.38 26.813L30.386 32.037V32.233L34.819 29.677V24.242L34.936 24.176L35.099 24.27L35.091 29.902Z" fill="#58595B"/>
<path d="M35.099 24.27L34.819 24.431L30.382 26.995L30.255 26.888L30.251 26.884H30.255L34.819 24.242L34.936 24.176L35.099 24.27Z" fill="#58595B"/>
<path d="M33.6239 25.121L30.384 30.598L30.382 26.995L33.6239 25.121Z" fill="#3D3D3D"/>
<path d="M34.681 26.404V29.561L31.581 31.352L34.681 26.404Z" fill="#3D3D3D"/>
<path d="M25.706 29.701L30.142 27.137V32.38L25.708 34.938L25.706 29.701Z" fill="#B5D4DE"/>
<path d="M30.286 27.079L30.278 32.485L30.286 32.49L30.278 32.495L25.579 35.201V34.821L25.708 34.746L30.005 32.268V27.049L30.286 26.893V27.079Z" fill="#6D6E71"/>
<path d="M30.415 32.606L25.581 35.398L25.579 29.592L25.7 29.518L25.708 34.746V34.938L30.142 32.38V26.946L30.259 26.879L30.421 26.973L30.415 32.606Z" fill="#58595B"/>
<path d="M30.421 26.973L30.142 27.137L25.706 29.701L25.579 29.592H25.575L25.579 29.59L30.142 26.946L30.259 26.879L30.421 26.973Z" fill="#58595B"/>
<path d="M28.948 27.824L25.708 33.304L25.706 29.701L28.948 27.824Z" fill="#3D3D3D"/>
<path d="M30.005 29.108V32.268L26.909 34.059L30.005 29.108Z" fill="#3D3D3D"/>
<path d="M20.898 31.197L20.906 28.912L38.987 18.419L40.942 19.546L20.898 31.197Z" fill="#72B6D1"/>
<path d="M18.915 42.273V49.908L20.912 51.054V43.417L18.915 42.273Z" fill="#66A6C0"/>
<path d="M37.028 31.816V39.449L39.019 40.594V32.956L37.028 31.816Z" fill="#D4CAB8"/>
<path d="M40.954 31.766L20.912 43.417V51.054L40.96 39.412L40.954 31.766Z" fill="#5F9AB4"/>
<path d="M30.394 39.217L34.833 36.649V41.895L30.397 44.45L30.394 39.217Z" fill="#B5D4DE"/>
<path d="M34.974 36.597L34.97 42.005H34.974L34.97 42.009V42.011V42.009L30.269 44.718V44.336L30.397 44.26L34.694 41.782V36.561L34.974 36.408V36.597Z" fill="#6D6E71"/>
<path d="M35.102 42.124L30.269 44.912V39.105L30.392 39.034L30.397 44.26V44.45L34.833 41.895V36.465L34.946 36.395L35.112 36.49L35.102 42.124Z" fill="#58595B"/>
<path d="M35.112 36.49L34.833 36.649L30.394 39.217L30.269 39.105H30.265H30.269L34.833 36.465L34.946 36.395L35.112 36.49Z" fill="#58595B"/>
<path d="M33.638 37.343L30.397 42.816L30.394 39.217L33.638 37.343Z" fill="#3D3D3D"/>
<path d="M34.694 38.621V41.782L31.595 43.57L34.694 38.621Z" fill="#3D3D3D"/>
<path d="M25.718 41.921L30.155 39.354V44.598L25.722 47.154L25.718 41.921Z" fill="#B5D4DE"/>
<path d="M30.298 39.301L30.292 44.709L30.298 44.71L30.292 44.713V44.718V44.715L25.591 47.422V47.038L25.722 46.963L30.017 44.485V39.269L30.298 39.11V39.301Z" fill="#6D6E71"/>
<path d="M30.427 44.828L25.593 47.615L25.591 41.809L25.716 41.738L25.722 46.963V47.154L30.155 44.598V39.169L30.274 39.102L30.435 39.194L30.427 44.828Z" fill="#58595B"/>
<path d="M30.435 39.194L30.155 39.354L25.718 41.921L25.591 41.809H25.589H25.591L30.155 39.169L30.274 39.102L30.435 39.194Z" fill="#58595B"/>
<path d="M28.962 40.047L25.722 45.52L25.718 41.921L28.962 40.047Z" fill="#3D3D3D"/>
<path d="M30.017 41.33V44.485L26.921 46.274L30.017 41.33Z" fill="#3D3D3D"/>
<path d="M20.912 43.417V41.13L38.997 30.636L40.954 31.766L20.912 43.417Z" fill="#72B6D1"/>
<path d="M18.915 54.275V61.908L20.91 63.053V55.416L18.915 54.275Z" fill="#66A6C0"/>
<path d="M37.028 43.816V51.452L39.019 52.594V44.96L37.028 43.816Z" fill="#D4CAB8"/>
<path d="M40.954 43.768L20.91 55.416V63.053L40.96 51.413L40.954 43.768Z" fill="#5F9AB4"/>
<path d="M30.394 51.218L34.833 48.652V53.895L30.397 56.451L30.394 51.218Z" fill="#B5D4DE"/>
<path d="M34.974 48.599L34.97 54.006H34.974L34.97 54.009V54.014H34.966L30.265 56.718V56.337L30.397 56.261L34.692 53.783V48.564L34.974 48.407V48.599Z" fill="#6D6E71"/>
<path d="M35.102 54.126L30.269 56.913L30.265 51.111L30.392 51.035L30.397 56.261V56.451L34.833 53.895V48.464L34.946 48.399L35.112 48.491L35.102 54.126Z" fill="#58595B"/>
<path d="M35.112 48.491L34.833 48.652L30.394 51.218L30.265 51.111V51.106L34.833 48.464L34.946 48.399L35.112 48.491Z" fill="#58595B"/>
<path d="M33.638 49.344L30.397 54.818L30.394 51.218L33.638 49.344Z" fill="#3D3D3D"/>
<path d="M34.692 50.629V53.783L31.595 55.573L34.692 50.629Z" fill="#3D3D3D"/>
<path d="M25.718 53.921L30.155 51.36V56.602L25.722 59.159L25.718 53.921Z" fill="#B5D4DE"/>
<path d="M30.296 51.303L30.292 56.709L30.296 56.713H30.292V56.718H30.29L25.591 59.422V59.045L25.722 58.965L30.017 56.492V51.27L30.296 51.116V51.303Z" fill="#6D6E71"/>
<path d="M30.427 56.83L25.591 59.618V53.811L25.716 53.74L25.722 58.965V59.159L30.155 56.602V51.168L30.274 51.102L30.435 51.195L30.427 56.83Z" fill="#58595B"/>
<path d="M30.435 51.195L30.155 51.36L25.718 53.921L25.591 53.811H25.589H25.591L30.155 51.168L30.274 51.102L30.435 51.195Z" fill="#58595B"/>
<path d="M28.962 52.049L25.722 57.523L25.718 53.921L28.962 52.049Z" fill="#3D3D3D"/>
<path d="M30.017 53.33V56.492L26.917 58.276L30.017 53.33Z" fill="#3D3D3D"/>
<path d="M20.91 55.416L20.912 53.136L38.997 42.637L40.954 43.768L20.91 55.416Z" fill="#72B6D1"/>
<path d="M20.906 65.232V72.864L18.91 74.009V66.378L20.906 65.232Z" fill="#5F9AB4"/>
<path d="M0.799988 55.923L18.91 66.378V74.009L0.799988 63.555V55.923Z" fill="#66A6C0"/>
<path d="M18.91 66.378L20.906 65.232L2.79399 54.774L0.799988 55.923L18.91 66.378Z" fill="#88C2DB"/>
<path d="M9.42499 62.178L4.98999 59.613V64.856L9.42099 67.412L9.42499 62.178Z" fill="#B5D4DE"/>
<path d="M4.84698 59.555L4.85098 64.962L4.84698 64.966L4.85098 64.972H4.85298L9.55399 67.675V67.297L9.42099 67.219L5.12599 64.744V59.523L4.84698 59.369V59.555Z" fill="#6D6E71"/>
<path d="M4.71399 65.082L9.55199 67.873L9.55399 62.067L9.42699 61.991L9.42099 67.219V67.412L4.98999 64.856V59.422L4.87299 59.355L4.70999 59.448L4.71399 65.082Z" fill="#58595B"/>
<path d="M4.70999 59.448L4.98999 59.613L9.42499 62.178L9.55399 62.067L4.98999 59.422L4.87299 59.355L4.70999 59.448Z" fill="#58595B"/>
<path d="M6.18298 60.301L9.42299 65.778L9.42499 62.178L6.18298 60.301Z" fill="#3D3D3D"/>
<path d="M5.12598 61.583V64.744L8.22597 66.534L5.12598 61.583Z" fill="#3D3D3D"/>
<path d="M14.101 64.883L9.66498 62.315V67.56L14.097 70.116L14.101 64.883Z" fill="#B5D4DE"/>
<path d="M9.52298 62.263L9.52899 67.665L9.52298 67.67L9.52899 67.675H9.53099L14.23 70.379V70.001L14.097 69.926L9.80399 67.448V62.227L9.52298 62.072V62.263Z" fill="#6D6E71"/>
<path d="M9.39198 67.79L14.228 70.577L14.23 64.77L14.105 64.695L14.097 69.926V70.116L9.66498 67.56V62.13L9.54799 62.06L9.38599 62.152L9.39198 67.79Z" fill="#58595B"/>
<path d="M9.38599 62.152L9.66498 62.315L14.101 64.883L14.23 64.77H14.232L14.23 64.767L9.66498 62.13L9.54799 62.06L9.38599 62.152Z" fill="#58595B"/>
<path d="M10.857 63.004L14.097 68.482L14.101 64.883L10.857 63.004Z" fill="#3D3D3D"/>
<path d="M9.80399 64.287V67.448L12.9 69.237L9.80399 64.287Z" fill="#3D3D3D"/>
<path d="M2.81799 65.619L20.898 76.266V78.973L2.789 68.517L2.81799 65.619Z" fill="#6D6E71"/>
<path d="M39.011 65.598L20.898 76.266V78.973L26.382 75.815L26.378 74.352L34.411 69.708V71.173L39.005 68.517L39.011 65.598Z" fill="#6D6E71"/>
<path d="M26.378 74.605V62.423L33.526 58.294L33.532 70.677L33.101 70.929L32.936 70.832L26.378 74.605Z" fill="#939598"/>
<path d="M26.378 62.423L32.935 58.637L32.936 70.832L26.378 74.605V62.423Z" fill="#D1D3D4"/>
<path d="M33.101 70.929L33.102 58.538L32.931 58.641L32.929 70.827L33.101 70.929Z" fill="#58595B"/>
<path d="M31.71 66.315C31.71 66.525 31.851 66.61 32.022 66.503C32.194 66.401 32.335 66.147 32.335 65.939C32.335 65.729 32.194 65.646 32.022 65.752C31.851 65.859 31.71 66.111 31.71 66.315Z" fill="#58595B"/>
<path d="M31.755 66.347C31.755 66.556 31.892 66.641 32.066 66.535C32.238 66.431 32.375 66.175 32.375 65.967C32.375 65.762 32.238 65.678 32.066 65.779C31.892 65.886 31.755 66.138 31.755 66.347Z" fill="#6D6E71"/>
<path d="M34.433 57.77L34.411 71.173L33.532 70.677L33.53 58.291L34.433 57.77Z" fill="#5B626C"/>
<path d="M34.974 58.795V60.474L38.368 58.404V56.723L34.974 58.795Z" fill="#E6E7E8"/>
<path d="M38.368 58.404L34.974 60.474V59.909L38.368 57.84V58.404Z" fill="#6D6E71"/>
<path d="M37.903 57.006V58.12L38.368 58.404V56.723L37.903 57.006Z" fill="#58595B"/>
<path d="M34.974 61.421V63.099L38.368 61.028V59.352L34.974 61.421Z" fill="#E6E7E8"/>
<path d="M38.368 61.028L34.974 63.099V62.538L38.368 60.469V61.028Z" fill="#6D6E71"/>
<path d="M37.903 59.635V60.749L38.368 61.028V59.352L37.903 59.635Z" fill="#58595B"/>
</svg>
