<svg width="72" height="98" viewBox="0 0 72 98" fill="none" xmlns="http://www.w3.org/2000/svg">
<path d="M0.469971 12.009L19.991 23.278V76.306L0.469971 65.001V12.009Z" fill="#AFADAD"/>
<path d="M35.506 32.356L55.025 43.632V97.539L35.506 86.234V32.356Z" fill="#AFADAD"/>
<path d="M71.29 34.243V88.148L55.025 97.539V43.632L71.29 34.243Z" fill="#AFADAD"/>
<path d="M35.506 32.356L55.025 43.632V93.137L35.506 81.831V32.356Z" fill="#D7E4E8"/>
<path d="M71.29 34.243V83.745L55.025 93.137V43.632L71.29 34.243Z" fill="#B5C2CE"/>
<path d="M63.575 43.718L69.192 40.47V47.11L63.577 50.347L63.575 43.718Z" fill="#B5D4DE"/>
<path d="M69.375 40.399L69.368 47.247L69.375 47.253L69.368 47.259H69.366L63.41 50.685V50.202L63.577 50.108L69.015 46.968V40.36L69.375 40.161V40.399Z" fill="#6D6E71"/>
<path d="M69.538 47.399L63.413 50.933L63.41 43.579L63.568 43.489L63.577 50.108V50.347L69.192 47.11V40.231L69.341 40.147L69.548 40.265L69.538 47.399Z" fill="#58595B"/>
<path d="M69.548 40.265L69.192 40.47L63.575 43.718L63.41 43.579L63.409 43.577H63.41L69.192 40.231L69.341 40.147L69.548 40.265Z" fill="#58595B"/>
<path d="M67.683 41.345L63.575 48.278V43.718L67.683 41.345Z" fill="#3D3D3D"/>
<path d="M69.015 42.966V46.968L65.0959 49.235L69.015 42.966Z" fill="#3D3D3D"/>
<path d="M57.651 47.146L63.27 43.892V50.536L57.655 53.772L57.651 47.146Z" fill="#B5D4DE"/>
<path d="M63.452 43.825L63.444 50.673L63.452 50.679L63.444 50.683H63.442L57.488 54.108V53.628L57.655 53.53L63.096 50.394V43.782L63.452 43.585V43.825Z" fill="#6D6E71"/>
<path d="M63.615 50.823L57.49 54.358L57.488 47.003L57.649 46.913L57.655 53.53V53.772L63.27 50.536V43.659L63.418 43.571L63.622 43.689L63.615 50.823Z" fill="#58595B"/>
<path d="M63.622 43.689L63.27 43.892L57.651 47.146L57.488 47.003H57.486H57.488L63.27 43.659L63.418 43.571L63.622 43.689Z" fill="#58595B"/>
<path d="M61.757 44.771L57.653 51.706L57.651 47.146L61.757 44.771Z" fill="#3D3D3D"/>
<path d="M63.096 46.394V50.394L59.172 52.661L63.096 46.394Z" fill="#3D3D3D"/>
<path d="M63.575 53.753L69.192 50.507V57.147L63.577 60.386L63.575 53.753Z" fill="#B5D4DE"/>
<path d="M69.375 50.436L69.368 57.284L69.375 57.288L69.368 57.292H69.366L63.41 60.718V60.237L63.577 60.144L69.015 57.007V50.394L69.375 50.196V50.436Z" fill="#6D6E71"/>
<path d="M69.538 57.433L63.413 60.968L63.41 53.614L63.568 53.524L63.577 60.144V60.386L69.192 57.147V50.267L69.341 50.183L69.548 50.3L69.538 57.433Z" fill="#58595B"/>
<path d="M69.548 50.3L69.192 50.507L63.575 53.753L63.41 53.614L63.409 53.612H63.41L69.192 50.267L69.341 50.183L69.548 50.3Z" fill="#58595B"/>
<path d="M67.683 51.378L63.575 58.315V53.753L67.683 51.378Z" fill="#3D3D3D"/>
<path d="M69.015 53.005V57.007L65.0959 59.271L69.015 53.005Z" fill="#3D3D3D"/>
<path d="M57.651 57.181L63.27 53.929V60.573L57.655 63.811L57.651 57.181Z" fill="#B5D4DE"/>
<path d="M63.452 53.862L63.444 60.71L63.452 60.714L63.444 60.718H63.442L57.488 64.144V63.663L57.655 63.569L63.096 60.429V53.819L63.452 53.622V53.862Z" fill="#6D6E71"/>
<path d="M63.615 60.858L57.49 64.394L57.488 57.038L57.649 56.948L57.655 63.569V63.811L63.27 60.573V53.692L63.418 53.608L63.622 53.726L63.615 60.858Z" fill="#58595B"/>
<path d="M63.622 53.726L63.27 53.929L57.651 57.181L57.488 57.038H57.486H57.488L63.27 53.692L63.418 53.608L63.622 53.726Z" fill="#58595B"/>
<path d="M61.757 54.806L57.653 61.741L57.651 57.181L61.757 54.806Z" fill="#3D3D3D"/>
<path d="M63.096 56.429V60.429L59.172 62.698L63.096 56.429Z" fill="#3D3D3D"/>
<path d="M63.575 63.843L69.192 60.595V67.233L63.577 70.472L63.575 63.843Z" fill="#B5D4DE"/>
<path d="M69.375 60.526L69.368 67.372L69.375 67.376L69.368 67.382H69.366L63.41 70.808V70.327L63.577 70.231L69.015 67.095V60.485L69.375 60.284V60.526Z" fill="#6D6E71"/>
<path d="M69.538 67.522L63.413 71.056L63.41 63.702L63.568 63.612L63.577 70.231V70.472L69.192 67.233V60.354L69.341 60.271L69.548 60.388L69.538 67.522Z" fill="#58595B"/>
<path d="M69.548 60.388L69.192 60.595L63.575 63.843L63.41 63.702L63.409 63.7H63.41L69.192 60.354L69.341 60.271L69.548 60.388Z" fill="#58595B"/>
<path d="M67.683 61.468L63.575 68.403V63.843L67.683 61.468Z" fill="#3D3D3D"/>
<path d="M69.015 63.089V67.095L65.0959 69.358L69.015 63.089Z" fill="#3D3D3D"/>
<path d="M57.651 67.267L63.27 64.017V70.661L57.655 73.899L57.651 67.267Z" fill="#B5D4DE"/>
<path d="M63.452 63.95L63.444 70.798L63.452 70.804L63.444 70.808H63.442L57.488 74.229V73.751L57.655 73.655L63.096 70.521V63.907L63.452 63.71V63.95Z" fill="#6D6E71"/>
<path d="M63.615 70.948L57.49 74.481L57.488 67.128L57.649 67.034L57.655 73.655V73.899L63.27 70.661V63.782L63.418 63.696L63.622 63.814L63.615 70.948Z" fill="#58595B"/>
<path d="M63.622 63.814L63.27 64.017L57.651 67.267L57.488 67.128H57.486H57.488L63.27 63.782L63.418 63.696L63.622 63.814Z" fill="#58595B"/>
<path d="M61.757 64.894L57.653 71.829L57.651 67.267L61.757 64.894Z" fill="#3D3D3D"/>
<path d="M63.096 66.517V70.521L59.172 72.786L63.096 66.517Z" fill="#3D3D3D"/>
<path d="M63.575 73.88L69.192 70.63V77.272L63.577 80.511L63.575 73.88Z" fill="#B5D4DE"/>
<path d="M69.375 70.561L69.368 77.409L69.375 77.415L69.368 77.419H69.366L63.41 80.843V80.362L63.577 80.269L69.015 77.13V70.521L69.375 70.321V70.561Z" fill="#6D6E71"/>
<path d="M69.538 77.558L63.413 81.093L63.41 73.741L63.568 73.649L63.577 80.269V80.511L69.192 77.272V70.392L69.341 70.308L69.548 70.423L69.538 77.558Z" fill="#58595B"/>
<path d="M69.548 70.423L69.192 70.63L63.575 73.88L63.41 73.741L63.409 73.737H63.41L69.192 70.392L69.341 70.308L69.548 70.423Z" fill="#58595B"/>
<path d="M67.683 71.505L63.575 78.44V73.88L67.683 71.505Z" fill="#3D3D3D"/>
<path d="M69.015 73.128V77.13L65.0959 79.396L69.015 73.128Z" fill="#3D3D3D"/>
<path d="M57.651 77.306L63.27 74.056V80.696L57.655 83.935L57.651 77.306Z" fill="#B5D4DE"/>
<path d="M63.452 73.987L63.444 80.833L63.452 80.835L63.444 80.843H63.442L57.488 84.269V83.79L57.655 83.692L63.096 80.556V73.944L63.452 73.745V73.987Z" fill="#6D6E71"/>
<path d="M63.615 80.983L57.49 84.519L57.488 77.165L57.649 77.071L57.655 83.692V83.935L63.27 80.696V73.817L63.418 73.733L63.622 73.851L63.615 80.983Z" fill="#58595B"/>
<path d="M63.622 73.851L63.27 74.056L57.651 77.306L57.488 77.165H57.486H57.488L63.27 73.817L63.418 73.733L63.622 73.851Z" fill="#58595B"/>
<path d="M61.757 74.929L57.653 81.866L57.651 77.306L61.757 74.929Z" fill="#3D3D3D"/>
<path d="M63.096 76.554V80.556L59.172 82.821L63.096 76.554Z" fill="#3D3D3D"/>
<path d="M53.556 46.759L47.938 43.511V50.151L53.552 53.39L53.556 46.759Z" fill="#B5D4DE"/>
<path d="M47.757 43.44L47.764 50.288L47.757 50.292L47.764 50.296V50.3L47.767 50.298L53.72 53.724V53.243L53.552 53.147L48.112 50.009V43.397L47.757 43.202V43.44Z" fill="#6D6E71"/>
<path d="M47.591 50.44L53.716 53.974L53.72 46.62L53.559 46.526L53.552 53.147V53.39L47.938 50.151V43.271L47.789 43.185L47.584 43.304L47.591 50.44Z" fill="#58595B"/>
<path d="M47.584 43.304L47.938 43.511L53.556 46.759L53.72 46.62V46.618L47.938 43.271L47.789 43.185L47.584 43.304Z" fill="#58595B"/>
<path d="M49.448 44.384L53.553 51.321L53.556 46.759L49.448 44.384Z" fill="#3D3D3D"/>
<path d="M48.112 46.007V50.009L52.036 52.274L48.112 46.007Z" fill="#3D3D3D"/>
<path d="M53.556 56.733L47.936 53.483V60.124L53.552 63.36L53.556 56.733Z" fill="#B5D4DE"/>
<path d="M47.757 53.411L47.764 60.261L47.757 60.265L47.764 60.271H47.765L53.716 63.696V63.216L53.552 63.122L48.112 59.981V53.368L47.757 53.175V53.411Z" fill="#6D6E71"/>
<path d="M47.591 60.413L53.716 63.948V56.595L53.559 56.497L53.552 63.122V63.36L47.936 60.124V53.245L47.789 53.157L47.584 53.278L47.591 60.413Z" fill="#58595B"/>
<path d="M47.584 53.278L47.936 53.483L53.556 56.733L53.716 56.595L53.72 56.593H53.716L47.936 53.245L47.789 53.157L47.584 53.278Z" fill="#58595B"/>
<path d="M49.448 54.358L53.553 61.292L53.556 56.733L49.448 54.358Z" fill="#3D3D3D"/>
<path d="M48.112 55.979V59.981L52.036 62.247L48.112 55.979Z" fill="#3D3D3D"/>
<path d="M53.544 66.792L47.927 63.54V70.186L53.541 73.423L53.544 66.792Z" fill="#B5D4DE"/>
<path d="M47.744 63.476L47.751 70.321L47.744 70.327L47.751 70.331H47.753L53.708 73.755V73.274L53.541 73.181L48.1 70.044V63.433L47.744 63.235V63.476Z" fill="#6D6E71"/>
<path d="M47.581 70.472L53.706 74.007L53.708 66.653L53.548 66.558L53.541 73.181V73.423L47.927 70.186V63.308L47.776 63.222L47.571 63.337L47.581 70.472Z" fill="#58595B"/>
<path d="M47.571 63.337L47.927 63.54L53.544 66.792L53.708 66.653V66.651L47.927 63.308L47.776 63.222L47.571 63.337Z" fill="#58595B"/>
<path d="M49.438 64.419L53.541 71.353L53.544 66.792L49.438 64.419Z" fill="#3D3D3D"/>
<path d="M48.1 66.04V70.044L52.022 72.31L48.1 66.04Z" fill="#3D3D3D"/>
<path d="M53.544 76.831L47.927 73.579V80.222L53.541 83.458L53.544 76.831Z" fill="#B5D4DE"/>
<path d="M47.744 73.513L47.751 80.356L47.744 80.36L47.751 80.368H47.753L53.708 83.792V83.311L53.541 83.218L48.1 80.079V73.47L47.744 73.271V73.513Z" fill="#6D6E71"/>
<path d="M47.581 80.511L53.706 84.042L53.708 76.69L53.548 76.599L53.541 83.218V83.458L47.927 80.222V73.341L47.776 73.255L47.571 73.376L47.581 80.511Z" fill="#58595B"/>
<path d="M47.571 73.376L47.927 73.579L53.544 76.831L53.708 76.69V76.689L47.927 73.341L47.776 73.255L47.571 73.376Z" fill="#58595B"/>
<path d="M49.438 74.456L53.541 81.39L53.544 76.831L49.438 74.456Z" fill="#3D3D3D"/>
<path d="M48.1 76.077V80.079L52.022 82.347L48.1 76.077Z" fill="#3D3D3D"/>
<path d="M0.469971 12.009L19.991 23.278V72.784L0.469971 61.478V12.009Z" fill="#D7E4E8"/>
<path d="M10.066 21.905L4.44897 18.659V25.298L10.063 28.536L10.066 21.905Z" fill="#B5D4DE"/>
<path d="M4.26797 18.591L4.27197 25.435L4.26797 25.439L4.27197 25.444H4.27496L10.23 28.87V28.39L10.063 28.296L4.62097 25.157V18.548L4.26797 18.349V18.591Z" fill="#6D6E71"/>
<path d="M4.10197 25.591L10.227 29.12L10.23 21.767L10.072 21.673L10.063 28.296V28.536L4.44897 25.298V18.421L4.30096 18.335L4.09497 18.454L4.10197 25.591Z" fill="#58595B"/>
<path d="M4.09497 18.454L4.44897 18.659L10.066 21.905L10.23 21.767H10.233H10.23L4.44897 18.421L4.30096 18.335L4.09497 18.454Z" fill="#58595B"/>
<path d="M5.96097 19.532L10.064 26.468L10.066 21.905L5.96097 19.532Z" fill="#3D3D3D"/>
<path d="M4.62097 21.159V25.157L8.54597 27.425L4.62097 21.159Z" fill="#3D3D3D"/>
<path d="M10.066 31.878L4.44897 28.63V35.272L10.063 38.513L10.066 31.878Z" fill="#B5D4DE"/>
<path d="M4.26599 28.56L4.27199 35.413H4.26599L4.27199 35.417V35.421H4.27498L10.227 38.845V38.364L10.063 38.267L4.62099 35.128V28.517L4.26599 28.325V28.56Z" fill="#6D6E71"/>
<path d="M4.10197 35.561L10.227 39.093V31.739L10.068 31.647L10.063 38.267V38.513L4.44897 35.272V28.39L4.29897 28.306L4.09497 28.427L4.10197 35.561Z" fill="#58595B"/>
<path d="M4.09497 28.427L4.44897 28.63L10.066 31.878L10.227 31.739H10.23L10.227 31.735L4.44897 28.39L4.29897 28.306L4.09497 28.427Z" fill="#58595B"/>
<path d="M5.96097 29.503L10.063 36.439L10.066 31.878L5.96097 29.503Z" fill="#3D3D3D"/>
<path d="M4.62097 31.128V35.128L8.54497 37.396L4.62097 31.128Z" fill="#3D3D3D"/>
<path d="M10.055 41.942L4.43597 38.69V45.333L10.053 48.571L10.055 41.942Z" fill="#B5D4DE"/>
<path d="M4.25696 38.62L4.26195 45.47L4.25696 45.474L4.26195 45.476V45.479H4.26295L10.2169 48.905V48.425L10.0529 48.331L4.61296 45.189V38.579L4.25696 38.384V38.62Z" fill="#6D6E71"/>
<path d="M4.09195 45.622L10.216 49.153L10.2169 41.802L10.06 41.708L10.0529 48.331V48.571L4.43596 45.333V38.454L4.28795 38.368L4.08295 38.487L4.09195 45.622Z" fill="#58595B"/>
<path d="M4.08295 38.487L4.43596 38.69L10.0549 41.942L10.2169 41.802H10.2189H10.2169L4.43596 38.454L4.28795 38.368L4.08295 38.487Z" fill="#58595B"/>
<path d="M5.94897 39.567L10.053 46.501L10.055 41.942L5.94897 39.567Z" fill="#3D3D3D"/>
<path d="M4.61298 41.189V45.189L8.53297 47.454L4.61298 41.189Z" fill="#3D3D3D"/>
<path d="M10.055 51.976L4.43597 48.726V55.37L10.053 58.608L10.055 51.976Z" fill="#B5D4DE"/>
<path d="M4.25696 48.659L4.26195 55.509H4.25696L4.26195 55.513V55.517L4.26295 55.513L10.2169 58.942V58.46L10.0529 58.364L4.61296 55.228V48.616L4.25696 48.423V48.659Z" fill="#6D6E71"/>
<path d="M4.09195 55.657L10.216 59.19L10.2169 51.837L10.06 51.743L10.0529 58.364V58.608L4.43596 55.37V48.489L4.28795 48.403L4.08295 48.521L4.09195 55.657Z" fill="#58595B"/>
<path d="M4.08295 48.521L4.43596 48.726L10.0549 51.976L10.2169 51.837H10.2189H10.2169L4.43596 48.489L4.28795 48.403L4.08295 48.521Z" fill="#58595B"/>
<path d="M5.94897 49.603L10.053 56.538L10.055 51.976L5.94897 49.603Z" fill="#3D3D3D"/>
<path d="M4.61298 51.224V55.228L8.53297 57.491L4.61298 51.224Z" fill="#3D3D3D"/>
<path d="M46.36 38.628V92.531L40.425 95.955L40.411 42.06L46.36 38.628Z" fill="#AFADAD"/>
<path d="M40.425 95.955L40.411 42.06L8.22699 23.468V77.366L40.425 95.955Z" fill="#AFADAD"/>
<path d="M40.425 91.551L40.411 42.06L8.22699 23.468V72.966L40.425 91.551Z" fill="#F1F2F2"/>
<path d="M46.36 38.628V88.125L40.425 91.551L40.411 42.06L46.36 38.628Z" fill="#B5C2CE"/>
<path d="M37.658 43.864L32.041 40.618V47.259L37.653 50.497L37.658 43.864Z" fill="#B5D4DE"/>
<path d="M31.8589 40.548L31.865 47.396L31.8589 47.399L31.865 47.403V47.407L31.867 47.405L37.821 50.831V50.351L37.653 50.253L32.2169 47.114V40.503L31.8589 40.308V40.548Z" fill="#6D6E71"/>
<path d="M31.695 47.546L37.819 51.079L37.821 43.728L37.663 43.634L37.653 50.253V50.497L32.041 47.259V40.376L31.891 40.294L31.686 40.409L31.695 47.546Z" fill="#58595B"/>
<path d="M31.686 40.409L32.041 40.618L37.658 43.864L37.821 43.728H37.823L37.821 43.722L32.041 40.376L31.891 40.294L31.686 40.409Z" fill="#58595B"/>
<path d="M33.552 41.491L37.657 48.427L37.658 43.864L33.552 41.491Z" fill="#3D3D3D"/>
<path d="M32.217 43.114V47.114L36.136 49.382L32.217 43.114Z" fill="#3D3D3D"/>
<path d="M37.657 53.839L32.041 50.589V57.233L37.653 60.47L37.657 53.839Z" fill="#B5D4DE"/>
<path d="M31.8589 50.519L31.863 57.368L31.8589 57.372L31.863 57.376V57.378H31.865L37.821 60.804V60.323L37.653 60.228L32.212 57.091V50.478L31.8589 50.28V50.519Z" fill="#6D6E71"/>
<path d="M31.693 57.519L37.817 61.05L37.821 53.7L37.663 53.604L37.653 60.228V60.47L32.041 57.233V50.351L31.891 50.265L31.686 50.386L31.693 57.519Z" fill="#58595B"/>
<path d="M31.686 50.386L32.041 50.589L37.657 53.839L37.821 53.7L32.041 50.351L31.891 50.265L31.686 50.386Z" fill="#58595B"/>
<path d="M33.551 51.464L37.655 58.401L37.657 53.839L33.551 51.464Z" fill="#3D3D3D"/>
<path d="M32.212 53.087V57.091L36.136 59.354L32.212 53.087Z" fill="#3D3D3D"/>
<path d="M37.647 63.899L32.027 60.647V67.292L37.644 70.528L37.647 63.899Z" fill="#B5D4DE"/>
<path d="M31.847 60.583L31.854 67.427L31.847 67.433L31.854 67.439L37.81 70.864V70.384L37.644 70.284L32.203 67.149V60.54L31.847 60.343V60.583Z" fill="#6D6E71"/>
<path d="M31.68 67.579L37.804 71.114L37.81 63.759L37.651 63.665L37.644 70.284V70.528L32.027 67.292V60.413L31.88 60.327L31.675 60.444L31.68 67.579Z" fill="#58595B"/>
<path d="M31.675 60.444L32.027 60.647L37.647 63.899L37.81 63.759H37.811H37.81L32.027 60.413L31.88 60.327L31.675 60.444Z" fill="#58595B"/>
<path d="M33.539 61.526L37.644 68.46L37.647 63.899L33.539 61.526Z" fill="#3D3D3D"/>
<path d="M32.203 63.147V67.149L36.125 69.415L32.203 63.147Z" fill="#3D3D3D"/>
<path d="M37.642 74.04L32.021 70.788V77.433L37.634 80.669L37.642 74.04Z" fill="#B5D4DE"/>
<path d="M31.841 70.722L31.847 77.567L31.841 77.571L31.847 77.577H31.85L37.802 81.003V80.524L37.634 80.431L32.197 77.29V70.679L31.841 70.481V70.722Z" fill="#6D6E71"/>
<path d="M31.675 77.722L37.8 81.253L37.802 73.901L37.644 73.81L37.634 80.431V80.669L32.021 77.433V70.552L31.873 70.468L31.668 70.585L31.675 77.722Z" fill="#58595B"/>
<path d="M31.668 70.585L32.021 70.788L37.642 74.04L37.802 73.901L37.803 73.899H37.802L32.021 70.552L31.873 70.468L31.668 70.585Z" fill="#58595B"/>
<path d="M33.531 71.663L37.636 78.601L37.642 74.04L33.531 71.663Z" fill="#3D3D3D"/>
<path d="M32.197 73.288V77.29L36.117 79.558L32.197 73.288Z" fill="#3D3D3D"/>
<path d="M26.9429 37.683L21.322 34.435V41.075L26.938 44.311L26.9429 37.683Z" fill="#B5D4DE"/>
<path d="M21.144 34.364L21.148 41.21L21.144 41.214L21.148 41.222H21.15L27.104 44.646V44.165L26.938 44.067L21.498 40.935V34.323L21.144 34.124V34.364Z" fill="#6D6E71"/>
<path d="M20.977 41.362L27.102 44.894L27.104 37.542L26.945 37.452L26.938 44.067V44.311L21.322 41.075V34.196L21.174 34.11L20.969 34.229L20.977 41.362Z" fill="#58595B"/>
<path d="M20.969 34.229L21.322 34.435L26.943 37.683L27.104 37.542H27.105H27.104L21.322 34.196L21.174 34.11L20.969 34.229Z" fill="#58595B"/>
<path d="M22.834 35.308L26.938 42.243L26.943 37.683L22.834 35.308Z" fill="#3D3D3D"/>
<path d="M21.498 36.929V40.935L25.42 43.196L21.498 36.929Z" fill="#3D3D3D"/>
<path d="M26.9429 47.651L21.322 44.405V51.048L26.936 54.282L26.9429 47.651Z" fill="#B5D4DE"/>
<path d="M21.144 44.335L21.147 51.185L21.144 51.189L21.147 51.19V51.192H21.148L27.104 54.62V54.14L26.936 54.044L21.497 50.903V44.292L21.144 44.097V44.335Z" fill="#6D6E71"/>
<path d="M20.977 51.333L27.102 54.866L27.104 47.515L26.945 47.423L26.936 54.044V54.282L21.322 51.048V44.165L21.174 44.083L20.969 44.2L20.977 51.333Z" fill="#58595B"/>
<path d="M20.969 44.2L21.322 44.405L26.943 47.651L27.104 47.515H27.105L27.104 47.511L21.322 44.165L21.174 44.083L20.969 44.2Z" fill="#58595B"/>
<path d="M22.834 45.278L26.938 52.216L26.943 47.651L22.834 45.278Z" fill="#3D3D3D"/>
<path d="M21.4969 46.903V50.903L25.42 53.171L21.4969 46.903Z" fill="#3D3D3D"/>
<path d="M26.93 57.714L21.311 54.466V61.106L26.927 64.349L26.93 57.714Z" fill="#B5D4DE"/>
<path d="M21.13 54.396L21.136 61.243L21.13 61.251L21.136 61.255V61.257L21.137 61.255L27.092 64.681V64.196L26.927 64.103L21.486 60.964V54.353L21.13 54.157V54.396Z" fill="#6D6E71"/>
<path d="M20.967 61.397L27.09 64.929L27.092 57.575L26.932 57.481L26.927 64.103V64.349L21.311 61.106V54.229L21.16 54.14L20.956 54.261L20.967 61.397Z" fill="#58595B"/>
<path d="M20.956 54.261L21.311 54.466L26.93 57.714L27.092 57.575H27.094H27.092L21.311 54.229L21.16 54.14L20.956 54.261Z" fill="#58595B"/>
<path d="M22.821 55.343L26.927 62.276L26.93 57.714L22.821 55.343Z" fill="#3D3D3D"/>
<path d="M21.486 56.962V60.964L25.407 63.229L21.486 56.962Z" fill="#3D3D3D"/>
<path d="M26.924 67.856L21.305 64.606V71.251L26.92 74.485L26.924 67.856Z" fill="#B5D4DE"/>
<path d="M21.124 64.534L21.13 71.388H21.124L21.13 71.396V71.397H21.131L27.084 74.821V74.341L26.92 74.245L21.479 71.106V64.493L21.124 64.3V64.534Z" fill="#6D6E71"/>
<path d="M20.957 71.536L27.084 75.067V67.716L26.927 67.622L26.92 74.245V74.485L21.305 71.251V64.368L21.154 64.282L20.949 64.401L20.957 71.536Z" fill="#58595B"/>
<path d="M20.949 64.401L21.305 64.606L26.924 67.856L27.084 67.716H27.087H27.084L21.305 64.368L21.154 64.282L20.949 64.401Z" fill="#58595B"/>
<path d="M22.815 65.481L26.92 72.417L26.924 67.856L22.815 65.481Z" fill="#3D3D3D"/>
<path d="M21.479 67.104V71.106L25.402 73.368L21.479 67.104Z" fill="#3D3D3D"/>
<path d="M16.223 31.489L10.604 28.245V34.886L16.219 38.124L16.223 31.489Z" fill="#B5D4DE"/>
<path d="M10.424 28.173L10.4299 35.021L10.424 35.024L10.4299 35.028V35.032L10.431 35.028L16.3849 38.458V37.976L16.2189 37.88L10.781 34.743V28.132L10.424 27.931V28.173Z" fill="#6D6E71"/>
<path d="M10.258 35.173L16.383 38.704L16.385 31.353L16.227 31.259L16.219 37.88V38.124L10.604 34.886V28.003L10.458 27.919L10.251 28.036L10.258 35.173Z" fill="#58595B"/>
<path d="M10.251 28.036L10.604 28.245L16.223 31.489L16.385 31.353H16.388L16.385 31.349L10.604 28.003L10.458 27.919L10.251 28.036Z" fill="#58595B"/>
<path d="M12.115 29.116L16.222 36.054L16.223 31.489L12.115 29.116Z" fill="#3D3D3D"/>
<path d="M10.781 30.741V34.743L14.699 37.011L10.781 30.741Z" fill="#3D3D3D"/>
<path d="M16.223 41.466L10.602 38.216V44.858L16.219 48.095L16.223 41.466Z" fill="#B5D4DE"/>
<path d="M10.424 38.147L10.4299 44.995L10.424 44.999L10.4299 45.003H10.431L16.3849 48.433V47.95L16.2189 47.853L10.7769 44.718V38.103L10.424 37.907V38.147Z" fill="#6D6E71"/>
<path d="M10.258 45.146L16.383 48.679L16.385 41.325L16.227 41.229L16.219 47.853V48.095L10.602 44.858V37.978L10.458 37.894L10.251 38.009L10.258 45.146Z" fill="#58595B"/>
<path d="M10.251 38.009L10.602 38.216L16.223 41.466L16.385 41.325L10.602 37.978L10.458 37.894L10.251 38.009Z" fill="#58595B"/>
<path d="M12.115 39.091L16.222 46.026L16.223 41.466L12.115 39.091Z" fill="#3D3D3D"/>
<path d="M10.777 40.714V44.718L14.699 46.983L10.777 40.714Z" fill="#3D3D3D"/>
<path d="M16.213 51.524L10.592 48.272V54.917L16.207 58.155L16.213 51.524Z" fill="#B5D4DE"/>
<path d="M10.414 48.206L10.416 55.056L10.414 55.06L10.416 55.065H10.421L16.374 58.489V58.011L16.207 57.913L10.768 54.776V48.163L10.414 47.97V48.206Z" fill="#6D6E71"/>
<path d="M10.247 55.206L16.372 58.741L16.374 51.382L16.216 51.292L16.207 57.913V58.155L10.592 54.917V48.04L10.445 47.954L10.24 48.071L10.247 55.206Z" fill="#58595B"/>
<path d="M10.24 48.071L10.592 48.272L16.213 51.524L16.374 51.382H16.377H16.374L10.592 48.04L10.445 47.954L10.24 48.071Z" fill="#58595B"/>
<path d="M12.104 49.151L16.207 56.087L16.213 51.524L12.104 49.151Z" fill="#3D3D3D"/>
<path d="M10.768 50.774V54.776L14.69 57.044L10.768 50.774Z" fill="#3D3D3D"/>
<path d="M16.205 61.667L10.586 58.415V65.058L16.199 68.294L16.205 61.667Z" fill="#B5D4DE"/>
<path d="M10.404 58.351L10.41 65.194L10.404 65.2L10.41 65.204H10.414L16.367 68.63V68.149L16.199 68.056L10.761 64.919V58.308L10.404 58.108V58.351Z" fill="#6D6E71"/>
<path d="M10.24 65.347L16.367 68.88V61.526L16.207 61.436L16.199 68.056V68.294L10.586 65.058V58.179L10.438 58.093L10.233 58.212L10.24 65.347Z" fill="#58595B"/>
<path d="M10.233 58.212L10.586 58.415L16.205 61.667L16.367 61.526H16.369H16.367L10.586 58.179L10.438 58.093L10.233 58.212Z" fill="#58595B"/>
<path d="M12.0959 59.292L16.199 66.228L16.205 61.667L12.0959 59.292Z" fill="#3D3D3D"/>
<path d="M10.761 60.915V64.919L14.684 67.183L10.761 60.915Z" fill="#3D3D3D"/>
<path d="M16.67 2.64001L0.469971 9.681V12.009L12.205 18.866L8.22697 21.159V23.468L40.411 42.06L46.36 38.63L55.025 43.632L71.29 34.243V31.759L16.67 2.64001Z" fill="#AFADAD"/>
<path d="M16.908 0.197998L0.469971 9.681L14.306 17.671L8.22697 21.159L40.423 39.755L46.487 36.247L55.025 41.189L71.29 31.759L16.908 0.197998Z" fill="#C0C7CE"/>
</svg>
