<svg width="67" height="96" viewBox="0 0 67 96" fill="none" xmlns="http://www.w3.org/2000/svg">
<path d="M19.336 42.58L19.225 92.699L7.49199 85.922L7.60197 35.805L19.336 42.58Z" fill="#939598"/>
<path d="M19.336 42.58L27.395 37.898L27.283 88.016L19.225 92.699L19.336 42.58Z" fill="#939598"/>
<path d="M40.768 45.55V95.776L66.32 81.033L66.305 30.851L40.768 45.55Z" fill="#939598"/>
<path d="M40.768 45.55L0.47998 22.308V72.514L40.768 95.776V45.55Z" fill="#939598"/>
<path d="M40.768 42.121V92.344L66.32 77.604L66.305 27.42L40.768 42.121Z" fill="#B5C2CE"/>
<path d="M40.768 42.121L0.47998 18.879V69.084L40.768 92.344V42.121Z" fill="#D7E4E8"/>
<path d="M0.47998 18.879V15.598L25.984 4.15701L66.305 24.14V27.42L40.736 42.141L0.47998 18.879Z" fill="#939598"/>
<path d="M0.47998 15.598L25.984 0.876007L66.305 24.14L40.736 38.859L0.47998 15.598Z" fill="#88C2DB"/>
<path d="M47.412 42.32V50.125L58.592 43.631V35.855L47.412 42.32Z" fill="#8DBBD3"/>
<path d="M58.543 36.179V43.487L59.213 43.887V35.783L58.543 36.179Z" fill="#6D6E71"/>
<path d="M47.568 49.705V50.533L59.117 43.801L58.543 43.47L47.568 49.705Z" fill="#6D6E71"/>
<path d="M47.791 42.407V42.419L58.584 36.172V43.552L59.254 43.882V35.779L47.791 42.407Z" fill="#A7A9AC"/>
<path d="M47.402 49.863V50.686L59.154 43.827L58.584 43.494L47.402 49.863Z" fill="#D1D3D4"/>
<path d="M53.185 39.214V46.59L53.857 46.921V38.818L53.185 39.214Z" fill="#A7A9AC"/>
<path d="M54.305 38.251V46.656L53.857 46.921V38.818L54.305 38.251Z" fill="#BCBEC0"/>
<path d="M47.402 42.244V51.209L59.64 44.102V35.167L47.402 42.244ZM47.887 42.487L59.155 35.967V43.826L47.887 50.406V42.487Z" fill="#7E7F82"/>
<path d="M47.473 56.859V64.66L58.652 58.172V50.395L47.473 56.859Z" fill="#8DBBD3"/>
<path d="M58.6 50.719V58.027L59.275 58.424V50.324L58.6 50.719Z" fill="#6D6E71"/>
<path d="M47.627 64.244V65.072L59.178 58.34L58.6 58.01L47.627 64.244Z" fill="#6D6E71"/>
<path d="M47.853 56.949V56.959L58.643 50.715V58.092L59.314 58.424V50.318L47.853 56.949Z" fill="#A7A9AC"/>
<path d="M47.463 64.404V65.227L59.217 58.363L58.643 58.033L47.463 64.404Z" fill="#D1D3D4"/>
<path d="M53.246 53.752V61.131L53.92 61.461V53.357L53.246 53.752Z" fill="#A7A9AC"/>
<path d="M54.367 52.791V61.197L53.92 61.461V53.357L54.367 52.791Z" fill="#BCBEC0"/>
<path d="M47.463 56.785V65.748L59.699 58.641V49.707L47.463 56.785ZM47.949 57.025L59.217 50.505V58.362L47.949 64.944V57.025Z" fill="#7E7F82"/>
<path d="M47.463 72.227V80.031L58.639 73.539V65.762L47.463 72.227Z" fill="#8DBBD3"/>
<path d="M58.59 66.086V73.395L59.262 73.795V65.691L58.59 66.086Z" fill="#6D6E71"/>
<path d="M47.613 79.613V80.441L59.168 73.707L58.59 73.377L47.613 79.613Z" fill="#6D6E71"/>
<path d="M47.842 72.316V72.326L58.629 66.08V73.459L59.301 73.787V65.686L47.842 72.316Z" fill="#A7A9AC"/>
<path d="M47.449 79.768V80.594L59.205 73.732L58.629 73.4L47.449 79.768Z" fill="#D1D3D4"/>
<path d="M53.236 69.117V76.498L53.906 76.83V68.725L53.236 69.117Z" fill="#A7A9AC"/>
<path d="M54.355 68.16V76.566L53.906 76.83V68.725L54.355 68.16Z" fill="#BCBEC0"/>
<path d="M47.451 72.15V81.117L59.687 74.008V65.076L47.451 72.15ZM47.935 72.396L59.205 65.873V73.732L47.935 80.314V72.396Z" fill="#7E7F82"/>
<path d="M35.484 43.856V51.484L24.557 45.137V37.536L35.484 43.856Z" fill="#8DBBD3"/>
<path d="M24.605 37.855V44.997L23.953 45.387V37.466L24.605 37.855Z" fill="#6D6E71"/>
<path d="M35.332 51.074V51.881L24.045 45.304L24.605 44.98L35.332 51.074Z" fill="#6D6E71"/>
<path d="M35.113 43.943V43.953L24.566 37.849V45.058L23.91 45.382V37.462L35.113 43.943Z" fill="#A7A9AC"/>
<path d="M35.496 51.229V52.035L24.006 45.326L24.566 45.003L35.496 51.229Z" fill="#D1D3D4"/>
<path d="M29.842 40.82V48.03L29.185 48.352V40.432L29.842 40.82Z" fill="#A7A9AC"/>
<path d="M28.746 39.88V48.096L29.185 48.352V40.432L28.746 39.88Z" fill="#BCBEC0"/>
<path d="M23.533 36.865V45.598L35.494 52.543V43.781L23.533 36.865ZM35.02 51.76L24.006 45.326V37.646L35.02 44.02V51.76Z" fill="#7E7F82"/>
<path d="M16.281 33.771V41.397L5.35698 35.053V27.452L16.281 33.771Z" fill="#8DBBD3"/>
<path d="M5.40599 27.771V34.913L4.74998 35.303V27.382L5.40599 27.771Z" fill="#6D6E71"/>
<path d="M16.133 40.99V41.797L4.84398 35.22L5.40599 34.896L16.133 40.99Z" fill="#6D6E71"/>
<path d="M15.912 33.858V33.869L5.36497 27.765V34.976L4.71098 35.297V27.379L15.912 33.858Z" fill="#A7A9AC"/>
<path d="M16.295 41.144V41.948L4.80299 35.243L5.36497 34.917L16.295 41.144Z" fill="#D1D3D4"/>
<path d="M10.639 30.736V37.944L9.98399 38.269V30.347L10.639 30.736Z" fill="#A7A9AC"/>
<path d="M9.54298 29.794V38.009L9.98399 38.269V30.347L9.54298 29.794Z" fill="#BCBEC0"/>
<path d="M4.33199 26.78V35.513L16.291 42.457V33.696L4.33199 26.78ZM15.818 41.675L4.80199 35.243V27.562L15.818 33.935V41.675Z" fill="#7E7F82"/>
<path d="M35.559 58.424V66.045L24.633 59.703V52.102L35.559 58.424Z" fill="#8DBBD3"/>
<path d="M24.682 52.42V59.564L24.027 59.953V52.035L24.682 52.42Z" fill="#6D6E71"/>
<path d="M35.408 65.639V66.447L24.119 59.871L24.682 59.547L35.408 65.639Z" fill="#6D6E71"/>
<path d="M35.188 58.508V58.52L24.641 52.414V59.625L23.986 59.947V52.029L35.188 58.508Z" fill="#A7A9AC"/>
<path d="M35.568 65.795V66.596L24.082 59.893L24.641 59.566L35.568 65.795Z" fill="#D1D3D4"/>
<path d="M29.918 55.383V62.592L29.26 62.92V54.998L29.918 55.383Z" fill="#A7A9AC"/>
<path d="M28.82 54.447V62.662L29.26 62.92V54.998L28.82 54.447Z" fill="#BCBEC0"/>
<path d="M23.609 51.434V60.164L35.566 67.109V58.347L23.609 51.434ZM35.096 66.324L24.082 59.892V52.212L35.096 58.583V66.324Z" fill="#7E7F82"/>
<path d="M16.199 48.296V55.92L5.27498 49.576V41.977L16.199 48.296Z" fill="#8DBBD3"/>
<path d="M5.32399 42.294V49.436L4.66798 49.828V41.906L5.32399 42.294Z" fill="#6D6E71"/>
<path d="M16.051 55.512V56.324L4.76399 49.744L5.32399 49.422L16.051 55.512Z" fill="#6D6E71"/>
<path d="M15.83 48.382V48.393L5.28297 42.289V49.502L4.631 49.82V41.902L15.83 48.382Z" fill="#A7A9AC"/>
<path d="M16.213 55.668V56.471L4.72298 49.766L5.28297 49.441L16.213 55.668Z" fill="#D1D3D4"/>
<path d="M10.559 45.259V52.467L9.90199 52.793V44.871L10.559 45.259Z" fill="#A7A9AC"/>
<path d="M9.463 44.319V52.535L9.90199 52.793V44.871L9.463 44.319Z" fill="#BCBEC0"/>
<path d="M4.252 41.305V50.039L16.209 56.984V48.223L4.252 41.305ZM15.738 56.197L4.72197 49.765V42.087L15.738 48.459V56.197Z" fill="#7E7F82"/>
<path d="M9.502 58.514V70.879L5.38298 68.406V56.066L9.502 58.514Z" fill="#8DBBD3"/>
<path d="M5.43199 56.395V67.939L4.756 68.338V55.996L5.43199 56.395Z" fill="#6D6E71"/>
<path d="M9.502 70.297V70.996L4.85698 68.252L5.43199 67.918L9.502 70.297Z" fill="#6D6E71"/>
<path d="M5.38698 56.389V68L4.71898 68.33V55.99L5.38698 56.389Z" fill="#A7A9AC"/>
<path d="M9.502 70.328V71.061L4.81599 68.277L5.38698 67.941L9.502 70.328Z" fill="#D1D3D4"/>
<path d="M4.33199 55.383V68.551L10.098 71.883V58.811L4.33199 55.383ZM9.502 70.996L4.81599 68.277V56.185L9.502 58.894V70.996Z" fill="#7E7F82"/>
<path d="M34.971 73.16V85.525L30.852 83.055V70.715L34.971 73.16Z" fill="#8DBBD3"/>
<path d="M30.898 71.041V82.582L30.227 82.984V70.645L30.898 71.041Z" fill="#6D6E71"/>
<path d="M34.971 84.945V85.645L30.326 82.9L30.898 82.566L34.971 84.945Z" fill="#6D6E71"/>
<path d="M30.855 71.035V82.65L30.189 82.979V70.641L30.855 71.035Z" fill="#A7A9AC"/>
<path d="M34.971 84.975V85.703L30.283 82.924L30.855 82.588L34.971 84.975Z" fill="#D1D3D4"/>
<path d="M29.801 70.027V83.199L35.567 86.529V73.459L29.801 70.027ZM34.971 85.645L30.283 82.924V70.83L34.971 73.541V85.645Z" fill="#7E7F82"/>
<path d="M19.336 71.939L27.428 67.289L27.293 84.564L19.225 89.266L19.336 71.939Z" fill="#C0C7CE"/>
<path d="M19.336 71.939L19.225 89.266L7.49199 82.492L7.60197 65.164L19.336 71.939Z" fill="#F1F2F2"/>
<path d="M27.428 67.289L19.324 71.984L7.58998 65.207V61.926L12.867 58.873L27.428 64.014V67.289Z" fill="#939598"/>
<path d="M27.428 64.014L19.324 68.707L7.58998 61.934L15.699 57.234L27.428 64.014Z" fill="#C0C7CE"/>
<path d="M14.352 89.541L17.063 87.984V91.461L14.352 93.01V89.541Z" fill="#939598"/>
<path d="M14.353 89.537L17.063 87.975L9.467 83.588L6.74397 85.15L14.353 89.537Z" fill="#C0C7CE"/>
<path d="M14.352 93.01L14.353 89.537L6.74397 85.15L6.74797 88.615L14.352 93.01Z" fill="#939598"/>
<path d="M11.641 92.668L14.352 91.111V93.01L11.641 94.559V92.668Z" fill="#939598"/>
<path d="M11.645 92.666L14.352 91.104L6.756 86.719L4.03499 88.283L11.645 92.666Z" fill="#C0C7CE"/>
<path d="M11.641 94.559L11.645 92.666L4.03499 88.283V90.164L11.641 94.559Z" fill="#939598"/>
<path d="M16.83 73.18L17.055 73.055L17.063 88.016L16.83 88.15V73.18Z" fill="#58595B"/>
<path d="M16.799 73.652L9.855 69.645L9.85899 83.834L16.803 87.838L16.799 73.652Z" fill="#D1D3D4"/>
<path opacity="0.2" d="M12.453 71.15L9.85899 69.656V76.211L15.615 87.152L16.799 87.834L16.81 78.576L12.453 71.15Z" fill="#C2B59B"/>
<path d="M16.83 73.18L17.055 73.055L9.64799 68.775L9.41798 68.904L16.83 73.18Z" fill="#58595B"/>
<path d="M9.85899 84.129L9.41798 83.871V68.904L16.83 73.18V88.15L16.428 87.918V73.463L9.85899 69.666V84.129Z" fill="#7E7F82"/>
<path d="M9.85899 84.129L10.115 83.98V69.803L9.855 69.656L9.85899 84.129Z" fill="#58595B"/>
<path d="M15.557 81.121L15.609 81.094L15.617 78.951L15.564 78.984L15.557 81.121Z" fill="#4F5051"/>
<path d="M15.564 78.984L15.617 78.951L14.889 78.531L14.84 78.566L15.564 78.984Z" fill="#7E8083"/>
<path d="M14.84 78.566L14.834 80.707L15.557 81.121L15.564 78.984L14.84 78.566Z" fill="#727376"/>
<path d="M15.18 80.523L15.232 80.49V80.236L15.18 80.268V80.523Z" fill="#4F5051"/>
<path d="M15.18 80.268L15.232 80.236L15.15 80.189L15.094 80.217L15.18 80.268Z" fill="#7E8083"/>
<path d="M15.094 80.217L15.092 80.473L15.18 80.523V80.268L15.094 80.217Z" fill="#939598"/>
<path d="M14.926 79.803L15.334 79.564V79.395L14.926 79.629V79.803Z" fill="#A7A9AC"/>
<path d="M15.055 79.557L15.334 79.395L15.117 79.266L14.678 79.516L15.492 79.988L15.646 79.896L15.055 79.557Z" fill="#BCBEC0"/>
<path d="M14.678 79.516V79.689L15.492 80.158V79.988L14.678 79.516Z" fill="#A7A9AC"/>
<path d="M15.646 80.07L15.492 80.158V79.988L15.646 79.896V80.07Z" fill="#939598"/>
</svg>
