<svg width="68" height="92" viewBox="0 0 68 92" fill="none" xmlns="http://www.w3.org/2000/svg">
<path d="M49.699 41.332L0.48999 12.923V60.305L49.676 88.698L49.699 41.332Z" fill="#C78D69"/>
<path d="M49.676 88.698L67.285 78.552V31.163L49.699 41.323L49.676 88.698Z" fill="#A16845"/>
<path d="M49.699 88.673L0.48999 60.268V62.91L49.676 91.301L49.699 88.673Z" fill="#A7A9AC"/>
<path d="M49.676 91.301L67.285 81.157V78.511L49.699 88.673L49.676 91.301Z" fill="#939598"/>
<path d="M18.1 2.77002L0.48999 12.915L49.699 41.332L67.285 31.17L18.1 2.77002Z" fill="#C0C7CE"/>
<path d="M18.009 1.80602L0.489975 10.393L0.474976 11.992L49.473 40.306L67.149 30.104L67.151 28.586L18.009 1.80602Z" fill="#A7A9AC"/>
<path d="M18.1 0.246017L0.48999 10.393L49.565 38.746L67.151 28.586L18.1 0.246017Z" fill="#C0C7CE"/>
<path d="M21.363 28.533V33.854L19.589 32.791V27.478L21.363 28.533Z" fill="#9BCCE5"/>
<path d="M19.607 27.619V32.591L19.32 32.762V27.45L19.607 27.619Z" fill="#6D6E71"/>
<path d="M21.363 33.605V33.906L19.362 32.724L19.607 32.582L21.363 33.605Z" fill="#6D6E71"/>
<path d="M19.5919 27.617V32.617L19.304 32.758V27.446L19.5919 27.617Z" fill="#BCBEC0"/>
<path d="M21.363 33.618V33.933L19.344 32.732L19.592 32.591L21.363 33.618Z" fill="#D1D3D4"/>
<path d="M19.137 27.158V36.148L21.597 37.569V28.581L19.137 27.158ZM21.363 33.906L19.344 32.732V27.528L21.363 28.673V33.906Z" fill="white"/>
<path d="M19.137 27.342V32.699L14.298 29.89V29.886L18.97 32.598V27.245L19.137 27.342Z" fill="#27AAE1"/>
<path d="M19.133 27.19V32.55L14.293 29.738V24.39L19.133 27.19Z" fill="#9BCCE5"/>
<path d="M18.987 27.231V27.234L14.316 24.532V29.534L14.024 29.706V24.359L18.987 27.231Z" fill="#6D6E71"/>
<path d="M19.133 32.264V32.619L14.065 29.669L14.316 29.525L19.133 32.264Z" fill="#6D6E71"/>
<path d="M18.97 27.229V27.233L14.298 24.528V29.563L14.008 29.705V24.357L18.97 27.229Z" fill="#BCBEC0"/>
<path d="M19.1369 32.295V32.651L14.049 29.68L14.298 29.537L19.1369 32.295Z" fill="#D1D3D4"/>
<path d="M16.635 25.844V30.878L16.344 31.022V25.676L16.635 25.844Z" fill="#BCBEC0"/>
<path d="M16.147 25.428V30.906L16.344 31.022V25.676L16.147 25.428Z" fill="white"/>
<path d="M13.84 24.095V29.801L19.137 32.879V27.158L13.84 24.095ZM18.928 32.528L14.049 29.679V24.439L18.928 27.263V32.528Z" fill="white"/>
<path d="M9.37799 30.99L12.607 29.119V32.353L9.37799 34.21V30.99Z" fill="#443029"/>
<path d="M12.605 29.119L12.167 28.869L9.38098 30.483L9.82098 30.739L12.605 29.119Z" fill="#E6E7E8"/>
<path d="M20.136 36.739L9.38098 30.483V34.221L20.136 40.473V36.739Z" fill="#704738"/>
<path d="M9.38098 30.483L9.82898 30.224L20.575 36.484L20.136 36.739L9.38098 30.483Z" fill="#E6E7E8"/>
<path d="M22.971 35.102L22.523 34.831L20.136 36.228L20.138 36.753L22.971 35.102Z" fill="#E6E7E8"/>
<path d="M20.136 36.739L22.971 35.102L22.966 38.834L20.136 40.473V36.739Z" fill="#443029"/>
<path d="M21.46 42.348V47.671L19.686 46.605V41.293L21.46 42.348Z" fill="#9BCCE5"/>
<path d="M19.706 41.434V46.406L19.419 46.574V41.265L19.706 41.434Z" fill="#6D6E71"/>
<path d="M21.46 47.418V47.721L19.46 46.538L19.706 46.395L21.46 47.418Z" fill="#6D6E71"/>
<path d="M19.689 41.432V46.43L19.399 46.574V41.261L19.689 41.432Z" fill="#BCBEC0"/>
<path d="M21.46 47.433V47.747L19.441 46.549L19.689 46.406L21.46 47.433Z" fill="#D1D3D4"/>
<path d="M19.236 40.973V49.963L21.693 51.38V42.394L19.236 40.973ZM21.46 47.721L19.441 46.549V41.343L21.46 42.488V47.721Z" fill="white"/>
<path d="M19.236 41.157V46.516L14.396 43.702V43.7L19.069 46.412V41.061L19.236 41.157Z" fill="#27AAE1"/>
<path d="M19.231 41.005V46.364L14.391 43.551V38.204L19.231 41.005Z" fill="#9BCCE5"/>
<path d="M19.084 41.048V41.049L14.413 38.347V43.349L14.122 43.522V38.176L19.084 41.048Z" fill="#6D6E71"/>
<path d="M19.231 46.076V46.434L14.163 43.485L14.413 43.34L19.231 46.076Z" fill="#6D6E71"/>
<path d="M19.069 41.046V41.048L14.396 38.345V43.377L14.106 43.518V38.172L19.069 41.046Z" fill="#BCBEC0"/>
<path d="M19.236 46.109V46.467L14.147 43.494L14.396 43.352L19.236 46.109Z" fill="#D1D3D4"/>
<path d="M16.732 39.658V44.69L16.442 44.837V39.489L16.732 39.658Z" fill="#BCBEC0"/>
<path d="M16.245 39.242V44.721L16.442 44.837V39.489L16.245 39.242Z" fill="white"/>
<path d="M13.938 37.911V43.613L19.236 46.693V40.972L13.938 37.911ZM19.025 46.347L14.147 43.494V38.252L19.025 41.077V46.347Z" fill="white"/>
<path d="M9.47699 44.807L12.705 42.934V46.165L9.47699 48.026V44.807Z" fill="#443029"/>
<path d="M12.704 42.938L12.266 42.682L9.479 44.3L9.91901 44.556L12.704 42.938Z" fill="#E6E7E8"/>
<path d="M20.232 50.552L9.479 44.3V48.035L20.232 54.285V50.552Z" fill="#704738"/>
<path d="M9.479 44.3L9.927 44.04L20.674 50.297L20.232 50.552L9.479 44.3Z" fill="#E6E7E8"/>
<path d="M23.068 48.917L22.621 48.646L20.232 50.043L20.236 50.567L23.068 48.917Z" fill="#E6E7E8"/>
<path d="M20.232 50.552L23.068 48.917L23.064 52.649L20.232 54.285V50.552Z" fill="#443029"/>
<path d="M21.389 55.929V61.249L19.615 60.185V54.874L21.389 55.929Z" fill="#9BCCE5"/>
<path d="M19.636 55.015V59.984L19.348 60.153V54.844L19.636 55.015Z" fill="#6D6E71"/>
<path d="M21.389 61V61.299L19.389 60.118L19.636 59.978L21.389 61Z" fill="#6D6E71"/>
<path d="M19.618 55.011V60.01L19.329 60.153V54.842L19.618 55.011Z" fill="#BCBEC0"/>
<path d="M21.389 61.014V61.327L19.37 60.131L19.618 59.984L21.389 61.014Z" fill="#D1D3D4"/>
<path d="M19.163 54.556V63.543L21.624 64.962V55.973L19.163 54.556ZM21.389 61.299L19.37 60.131V54.924L21.389 56.07V61.299Z" fill="white"/>
<path d="M19.163 54.737V60.095L14.325 57.283V57.282L18.996 59.992V54.64L19.163 54.737Z" fill="#27AAE1"/>
<path d="M19.161 54.584V59.943L14.318 57.133V51.785L19.161 54.584Z" fill="#9BCCE5"/>
<path d="M19.013 54.629V54.631L14.343 51.926V56.93L14.051 57.101V51.756L19.013 54.629Z" fill="#6D6E71"/>
<path d="M19.161 59.657V60.013L14.091 57.065L14.343 56.921L19.161 59.657Z" fill="#6D6E71"/>
<path d="M18.996 54.623V54.629L14.325 51.924V56.956L14.035 57.101V51.754L18.996 54.623Z" fill="#BCBEC0"/>
<path d="M19.163 59.691V60.049L14.079 57.074L14.325 56.934L19.163 59.691Z" fill="#D1D3D4"/>
<path d="M16.661 53.24V58.274L16.371 58.416V53.067L16.661 53.24Z" fill="#BCBEC0"/>
<path d="M16.174 52.822V58.301L16.371 58.416V53.067L16.174 52.822Z" fill="white"/>
<path d="M13.865 51.49V57.194L19.163 60.274V54.555L13.865 51.49ZM18.955 59.926L14.079 57.074V51.835L18.955 54.659V59.926Z" fill="white"/>
<path d="M9.40497 58.388L12.635 56.516V59.746L9.40497 61.606V58.388Z" fill="#443029"/>
<path d="M12.632 56.516L12.193 56.263L9.40698 57.881L9.84698 58.136L12.632 56.516Z" fill="#E6E7E8"/>
<path d="M20.16 64.133L9.40698 57.881V61.613L20.16 67.867V64.133Z" fill="#704738"/>
<path d="M9.40698 57.881L9.85599 57.62L20.6 63.881L20.16 64.133L9.40698 57.881Z" fill="#E6E7E8"/>
<path d="M22.997 62.497L22.55 62.225L20.16 63.623L20.164 64.15L22.997 62.497Z" fill="#E6E7E8"/>
<path d="M20.16 64.133L22.997 62.497L22.994 66.229L20.16 67.867V64.133Z" fill="#443029"/>
<path d="M30.229 33.737V39.06L28.455 37.994V32.683L30.229 33.737Z" fill="#9BCCE5"/>
<path d="M30.229 38.809V39.111L28.229 37.929L28.475 37.784L30.229 38.809Z" fill="#6D6E71"/>
<path d="M30.229 38.823V39.136L28.212 37.94L28.458 37.793L30.229 38.823Z" fill="#D1D3D4"/>
<path d="M28.475 32.823V37.793L28.188 37.966V32.654L28.475 32.823Z" fill="#6D6E71"/>
<path d="M28.458 32.821V37.822L28.17 37.961V32.651L28.458 32.821Z" fill="#BCBEC0"/>
<path d="M28.006 32.363V41.351L30.464 42.77V33.783L28.006 32.363ZM30.229 39.111L28.212 37.939V32.731L30.229 33.879V39.111Z" fill="white"/>
<path d="M35.763 37.03V42.387L30.921 39.577L35.595 42.285V36.933L35.763 37.03Z" fill="#27AAE1"/>
<path d="M35.758 36.878V42.237L30.917 39.426V34.079L35.758 36.878Z" fill="#9BCCE5"/>
<path d="M35.61 36.92V36.924L30.939 34.22V39.222L30.647 39.394V34.047L35.61 36.92Z" fill="#6D6E71"/>
<path d="M35.758 41.949V42.305L30.689 39.358L30.941 39.214L35.758 41.949Z" fill="#6D6E71"/>
<path d="M35.595 36.915V36.92L30.921 34.216V39.248L30.633 39.392V34.047L35.595 36.915Z" fill="#BCBEC0"/>
<path d="M35.763 41.982V42.34L30.674 39.367L30.924 39.225L35.763 41.982Z" fill="#D1D3D4"/>
<path d="M33.258 35.533V40.564L32.97 40.708V35.361L33.258 35.533Z" fill="#BCBEC0"/>
<path d="M32.772 35.115V40.592L32.97 40.708V35.361L32.772 35.115Z" fill="white"/>
<path d="M30.463 33.782V39.489L35.762 42.566V36.843L30.463 33.782ZM35.552 42.219L30.674 39.367V34.129L35.552 36.95V42.219Z" fill="white"/>
<path d="M23.552 39.261L26.781 37.388V40.621L23.552 42.478V39.261Z" fill="#443029"/>
<path d="M26.779 37.39L26.339 37.136L23.554 38.755L23.994 39.008L26.779 37.39Z" fill="#E6E7E8"/>
<path d="M34.306 45.007L23.554 38.755V42.487L34.306 48.739V45.007Z" fill="#704738"/>
<path d="M23.554 38.755L24.002 38.494L34.748 44.751L34.306 45.007L23.554 38.755Z" fill="#E6E7E8"/>
<path d="M37.144 43.371L36.696 43.1L34.306 44.495L34.312 45.02L37.144 43.371Z" fill="#E6E7E8"/>
<path d="M34.306 45.007L37.144 43.371L37.14 47.102L34.306 48.739V45.007Z" fill="#443029"/>
<path d="M30.23 47.397V52.718L28.457 51.654V46.343L30.23 47.397Z" fill="#9BCCE5"/>
<path d="M30.2299 52.469V52.771L28.2299 51.588L28.479 51.444L30.2299 52.469Z" fill="#6D6E71"/>
<path d="M30.2299 52.48V52.796L28.214 51.597L28.461 51.455L30.2299 52.48Z" fill="#D1D3D4"/>
<path d="M28.479 46.485V51.453L28.1909 51.624V46.315L28.479 46.485Z" fill="#6D6E71"/>
<path d="M28.461 46.481V51.479L28.171 51.622V46.31L28.461 46.481Z" fill="#BCBEC0"/>
<path d="M28.007 46.024V55.01L30.4669 56.429V47.441L28.007 46.024ZM30.2299 52.771L28.213 51.597V46.391L30.2299 47.537V52.771Z" fill="white"/>
<path d="M35.764 50.69V56.046L30.924 53.234L35.597 55.943V50.593L35.764 50.69Z" fill="#27AAE1"/>
<path d="M35.7609 50.535V55.897L30.9189 53.085V47.736L35.7609 50.535Z" fill="#9BCCE5"/>
<path d="M35.612 50.578V50.58L30.942 47.879V52.881L30.6519 53.054V47.708L35.612 50.578Z" fill="#6D6E71"/>
<path d="M35.761 55.608V55.964L30.692 53.016L30.942 52.872L35.761 55.608Z" fill="#6D6E71"/>
<path d="M35.597 50.574V50.58L30.924 47.875V52.909L30.6349 53.052V47.707L35.597 50.574Z" fill="#BCBEC0"/>
<path d="M35.764 55.643V55.998L30.676 53.026L30.926 52.885L35.764 55.643Z" fill="#D1D3D4"/>
<path d="M33.261 49.193V54.224L32.9709 54.369V49.021L33.261 49.193Z" fill="#BCBEC0"/>
<path d="M32.7759 48.775V54.252L32.9709 54.369V49.021L32.7759 48.775Z" fill="white"/>
<path d="M30.4669 47.441V53.145L35.764 56.225V50.504L30.4669 47.441ZM35.554 55.877L30.6759 53.026V47.785L35.554 50.61V55.877Z" fill="white"/>
<path d="M23.552 52.918L26.782 51.048V54.28L23.552 56.139V52.918Z" fill="#443029"/>
<path d="M26.781 51.05L26.343 50.795L23.558 52.413L23.996 52.668L26.781 51.05Z" fill="#E6E7E8"/>
<path d="M34.31 58.665L23.558 52.413V56.147L34.31 62.399V58.665Z" fill="#704738"/>
<path d="M23.558 52.413L24.005 52.152L34.749 58.411L34.31 58.665L23.558 52.413Z" fill="#E6E7E8"/>
<path d="M37.145 57.031L36.698 56.759L34.31 58.156L34.312 58.682L37.145 57.031Z" fill="#E6E7E8"/>
<path d="M34.31 58.665L37.145 57.031L37.142 60.764L34.31 62.399V58.665Z" fill="#443029"/>
<path d="M30.229 61.067V66.39L28.455 65.324V60.013L30.229 61.067Z" fill="#9BCCE5"/>
<path d="M30.229 66.141V66.441L28.229 65.259L28.475 65.116L30.229 66.141Z" fill="#6D6E71"/>
<path d="M30.229 66.154V66.468L28.212 65.27L28.458 65.125L30.229 66.154Z" fill="#D1D3D4"/>
<path d="M28.475 60.153V65.123L28.188 65.298V59.984L28.475 60.153Z" fill="#6D6E71"/>
<path d="M28.458 60.151V65.152L28.17 65.292V59.981L28.458 60.151Z" fill="#BCBEC0"/>
<path d="M28.006 59.693V68.683L30.464 70.102V61.115L28.006 59.693ZM30.229 66.441L28.212 65.269V60.061L30.229 61.209V66.441Z" fill="white"/>
<path d="M35.763 64.36V69.718L30.924 66.907L35.595 69.617V64.265L35.763 64.36Z" fill="#27AAE1"/>
<path d="M35.761 64.208V69.567L30.917 66.756V61.407L35.761 64.208Z" fill="#9BCCE5"/>
<path d="M35.61 64.25V64.254L30.941 61.55V66.55L30.647 66.726V61.379L35.61 64.25Z" fill="#6D6E71"/>
<path d="M35.761 69.28V69.637L30.689 66.689L30.941 66.546L35.761 69.28Z" fill="#6D6E71"/>
<path d="M35.595 64.247V64.252L30.924 61.548V66.58L30.633 66.722V61.377L35.595 64.247Z" fill="#BCBEC0"/>
<path d="M35.763 69.313V69.67L30.674 66.699L30.924 66.555L35.763 69.313Z" fill="#D1D3D4"/>
<path d="M33.26 62.865V67.896L32.97 68.041V62.691L33.26 62.865Z" fill="#BCBEC0"/>
<path d="M32.772 62.447V67.924L32.97 68.041V62.691L32.772 62.447Z" fill="white"/>
<path d="M30.463 61.11V66.818L35.762 69.897V64.173L30.463 61.11ZM35.552 69.549L30.674 66.699V61.457L35.552 64.28V69.549Z" fill="white"/>
<path d="M23.552 66.591L26.781 64.718V67.949L23.552 69.809V66.591Z" fill="#443029"/>
<path d="M26.779 64.722L26.34 64.468L23.554 66.085L23.994 66.34L26.779 64.722Z" fill="#E6E7E8"/>
<path d="M34.308 72.339L23.554 66.085V69.819L34.308 76.071V72.339Z" fill="#704738"/>
<path d="M23.554 66.085L24.005 65.824L34.748 72.083L34.308 72.339L23.554 66.085Z" fill="#E6E7E8"/>
<path d="M37.144 70.701L36.696 70.428L34.308 71.827L34.312 72.353L37.144 70.701Z" fill="#E6E7E8"/>
<path d="M34.308 72.339L37.144 70.701L37.14 74.432L34.308 76.071V72.339Z" fill="#443029"/>
<path d="M60.5649 38.57V43.893L62.3419 42.829V37.515L60.5649 38.57Z" fill="#9BCCE5"/>
<path d="M60.5649 43.644V43.944L62.5649 42.764L62.3189 42.619L60.5649 43.644Z" fill="#6D6E71"/>
<path d="M60.5649 43.656V43.971L62.5869 42.772L62.3369 42.63L60.5649 43.656Z" fill="#D1D3D4"/>
<path d="M62.319 37.66V42.63L62.609 42.799V37.487L62.319 37.66Z" fill="#6D6E71"/>
<path d="M62.337 37.654V42.655L62.624 42.797V37.485L62.337 37.654Z" fill="#BCBEC0"/>
<path d="M60.3329 38.616V47.605L62.7899 46.186V37.196L60.3329 38.616ZM60.565 38.713L62.586 37.566V42.773L60.565 43.945V38.713Z" fill="white"/>
<path d="M55.0339 41.865V47.221L59.8739 44.412V44.408L55.2019 47.12V41.768L55.0339 41.865Z" fill="#27AAE1"/>
<path d="M55.0379 41.713V47.071L59.8819 44.259V38.912L55.0379 41.713Z" fill="#9BCCE5"/>
<path d="M55.184 41.755V41.757L59.856 39.053V44.056L60.1479 44.228V38.882L55.184 41.755Z" fill="#6D6E71"/>
<path d="M55.0379 46.785V47.141L60.1059 44.193L59.8559 44.049L55.0379 46.785Z" fill="#6D6E71"/>
<path d="M55.2019 41.752V41.755L59.8739 39.051V44.083L60.1629 44.227V38.88L55.2019 41.752Z" fill="#BCBEC0"/>
<path d="M55.0339 46.817V47.173L60.1219 44.203L59.8739 44.06L55.0339 46.817Z" fill="#D1D3D4"/>
<path d="M57.5359 40.366V45.398L57.827 45.543V40.197L57.5359 40.366Z" fill="#BCBEC0"/>
<path d="M58.0249 39.95V45.429L57.8269 45.543V40.197L58.0249 39.95Z" fill="white"/>
<path d="M55.0339 41.681V47.401L60.3329 44.323V38.617L55.0339 41.681ZM55.2449 41.785L60.1219 38.962V44.203L55.2449 47.052V41.785Z" fill="white"/>
<path d="M67.246 44.094L64.017 42.223V45.455L67.246 47.314V44.094Z" fill="#443029"/>
<path d="M64.019 42.225L64.455 41.972L67.242 43.588L66.802 43.843L64.019 42.225Z" fill="#E6E7E8"/>
<path d="M56.489 49.84L67.242 43.588V47.322L56.489 53.574V49.84Z" fill="#704738"/>
<path d="M67.242 43.588L66.794 43.329L56.049 49.588L56.489 49.84L67.242 43.588Z" fill="#E6E7E8"/>
<path d="M53.653 48.206L54.101 47.933L56.489 49.332L56.485 49.856L53.653 48.206Z" fill="#E6E7E8"/>
<path d="M56.489 49.84L53.653 48.206L53.655 51.936L56.489 53.574V49.84Z" fill="#443029"/>
<path d="M60.563 52.23V57.552L62.339 56.488V51.176L60.563 52.23Z" fill="#9BCCE5"/>
<path d="M60.563 57.302V57.603L62.565 56.421L62.319 56.279L60.563 57.302Z" fill="#6D6E71"/>
<path d="M60.563 57.317V57.63L62.5829 56.43L62.335 56.288L60.563 57.317Z" fill="#D1D3D4"/>
<path d="M62.319 51.318V56.288L62.606 56.459V51.149L62.319 51.318Z" fill="#6D6E71"/>
<path d="M62.335 51.316V56.315L62.6239 56.457V51.146L62.335 51.316Z" fill="#BCBEC0"/>
<path d="M60.3289 52.278V61.266L62.789 59.847V50.855L60.3289 52.278ZM60.563 52.371L62.5829 51.224V56.43L60.563 57.604V52.371Z" fill="white"/>
<path d="M55.032 55.523V60.881L59.8719 58.071V58.069L55.198 60.777V55.427L55.032 55.523Z" fill="#27AAE1"/>
<path d="M55.0339 55.37V60.729L59.8779 57.918V52.571L55.0339 55.37Z" fill="#9BCCE5"/>
<path d="M55.183 55.413V55.417L59.854 52.712V57.714L60.146 57.89V52.541L55.183 55.413Z" fill="#6D6E71"/>
<path d="M55.0339 60.443V60.801L60.1039 57.851L59.8539 57.707L55.0339 60.443Z" fill="#6D6E71"/>
<path d="M55.1979 55.409V55.415L59.8719 52.708V57.742L60.1629 57.887V52.539L55.1979 55.409Z" fill="#BCBEC0"/>
<path d="M55.032 60.478V60.833L60.1199 57.863L59.871 57.718L55.032 60.478Z" fill="#D1D3D4"/>
<path d="M57.5339 54.026V59.06L57.8249 59.202V53.855L57.5339 54.026Z" fill="#BCBEC0"/>
<path d="M58.022 53.61V59.089L57.825 59.202V53.855L58.022 53.61Z" fill="white"/>
<path d="M55.032 55.338V61.061L60.3289 57.981V52.277L55.032 55.338ZM55.243 55.445L60.1199 52.621V57.863L55.243 60.71V55.445Z" fill="white"/>
<path d="M67.242 57.753L64.015 55.883V59.113L67.242 60.972V57.753Z" fill="#443029"/>
<path d="M64.017 55.884L64.453 55.63L67.239 57.248L66.8 57.502L64.017 55.884Z" fill="#E6E7E8"/>
<path d="M56.486 63.5L67.239 57.248V60.982L56.486 67.234V63.5Z" fill="#704738"/>
<path d="M67.2389 57.248L66.7919 56.986L56.0469 63.246L56.4859 63.5L67.2389 57.248Z" fill="#E6E7E8"/>
<path d="M53.6479 61.866L54.099 61.592L56.4859 62.989L56.4839 63.515L53.6479 61.866Z" fill="#E6E7E8"/>
<path d="M56.4859 63.5L53.6479 61.866L53.655 65.597L56.4859 67.234V63.5Z" fill="#443029"/>
<path d="M60.5649 65.902V71.223L62.3389 70.163V64.846L60.5649 65.902Z" fill="#9BCCE5"/>
<path d="M60.5649 70.976V71.277L62.5649 70.094L62.3189 69.951L60.5649 70.976Z" fill="#6D6E71"/>
<path d="M60.5649 70.987V71.301L62.5869 70.104L62.3369 69.96L60.5649 70.987Z" fill="#D1D3D4"/>
<path d="M62.3189 64.988V69.958L62.6069 70.131V64.819L62.3189 64.988Z" fill="#6D6E71"/>
<path d="M62.3369 64.984V69.985L62.6239 70.127V64.815L62.3369 64.984Z" fill="#BCBEC0"/>
<path d="M60.3309 65.948V74.935L62.7899 73.516V64.526L60.3309 65.948ZM60.5649 66.043L62.5859 64.897V70.104L60.5649 71.277V66.043Z" fill="white"/>
<path d="M55.0339 69.193V74.553L59.8739 71.742L55.1979 74.451V69.098L55.0339 69.193Z" fill="#27AAE1"/>
<path d="M55.0379 69.043V74.4L59.8789 71.591V66.242L55.0379 69.043Z" fill="#9BCCE5"/>
<path d="M55.184 69.083V69.087L59.856 66.386V71.386L60.1479 71.559V66.214L55.184 69.083Z" fill="#6D6E71"/>
<path d="M55.0379 74.113V74.47L60.1059 71.523L59.8559 71.379L55.0379 74.113Z" fill="#6D6E71"/>
<path d="M55.1979 69.082V69.087L59.8739 66.381V71.413L60.1629 71.555V66.214L55.1979 69.082Z" fill="#BCBEC0"/>
<path d="M55.0339 74.147V74.503L60.1219 71.533L59.8719 71.39L55.0339 74.147Z" fill="#D1D3D4"/>
<path d="M57.5359 67.698V72.73L57.827 72.873V67.525L57.5359 67.698Z" fill="#BCBEC0"/>
<path d="M58.0229 67.28V72.759L57.8269 72.873V67.525L58.0229 67.28Z" fill="white"/>
<path d="M55.0339 69.011V74.729L60.3309 71.655V65.947L55.0339 69.011ZM55.2429 69.117L60.1219 66.292V71.533L55.2429 74.384V69.117Z" fill="white"/>
<path d="M67.243 71.424L64.017 69.553V72.785L67.243 74.644V71.424Z" fill="#443029"/>
<path d="M64.019 69.555L64.455 69.304L67.241 70.92L66.802 71.175L64.019 69.555Z" fill="#E6E7E8"/>
<path d="M56.489 77.172L67.241 70.92V74.654L56.489 80.906V77.172Z" fill="#704738"/>
<path d="M67.241 70.92L66.794 70.66L56.049 76.916L56.489 77.172L67.241 70.92Z" fill="#E6E7E8"/>
<path d="M53.653 75.534L54.101 75.265L56.489 76.66L56.485 77.186L53.653 75.534Z" fill="#E6E7E8"/>
<path d="M56.489 77.172L53.653 75.534L53.655 79.267L56.489 80.906V77.172Z" fill="#443029"/>
<path d="M7.92197 20.73V26.678L5.93997 25.488V19.553L7.92197 20.73Z" fill="#9BCCE5"/>
<path d="M5.96295 19.71V25.265L5.63995 25.455V19.52L5.96295 19.71Z" fill="#6D6E71"/>
<path d="M7.92197 26.399V26.735L5.68597 25.414L5.96297 25.254L7.92197 26.399Z" fill="#6D6E71"/>
<path d="M5.94197 19.706V25.293L5.61996 25.453V19.516L5.94197 19.706Z" fill="#BCBEC0"/>
<path d="M7.92198 26.413V26.766L5.66498 25.427L5.94199 25.265L7.92198 26.413Z" fill="#D1D3D4"/>
<path d="M5.43497 19.194V25.557L8.18198 27.145V20.783L5.43497 19.194ZM7.92197 26.735L5.66496 25.426V19.608L7.92197 20.888V26.735Z" fill="white"/>
<path d="M7.93495 34.389V40.338L5.95496 39.15V33.213L7.93495 34.389Z" fill="#9BCCE5"/>
<path d="M5.97696 33.371V38.924L5.65295 39.116V33.181L5.97696 33.371Z" fill="#6D6E71"/>
<path d="M7.93495 40.06V40.397L5.69995 39.073L5.97696 38.915L7.93495 40.06Z" fill="#6D6E71"/>
<path d="M5.95694 33.369V38.954L5.63293 39.114V33.179L5.95694 33.369Z" fill="#BCBEC0"/>
<path d="M7.93494 40.075V40.425L5.67993 39.086L5.95694 38.928L7.93494 40.075Z" fill="#D1D3D4"/>
<path d="M5.44995 32.853V39.221L8.19595 40.803V34.443L5.44995 32.853ZM7.93495 40.397L5.67995 39.086V33.268L7.93495 34.55V40.397Z" fill="white"/>
<path d="M7.92793 48.05V53.998L5.94495 52.81V46.873L7.92793 48.05Z" fill="#9BCCE5"/>
<path d="M5.96895 47.031V52.584L5.64496 52.776V46.841L5.96895 47.031Z" fill="#6D6E71"/>
<path d="M7.92795 53.721V54.055L5.69196 52.735L5.96895 52.573L7.92795 53.721Z" fill="#6D6E71"/>
<path d="M5.94896 47.027V52.614L5.62695 52.772V46.839L5.94896 47.027Z" fill="#BCBEC0"/>
<path d="M7.92793 53.734V54.085L5.67194 52.746L5.94894 52.584L7.92793 53.734Z" fill="#D1D3D4"/>
<path d="M5.44196 46.516V52.881L8.18996 54.465V48.104L5.44196 46.516ZM7.92795 54.055L5.67296 52.746V46.928L7.92795 48.208V54.055Z" fill="white"/>
<path d="M44.89 42.109V48.059L42.907 46.867V40.932L44.89 42.109Z" fill="#9BCCE5"/>
<path d="M42.931 41.09V46.644L42.606 46.833V40.898L42.931 41.09Z" fill="#6D6E71"/>
<path d="M44.89 47.777V48.113L42.655 46.793L42.931 46.633L44.89 47.777Z" fill="#6D6E71"/>
<path d="M42.913 41.087V46.672L42.587 46.832V40.897L42.913 41.087Z" fill="#BCBEC0"/>
<path d="M44.89 47.792V48.144L42.6349 46.805L42.9129 46.644L44.89 47.792Z" fill="#D1D3D4"/>
<path d="M42.403 40.574V46.938L45.153 48.522V42.162L42.403 40.574ZM44.89 48.113L42.6349 46.804V40.987L44.89 42.268V48.113Z" fill="white"/>
<path d="M44.9039 55.769V61.719L42.9229 60.528V54.595L44.9039 55.769Z" fill="#9BCCE5"/>
<path d="M42.9459 54.75V60.305L42.6229 60.495V54.56L42.9459 54.75Z" fill="#6D6E71"/>
<path d="M44.9039 61.44V61.775L42.6689 60.454L42.9459 60.294L44.9039 61.44Z" fill="#6D6E71"/>
<path d="M42.9249 54.746V60.333L42.6019 60.493V54.558L42.9249 54.746Z" fill="#BCBEC0"/>
<path d="M44.9039 61.453V61.804L42.6499 60.467L42.9249 60.305L44.9039 61.453Z" fill="#D1D3D4"/>
<path d="M42.4189 54.236V60.599L45.1659 62.184V55.822L42.4189 54.236ZM44.9039 61.775L42.6499 60.466V54.646L44.9039 55.928V61.775Z" fill="white"/>
<path d="M44.8959 69.43V75.376L42.9149 74.189V68.251L44.8959 69.43Z" fill="#9BCCE5"/>
<path d="M42.9359 68.409V73.965L42.6149 74.154V68.219L42.9359 68.409Z" fill="#6D6E71"/>
<path d="M44.8959 75.099V75.434L42.6619 74.113L42.9359 73.954L44.8959 75.099Z" fill="#6D6E71"/>
<path d="M42.917 68.406V73.994L42.5959 74.153V68.216L42.917 68.406Z" fill="#BCBEC0"/>
<path d="M44.8959 75.113V75.465L42.6429 74.126L42.9169 73.966L44.8959 75.113Z" fill="#D1D3D4"/>
<path d="M42.4089 67.894V74.26L45.1609 75.844V69.482L42.4089 67.894ZM44.8959 75.434L42.6419 74.126V68.307L44.8959 69.588V75.434Z" fill="white"/>
</svg>
