<svg width="47" height="83" viewBox="0 0 47 83" fill="none" xmlns="http://www.w3.org/2000/svg">
<path d="M46.156 17.848V70.961L26.641 82.228V29.115L46.156 17.848Z" fill="#939598"/>
<path d="M3.256 15.645L26.641 29.412V82.228L3.21797 68.709L3.256 15.645Z" fill="#939598"/>
<path d="M22.733 3.10901L46.156 16.631L26.641 27.898L3.21797 14.377L22.733 3.10901Z" fill="#939598"/>
<path d="M46.156 14.357V67.637L26.641 78.904L26.646 25.596L46.156 14.357Z" fill="#B5C2CE"/>
<path d="M3.256 12.32L26.646 25.596L26.641 78.904L3.21797 65.383L3.256 12.32Z" fill="#D7E4E8"/>
<path d="M26.646 31.027V40.9L24.066 42.383V32.508L26.646 31.027Z" fill="#5B95AB"/>
<path d="M3.22499 17.502V27.375L0.644974 28.855V18.982L3.22499 17.502Z" fill="#D4CAB8"/>
<path d="M0.644974 18.986L24.066 32.508V42.383L0.644974 28.859V18.986Z" fill="#66A6C0"/>
<path d="M11.803 27.076L6.06499 23.758V30.541L11.797 33.848L11.803 27.076Z" fill="#B5D4DE"/>
<path d="M5.877 23.69L5.88399 30.68L5.877 30.685L5.88399 30.69V30.691L5.88597 30.69L11.966 34.19V33.695L11.797 33.598L6.24098 30.395V23.645L5.877 23.443V23.69Z" fill="#6D6E71"/>
<path d="M5.71098 30.834L11.964 34.443L11.966 26.934L11.805 26.84L11.797 33.598V33.848L6.06499 30.541V23.514L5.911 23.428L5.70299 23.549L5.71098 30.834Z" fill="#58595B"/>
<path d="M5.70299 23.549L6.06499 23.758L11.803 27.076L11.966 26.934H11.969L11.966 26.932L6.06499 23.514L5.911 23.428L5.70299 23.549Z" fill="#58595B"/>
<path d="M7.605 24.65L11.797 31.734L11.803 27.076L7.605 24.65Z" fill="#3D3D3D"/>
<path d="M6.24098 26.31V30.395L10.247 32.709L6.24098 26.31Z" fill="#3D3D3D"/>
<path d="M17.85 30.574L12.111 27.254V34.039L17.844 37.344L17.85 30.574Z" fill="#B5D4DE"/>
<path d="M11.926 27.184L11.932 34.178L11.926 34.182L11.932 34.188V34.19H11.935L18.015 37.685V37.195L17.844 37.096L12.291 33.895V27.141L11.926 26.941V27.184Z" fill="#6D6E71"/>
<path d="M11.758 34.332L18.012 37.94L18.015 30.432L17.853 30.338L17.844 37.096V37.344L12.111 34.039V27.014L11.961 26.926L11.75 27.047L11.758 34.332Z" fill="#58595B"/>
<path d="M11.75 27.047L12.111 27.254L17.85 30.574L18.015 30.432H18.017L18.015 30.428L12.111 27.014L11.961 26.926L11.75 27.047Z" fill="#58595B"/>
<path d="M13.654 28.148L17.844 35.232L17.85 30.574L13.654 28.148Z" fill="#3D3D3D"/>
<path d="M12.291 29.809V33.895L16.294 36.205L12.291 29.809Z" fill="#3D3D3D"/>
<path d="M24.066 32.508L26.646 31.027L3.22499 17.502L0.644974 18.986L24.066 32.508Z" fill="#88C2DB"/>
<path d="M26.654 46.834V56.701L24.074 58.182V48.309L26.654 46.834Z" fill="#5B95AB"/>
<path d="M3.23299 33.307V43.178L0.649979 44.658V34.785L3.23299 33.307Z" fill="#D4CAB8"/>
<path d="M0.649979 34.789L24.074 48.309V58.182L0.649979 44.66V34.789Z" fill="#66A6C0"/>
<path d="M11.809 42.877L6.06999 39.56V46.34L11.805 49.648L11.809 42.877Z" fill="#B5D4DE"/>
<path d="M5.88597 39.49L5.89299 46.484L5.88597 46.486L5.89299 46.49V46.494H5.89598L11.976 49.99V49.498L11.805 49.4L6.25099 46.197V39.443L5.88597 39.246V39.49Z" fill="#6D6E71"/>
<path d="M5.71898 46.635L11.975 50.244L11.976 42.736L11.813 42.643L11.805 49.4V49.648L6.06999 46.34V39.318L5.92198 39.23L5.70998 39.352L5.71898 46.635Z" fill="#58595B"/>
<path d="M5.70998 39.352L6.06999 39.56L11.809 42.877L11.976 42.736H11.977L11.976 42.732L6.06999 39.318L5.92198 39.23L5.70998 39.352Z" fill="#58595B"/>
<path d="M7.61299 40.453L11.805 47.537L11.809 42.877L7.61299 40.453Z" fill="#3D3D3D"/>
<path d="M6.25099 42.113V46.197L10.253 48.51L6.25099 42.113Z" fill="#3D3D3D"/>
<path d="M17.856 46.375L12.12 43.057V49.842L17.853 53.147L17.856 46.375Z" fill="#B5D4DE"/>
<path d="M11.935 42.988L11.941 49.98L11.935 49.984L11.941 49.986V49.99H11.943L18.022 53.488V52.994L17.853 52.897L12.297 49.693V42.943L11.935 42.742V42.988Z" fill="#6D6E71"/>
<path d="M11.769 50.133L18.021 53.742L18.022 46.234L17.86 46.139L17.853 52.897V53.147L12.12 49.842V42.815L11.969 42.727L11.758 42.848L11.769 50.133Z" fill="#58595B"/>
<path d="M11.758 42.848L12.12 43.057L17.856 46.375L18.022 46.234H18.025L18.022 46.23L12.12 42.815L11.969 42.727L11.758 42.848Z" fill="#58595B"/>
<path d="M13.662 43.951L17.853 51.033L17.856 46.375L13.662 43.951Z" fill="#3D3D3D"/>
<path d="M12.297 45.609V49.693L16.306 52.008L12.297 45.609Z" fill="#3D3D3D"/>
<path d="M24.074 48.309L26.654 46.834L3.23299 33.307L0.649979 34.789L24.074 48.309Z" fill="#88C2DB"/>
<path d="M26.646 62.58V72.449L24.066 73.93V64.057L26.646 62.58Z" fill="#5B95AB"/>
<path d="M3.226 49.053V58.926L0.644974 60.406V50.533L3.226 49.053Z" fill="#D4CAB8"/>
<path d="M0.644974 50.535L24.066 64.057V73.93L0.644974 60.408V50.535Z" fill="#66A6C0"/>
<path d="M11.803 58.627L6.06499 55.309V62.092L11.797 65.397L11.803 58.627Z" fill="#B5D4DE"/>
<path d="M5.87898 55.236L5.88399 62.232L5.87898 62.234L5.88399 62.238V62.24H5.88899L11.966 65.736V65.246L11.797 65.148L6.24098 61.945V55.191L5.87898 54.994V55.236Z" fill="#6D6E71"/>
<path d="M5.70998 62.383L11.964 65.992L11.966 58.484L11.805 58.389L11.797 65.148V65.397L6.06499 62.092V55.065L5.911 54.978L5.70299 55.098L5.70998 62.383Z" fill="#58595B"/>
<path d="M5.70299 55.098L6.06499 55.309L11.803 58.627L11.966 58.484L11.969 58.48H11.966L6.06499 55.065L5.911 54.978L5.70299 55.098Z" fill="#58595B"/>
<path d="M7.60698 56.199L11.799 63.283L11.803 58.627L7.60698 56.199Z" fill="#3D3D3D"/>
<path d="M6.24098 57.859V61.945L10.249 64.258L6.24098 57.859Z" fill="#3D3D3D"/>
<path d="M17.852 62.123L12.111 58.805V65.59L17.844 68.891L17.852 62.123Z" fill="#B5D4DE"/>
<path d="M11.926 58.736L11.932 65.728L11.926 65.732L11.932 65.734V65.736H11.935L18.015 69.236V68.742L17.844 68.645L12.291 65.443V58.69L11.926 58.49V58.736Z" fill="#6D6E71"/>
<path d="M11.758 65.883L18.012 69.488L18.015 61.98L17.853 61.885L17.844 68.645V68.891L12.111 65.59V58.563L11.961 58.475L11.751 58.596L11.758 65.883Z" fill="#58595B"/>
<path d="M11.751 58.596L12.111 58.805L17.852 62.123L18.015 61.98H18.017L18.015 61.978L12.111 58.563L11.961 58.475L11.751 58.596Z" fill="#58595B"/>
<path d="M13.654 59.699L17.844 66.781L17.852 62.123L13.654 59.699Z" fill="#3D3D3D"/>
<path d="M12.291 61.357V65.443L16.294 67.758L12.291 61.357Z" fill="#3D3D3D"/>
<path d="M24.066 64.057L26.646 62.58L3.226 49.053L0.644974 50.535L24.066 64.057Z" fill="#88C2DB"/>
<path d="M43.259 11.932V15.166L20.857 2.23401L22.874 0.14502L43.259 11.932Z" fill="#C0C7CE"/>
<path d="M43.271 11.936L46.156 13.527L26.469 24.867L23.669 23.248L43.271 11.936Z" fill="#C0C7CE"/>
<path d="M26.469 21.637V24.867L3.256 11.49L6.86897 10.318L26.469 21.637Z" fill="#C0C7CE"/>
<path d="M8.83098 11.479L22.831 3.39502V0.164017L3.23497 11.479H8.83098Z" fill="#C0C7CE"/>
<path d="M26.469 24.867L3.256 11.49L3.23299 14.547L26.469 28.102V24.867Z" fill="#939598"/>
<path d="M46.156 13.527V16.762L26.469 28.102V24.867L46.156 13.527Z" fill="#939598"/>
<path d="M26.398 20.33L8.03398 9.74602L8.015 12.166L26.398 22.887V20.33Z" fill="#939598"/>
<path d="M41.904 11.377V13.939L26.398 22.887V20.33L41.904 11.377Z" fill="#939598"/>
<path d="M39.677 10.1V12.658L21.957 2.42601L23.553 0.771011L39.677 10.1Z" fill="#88C2DB"/>
<path d="M39.689 10.1L41.904 11.377L26.398 20.33L24.182 19.049L39.689 10.1Z" fill="#88C2DB"/>
<path d="M26.398 17.773V20.33L8.03398 9.74602L10.896 8.82202L26.398 17.773Z" fill="#88C2DB"/>
<path d="M12.445 9.73802L23.521 3.34401V0.785019L8.02098 9.73802H12.445Z" fill="#88C2DB"/>
<path d="M23.521 3.34401L12.445 9.73802L26.398 17.773L37.416 11.416L23.521 3.34401Z" fill="#C0C7CE"/>
</svg>
