<svg width="49" height="86" viewBox="0 0 49 86" fill="none" xmlns="http://www.w3.org/2000/svg">
<path d="M48.142 69.758L20.582 85.67L20.557 34.268L48.142 18.338V69.758Z" fill="#C0C7CE"/>
<path d="M20.582 85.67L0.85199 74.305V22.883L20.557 34.268L20.582 85.67Z" fill="#C0C7CE"/>
<path d="M48.142 66.635L20.582 82.547L20.557 34.268L48.142 18.338V66.635Z" fill="#C0C7CE"/>
<path d="M20.582 82.547L0.85199 71.182V22.883L20.557 34.268L20.582 82.547Z" fill="#D7E4E8"/>
<path d="M48.142 18.412L20.557 34.344L0.85199 22.959L28.411 7.04501L48.142 18.412Z" fill="#5B95AB"/>
<path d="M48.22 17.055L20.719 32.94L0.914001 21.514L0.911987 19.81L28.573 5.64099L48.204 15.26L48.22 17.055Z" fill="#F1F2F2"/>
<path d="M48.204 15.26L20.615 31.193L0.911987 19.81L28.472 3.89301L48.204 15.26Z" fill="#5B95AB"/>
<path d="M1.66599 31.342L1.64099 36.205L19.514 46.527V40.037L1.64301 29.721L1.66599 31.342Z" fill="#8DBBD3"/>
<path d="M7.59601 39.65L7.64301 39.623L7.646 33.135L7.60199 33.16L7.59601 39.65Z" fill="#1D2021"/>
<path d="M1.71301 36.17L1.758 36.143V29.815L1.71301 29.842V36.17Z" fill="#1D2021"/>
<path d="M4.64801 37.863L4.69501 37.838L4.69699 31.51L4.64999 31.537L4.64801 37.863Z" fill="#1D2021"/>
<path d="M4.59 37.832L4.63699 37.807L1.758 36.143L1.71301 36.17L4.59 37.832Z" fill="#4F5458"/>
<path d="M7.52701 39.527L7.57401 39.5L4.69501 37.838L4.64801 37.863L7.52701 39.527Z" fill="#4F5458"/>
<path d="M1.68799 29.695L1.64301 29.721L7.59799 33.16L7.64301 33.135L1.68799 29.695Z" fill="#4F5458"/>
<path d="M7.59601 39.65L1.64099 36.209L1.64301 29.721L7.60199 33.16L7.59601 39.65ZM4.64801 37.863L7.52701 39.527L7.52899 33.199L4.64999 31.537L4.64801 37.863ZM1.71301 36.17L4.59 37.832V31.502L1.71301 29.842V36.17Z" fill="#3B3F41"/>
<path d="M7.646 33.135L7.603 33.16L13.559 36.596L13.605 36.57L7.646 33.135Z" fill="#4F5458"/>
<path d="M10.549 41.272L10.596 41.244L7.71701 39.58L7.668 39.611L10.549 41.272Z" fill="#4F5458"/>
<path d="M7.668 39.611L7.71701 39.58V33.252L7.672 33.279L7.668 39.611Z" fill="#1D2021"/>
<path d="M13.484 42.967L13.529 42.94L10.65 41.277L10.607 41.305L13.484 42.967Z" fill="#4F5458"/>
<path d="M13.555 43.086L13.602 43.06L13.605 36.57L13.559 36.596L13.555 43.086Z" fill="#1D2021"/>
<path d="M10.607 41.305L10.65 41.277L10.654 34.947L10.609 34.975L10.607 41.305Z" fill="#1D2021"/>
<path d="M13.555 43.086L7.60199 39.65V33.16L13.559 36.596L13.555 43.086ZM10.607 41.305L13.484 42.967L13.488 36.635L10.609 34.975L10.607 41.305ZM7.668 39.611L10.549 41.271L10.551 34.943L7.672 33.279L7.668 39.611Z" fill="#3B3F41"/>
<path d="M13.605 36.57L13.559 36.596L19.514 40.037L19.563 40.01L13.605 36.57Z" fill="#4F5458"/>
<path d="M16.508 44.709L16.553 44.684L13.676 43.02L13.627 43.047L16.508 44.709Z" fill="#4F5458"/>
<path d="M13.627 43.047L13.676 43.02V36.691L13.629 36.717L13.627 43.047Z" fill="#1D2021"/>
<path d="M19.443 46.406L19.488 46.379L16.611 44.715L16.563 44.742L19.443 46.406Z" fill="#4F5458"/>
<path d="M19.514 46.527L19.56 46.498L19.563 40.01L19.514 40.037V46.527Z" fill="#1D2021"/>
<path d="M16.563 44.742L16.611 44.715L16.613 38.387L16.564 38.414L16.563 44.742Z" fill="#1D2021"/>
<path d="M19.514 46.527L13.559 43.086V36.596L19.514 40.037V46.527ZM16.563 44.742L19.444 46.406V40.076L16.565 38.414L16.563 44.742ZM13.627 43.047L16.508 44.709V38.379L13.629 36.717L13.627 43.047Z" fill="#3B3F41"/>
<path d="M1.66599 39.455L1.64099 44.32L19.514 54.637V48.148L1.64301 37.832L1.66599 39.455Z" fill="#8DBBD3"/>
<path d="M7.59601 47.762L7.64301 47.734L7.646 41.244L7.60199 41.272L7.59601 47.762Z" fill="#1D2021"/>
<path d="M1.71301 44.281L1.758 44.258V37.926L1.71301 37.951V44.281Z" fill="#1D2021"/>
<path d="M4.64801 45.977L4.69501 45.951L4.69699 39.623L4.64999 39.65L4.64801 45.977Z" fill="#1D2021"/>
<path d="M4.59 45.943L4.63699 45.918L1.758 44.258L1.71301 44.281L4.59 45.943Z" fill="#4F5458"/>
<path d="M7.52701 47.641L7.57401 47.613L4.69501 45.951L4.64801 45.977L7.52701 47.641Z" fill="#4F5458"/>
<path d="M1.68799 37.807L1.64301 37.832L7.59799 41.27L7.64301 41.244L1.68799 37.807Z" fill="#4F5458"/>
<path d="M7.59601 47.762L1.64099 44.323L1.64301 37.833L7.60199 41.273L7.59601 47.762ZM4.64801 45.977L7.52701 47.641L7.52899 41.313L4.64999 39.651L4.64801 45.977ZM1.71301 44.281L4.59 45.943V39.615L1.71301 37.951V44.281Z" fill="#3B3F41"/>
<path d="M7.646 41.244L7.603 41.27L13.559 44.709L13.605 44.684L7.646 41.244Z" fill="#4F5458"/>
<path d="M10.549 49.383L10.596 49.357L7.71701 47.693L7.668 47.721L10.549 49.383Z" fill="#4F5458"/>
<path d="M7.668 47.721L7.71701 47.693V41.365L7.672 41.393L7.668 47.721Z" fill="#1D2021"/>
<path d="M13.484 51.078L13.529 51.051L10.65 49.389L10.607 49.418L13.484 51.078Z" fill="#4F5458"/>
<path d="M13.555 51.201L13.602 51.172L13.605 44.684L13.559 44.709L13.555 51.201Z" fill="#1D2021"/>
<path d="M10.607 49.418L10.65 49.389L10.654 43.06L10.609 43.086L10.607 49.418Z" fill="#1D2021"/>
<path d="M13.555 51.201L7.60199 47.761V41.269L13.559 44.709L13.555 51.201ZM10.607 49.418L13.484 51.078L13.488 44.748L10.609 43.086L10.607 49.418ZM7.668 47.721L10.549 49.383L10.551 43.055L7.672 41.393L7.668 47.721Z" fill="#3B3F41"/>
<path d="M13.605 44.684L13.559 44.709L19.514 48.148L19.563 48.123L13.605 44.684Z" fill="#4F5458"/>
<path d="M16.508 52.82L16.553 52.795L13.676 51.131L13.627 51.16L16.508 52.82Z" fill="#4F5458"/>
<path d="M13.627 51.16L13.676 51.131V44.803L13.629 44.828L13.627 51.16Z" fill="#1D2021"/>
<path d="M19.443 54.52L19.488 54.49L16.611 52.828L16.563 52.855L19.443 54.52Z" fill="#4F5458"/>
<path d="M19.514 54.637L19.56 54.611L19.563 48.123L19.514 48.148V54.637Z" fill="#1D2021"/>
<path d="M16.563 52.855L16.611 52.828L16.613 46.498L16.564 46.527L16.563 52.855Z" fill="#1D2021"/>
<path d="M19.514 54.637L13.559 51.202V44.71L19.514 48.149V54.637ZM16.563 52.855L19.444 54.519V48.189L16.565 46.527L16.563 52.855ZM13.627 51.16L16.508 52.82V46.492L13.629 44.828L13.627 51.16Z" fill="#3B3F41"/>
<path d="M43.519 29.225L43.546 34.086L25.675 44.408L25.673 37.918L43.546 27.602L43.519 29.225Z" fill="#8DBBD3"/>
<path d="M37.589 37.531L37.544 37.502L37.542 31.012L37.589 31.037V37.531Z" fill="#1D2021"/>
<path d="M43.477 34.051L43.431 34.025V27.695L43.476 27.723L43.477 34.051Z" fill="#1D2021"/>
<path d="M40.54 35.746L40.495 35.721L40.491 29.391L40.538 29.418L40.54 35.746Z" fill="#1D2021"/>
<path d="M40.597 35.713L40.552 35.688L43.431 34.025L43.477 34.051L40.597 35.713Z" fill="#4F5458"/>
<path d="M37.659 37.408L37.614 37.381L40.495 35.721L40.54 35.746L37.659 37.408Z" fill="#4F5458"/>
<path d="M43.499 27.574L43.544 27.602L37.589 31.037L37.544 31.012L43.499 27.574Z" fill="#4F5458"/>
<path d="M37.589 31.037L43.546 27.601V34.091L37.589 37.531V31.037ZM40.54 35.746L40.538 29.418L37.659 31.08V37.408L40.54 35.746ZM43.477 34.051L43.475 27.723L40.596 29.385V35.713L43.477 34.051Z" fill="#3B3F41"/>
<path d="M37.54 31.012L37.587 31.037L31.632 34.478L31.583 34.451L37.54 31.012Z" fill="#4F5458"/>
<path d="M34.638 39.15L34.593 39.125L37.47 37.461L37.519 37.488L34.638 39.15Z" fill="#4F5458"/>
<path d="M37.519 37.488L37.47 37.461V31.131L37.517 31.158L37.519 37.488Z" fill="#1D2021"/>
<path d="M31.702 40.848L31.655 40.82L34.536 39.16L34.583 39.185L31.702 40.848Z" fill="#4F5458"/>
<path d="M31.632 40.969L31.587 40.941L31.583 34.451L31.632 34.478V40.969Z" fill="#1D2021"/>
<path d="M34.583 39.185L34.536 39.16L34.532 32.828L34.577 32.855L34.583 39.185Z" fill="#1D2021"/>
<path d="M31.632 34.478L37.587 31.037L37.589 37.531L31.632 40.969V34.478ZM34.583 39.185L34.577 32.855L31.7 34.517L31.702 40.847L34.583 39.185ZM37.519 37.488L37.517 31.158L34.636 32.822L34.638 39.15L37.519 37.488Z" fill="#3B3F41"/>
<path d="M31.583 34.451L31.632 34.478L25.673 37.918L25.628 37.891L31.583 34.451Z" fill="#4F5458"/>
<path d="M28.681 42.592L28.636 42.565L31.515 40.902L31.56 40.928L28.681 42.592Z" fill="#4F5458"/>
<path d="M31.56 40.928L31.515 40.902V34.574L31.56 34.6V40.928Z" fill="#1D2021"/>
<path d="M25.743 44.287L25.698 44.258L28.577 42.598L28.624 42.623L25.743 44.287Z" fill="#4F5458"/>
<path d="M25.675 44.408L25.628 44.379V37.887L25.673 37.918L25.675 44.408Z" fill="#1D2021"/>
<path d="M28.624 42.623L28.577 42.598L28.575 36.27L28.62 36.295L28.624 42.623Z" fill="#1D2021"/>
<path d="M25.673 37.918L31.632 34.478V40.968L25.675 44.407L25.673 37.918ZM28.624 42.623L28.62 36.295L25.743 37.957V44.287L28.624 42.623ZM31.56 40.928V34.6L28.679 36.262L28.681 42.592L31.56 40.928Z" fill="#3B3F41"/>
<path d="M43.519 37.049L43.546 41.914L25.675 52.234L25.673 45.744L43.546 35.428L43.519 37.049Z" fill="#8DBBD3"/>
<path d="M37.589 45.355L37.544 45.33L37.542 38.84L37.589 38.867V45.355Z" fill="#1D2021"/>
<path d="M43.477 41.877L43.431 41.85V35.522L43.476 35.547L43.477 41.877Z" fill="#1D2021"/>
<path d="M40.54 43.572L40.495 43.547L40.491 37.219L40.538 37.246L40.54 43.572Z" fill="#1D2021"/>
<path d="M40.597 43.539L40.552 43.514L43.431 41.85L43.477 41.877L40.597 43.539Z" fill="#4F5458"/>
<path d="M37.659 45.236L37.614 45.211L40.495 43.547L40.54 43.572L37.659 45.236Z" fill="#4F5458"/>
<path d="M43.499 35.4L43.544 35.428L37.589 38.867L37.544 38.84L43.499 35.4Z" fill="#4F5458"/>
<path d="M37.589 38.867L43.546 35.428V41.916L37.589 45.356V38.867ZM40.54 43.572L40.538 37.246L37.659 38.908V45.236L40.54 43.572ZM43.477 41.877L43.475 35.547L40.596 37.211V43.539L43.477 41.877Z" fill="#3B3F41"/>
<path d="M37.54 38.84L37.587 38.867L31.632 42.305L31.583 42.277L37.54 38.84Z" fill="#4F5458"/>
<path d="M34.638 46.978L34.593 46.953L37.47 45.289L37.519 45.316L34.638 46.978Z" fill="#4F5458"/>
<path d="M37.519 45.316L37.47 45.289V38.963L37.517 38.986L37.519 45.316Z" fill="#1D2021"/>
<path d="M31.702 48.674L31.655 48.648L34.536 46.984L34.583 47.014L31.702 48.674Z" fill="#4F5458"/>
<path d="M31.632 48.795L31.587 48.768L31.583 42.277L31.632 42.305V48.795Z" fill="#1D2021"/>
<path d="M34.583 47.014L34.536 46.984L34.532 40.656L34.577 40.682L34.583 47.014Z" fill="#1D2021"/>
<path d="M31.632 42.305L37.587 38.867L37.589 45.355L31.632 48.794V42.305ZM34.583 47.014L34.577 40.682L31.7 42.346L31.702 48.674L34.583 47.014ZM37.519 45.316L37.517 38.986L34.636 40.648L34.638 46.978L37.519 45.316Z" fill="#3B3F41"/>
<path d="M31.583 42.277L31.632 42.305L25.673 45.744L25.628 45.719L31.583 42.277Z" fill="#4F5458"/>
<path d="M28.681 50.416L28.636 50.391L31.515 48.728L31.56 48.756L28.681 50.416Z" fill="#4F5458"/>
<path d="M31.56 48.756L31.515 48.728V42.397L31.56 42.424V48.756Z" fill="#1D2021"/>
<path d="M25.743 52.113L25.698 52.088L28.577 50.424L28.624 50.451L25.743 52.113Z" fill="#4F5458"/>
<path d="M25.675 52.234L25.628 52.207V45.719L25.673 45.744L25.675 52.234Z" fill="#1D2021"/>
<path d="M28.624 50.451L28.577 50.424L28.575 44.094L28.62 44.121L28.624 50.451Z" fill="#1D2021"/>
<path d="M25.673 45.744L31.632 42.305V48.795L25.675 52.235L25.673 45.744ZM28.624 50.451L28.62 44.121L25.743 45.785V52.113L28.624 50.451ZM31.56 48.756V42.424L28.679 44.088L28.681 50.416L31.56 48.756Z" fill="#3B3F41"/>
<path d="M20.559 55.527L20.566 56.75L0.786987 45.297V44.121L20.559 55.527Z" fill="#CDCFD0"/>
<path d="M48.153 39.586V39.234L20.559 55.232L1.082 43.953L0.786987 44.121L20.559 55.537L20.566 56.75L48.153 39.586Z" fill="#939598"/>
<path d="M20.553 55.533L20.56 56.746L48.163 40.813L48.153 39.586L20.553 55.533Z" fill="#CDCFD0"/>
<path d="M20.559 39.498L20.566 40.719L0.786987 29.268V28.092L20.559 39.498Z" fill="#CDCFD0"/>
<path d="M48.153 23.555V23.205L20.559 39.205L1.082 27.926L0.786987 28.092L20.559 39.506L20.566 40.719L48.153 23.555Z" fill="#939598"/>
<path d="M20.553 39.5L20.56 40.717L48.163 24.783L48.153 23.555L20.553 39.5Z" fill="#CDCFD0"/>
<path d="M1.69901 52.94L1.67401 57.805L19.545 68.125L19.547 61.637L1.67401 51.318L1.69901 52.94Z" fill="#8DBBD3"/>
<path d="M7.629 61.248L7.67599 61.221V54.73L7.633 54.758L7.629 61.248Z" fill="#1D2021"/>
<path d="M1.74399 57.766L1.789 57.74L1.79099 51.412L1.74399 51.44V57.766Z" fill="#1D2021"/>
<path d="M4.68201 59.467L4.72699 59.44V53.109L4.68201 53.137V59.467Z" fill="#1D2021"/>
<path d="M4.621 59.43L4.67001 59.404L1.789 57.74L1.74399 57.766L4.621 59.43Z" fill="#4F5458"/>
<path d="M7.55899 61.127L7.60699 61.102L4.72699 59.44L4.68201 59.467L7.55899 61.127Z" fill="#4F5458"/>
<path d="M1.71899 51.291L1.67401 51.318L7.629 54.758L7.67599 54.73L1.71899 51.291Z" fill="#4F5458"/>
<path d="M7.629 61.248L1.67401 57.807V51.319L7.633 54.758L7.629 61.248ZM4.68201 59.467L7.55899 61.127L7.56299 54.797L4.68201 53.137V59.467ZM1.74399 57.766L4.621 59.43L4.62299 53.104L1.74399 51.44V57.766Z" fill="#3B3F41"/>
<path d="M7.67999 54.73L7.633 54.758L13.59 58.197L13.637 58.168L7.67999 54.73Z" fill="#4F5458"/>
<path d="M10.582 62.869L10.627 62.844L7.74799 61.182L7.703 61.209L10.582 62.869Z" fill="#4F5458"/>
<path d="M7.703 61.209L7.74799 61.182L7.75 54.852L7.703 54.881V61.209Z" fill="#1D2021"/>
<path d="M13.518 64.565L13.564 64.537L10.685 62.877L10.639 62.902L13.518 64.565Z" fill="#4F5458"/>
<path d="M13.59 64.684L13.635 64.658L13.637 58.168L13.59 58.197V64.684Z" fill="#1D2021"/>
<path d="M10.639 62.902L10.685 62.877V56.549L10.641 56.574L10.639 62.902Z" fill="#1D2021"/>
<path d="M13.59 64.684L7.633 61.246V54.758L13.59 58.197V64.684ZM10.639 62.902L13.518 64.564L13.52 58.236L10.641 56.574L10.639 62.902ZM7.703 61.209L10.582 62.869V56.539L7.703 54.881V61.209Z" fill="#3B3F41"/>
<path d="M13.639 58.168L13.592 58.195L19.547 61.637L19.594 61.609L13.639 58.168Z" fill="#4F5458"/>
<path d="M16.539 66.309L16.584 66.281L13.705 64.617L13.658 64.645L16.539 66.309Z" fill="#4F5458"/>
<path d="M13.658 64.645L13.705 64.617L13.707 58.289L13.662 58.316L13.658 64.645Z" fill="#1D2021"/>
<path d="M19.477 68.006L19.523 67.977L16.645 66.315L16.598 66.342L19.477 68.006Z" fill="#4F5458"/>
<path d="M19.545 68.125L19.592 68.098L19.594 61.609L19.547 61.637L19.545 68.125Z" fill="#1D2021"/>
<path d="M16.598 66.342L16.645 66.315V59.986L16.598 60.012V66.342Z" fill="#1D2021"/>
<path d="M19.545 68.125L13.59 64.684L13.592 58.196L19.547 61.637L19.545 68.125ZM16.598 66.342L19.477 68.006V61.676L16.598 60.012V66.342ZM13.658 64.645L16.539 66.309L16.541 59.979L13.662 58.317L13.658 64.645Z" fill="#3B3F41"/>
<path d="M1.69901 61.055L1.67401 65.916L19.545 76.238L19.547 69.746L1.67401 59.43L1.69901 61.055Z" fill="#8DBBD3"/>
<path d="M7.629 69.359L7.67599 69.336V62.844L7.633 62.869L7.629 69.359Z" fill="#1D2021"/>
<path d="M1.74399 65.881L1.789 65.853L1.79099 59.523L1.74399 59.553V65.881Z" fill="#1D2021"/>
<path d="M4.68201 67.576L4.72699 67.551V61.221L4.68201 61.248V67.576Z" fill="#1D2021"/>
<path d="M4.621 67.545L4.67001 67.518L1.789 65.853L1.74399 65.881L4.621 67.545Z" fill="#4F5458"/>
<path d="M7.55899 69.238L7.60699 69.213L4.72699 67.551L4.68201 67.576L7.55899 69.238Z" fill="#4F5458"/>
<path d="M1.71899 59.404L1.67401 59.43L7.629 62.867L7.67599 62.844L1.71899 59.404Z" fill="#4F5458"/>
<path d="M7.629 69.359L1.67401 65.919V59.429L7.633 62.868L7.629 69.359ZM4.68201 67.576L7.55899 69.238L7.56299 62.91L4.68201 61.248V67.576ZM1.74399 65.881L4.621 67.545L4.62299 61.215L1.74399 59.553V65.881Z" fill="#3B3F41"/>
<path d="M7.67999 62.844L7.633 62.867L13.59 66.309L13.637 66.281L7.67999 62.844Z" fill="#4F5458"/>
<path d="M10.582 70.98L10.627 70.953L7.74799 69.293L7.703 69.32L10.582 70.98Z" fill="#4F5458"/>
<path d="M7.703 69.32L7.74799 69.293L7.75 62.965L7.703 62.99V69.32Z" fill="#1D2021"/>
<path d="M13.518 72.676L13.564 72.648L10.685 70.99L10.639 71.014L13.518 72.676Z" fill="#4F5458"/>
<path d="M13.59 72.797L13.635 72.772L13.637 66.281L13.59 66.309V72.797Z" fill="#1D2021"/>
<path d="M10.639 71.014L10.685 70.99V64.658L10.641 64.684L10.639 71.014Z" fill="#1D2021"/>
<path d="M13.59 72.797L7.633 69.359V62.867L13.59 66.308V72.797ZM10.639 71.014L13.518 72.676L13.52 66.348L10.641 64.684L10.639 71.014ZM7.703 69.32L10.582 70.98V64.652L7.703 62.99V69.32Z" fill="#3B3F41"/>
<path d="M13.639 66.281L13.592 66.309L19.547 69.746L19.594 69.721L13.639 66.281Z" fill="#4F5458"/>
<path d="M16.539 74.422L16.584 74.393L13.705 72.73L13.658 72.758L16.539 74.422Z" fill="#4F5458"/>
<path d="M13.658 72.758L13.705 72.73L13.707 66.4L13.662 66.43L13.658 72.758Z" fill="#1D2021"/>
<path d="M19.477 76.117L19.523 76.088L16.645 74.428L16.598 74.453L19.477 76.117Z" fill="#4F5458"/>
<path d="M19.545 76.238L19.592 76.209L19.594 69.719L19.547 69.746L19.545 76.238Z" fill="#1D2021"/>
<path d="M16.598 74.453L16.645 74.428V68.098L16.598 68.125V74.453Z" fill="#1D2021"/>
<path d="M19.545 76.238L13.59 72.797L13.592 66.309L19.547 69.747L19.545 76.238ZM16.598 74.453L19.477 76.117V69.787L16.598 68.125V74.453ZM13.658 72.758L16.539 74.422L16.541 68.09L13.662 66.43L13.658 72.758Z" fill="#3B3F41"/>
<path d="M43.556 50.826L43.577 55.684L25.706 66.006V59.516L43.577 49.201L43.556 50.826Z" fill="#8DBBD3"/>
<path d="M37.622 59.129L37.575 59.102V52.611L37.622 52.639V59.129Z" fill="#1D2021"/>
<path d="M43.509 55.65L43.464 55.623V49.295L43.507 49.322L43.509 55.65Z" fill="#1D2021"/>
<path d="M40.571 57.346L40.524 57.318V50.988L40.571 51.016V57.346Z" fill="#1D2021"/>
<path d="M40.628 57.313L40.583 57.287L43.464 55.623L43.509 55.65L40.628 57.313Z" fill="#4F5458"/>
<path d="M37.69 59.006L37.645 58.98L40.524 57.318L40.571 57.346L37.69 59.006Z" fill="#4F5458"/>
<path d="M43.53 49.174L43.577 49.201L37.622 52.639L37.575 52.611L43.53 49.174Z" fill="#4F5458"/>
<path d="M37.622 52.639L43.577 49.201L43.581 55.689L37.622 59.128V52.639ZM40.571 57.346V51.016L37.69 52.678V59.006L40.571 57.346ZM43.509 55.65L43.507 49.322L40.628 50.984V57.312L43.509 55.65Z" fill="#3B3F41"/>
<path d="M37.571 52.611L37.62 52.639L31.663 56.078L31.616 56.051L37.571 52.611Z" fill="#4F5458"/>
<path d="M34.669 60.748L34.624 60.723L37.503 59.063L37.55 59.088L34.669 60.748Z" fill="#4F5458"/>
<path d="M37.55 59.088L37.503 59.063V52.73L37.55 52.758V59.088Z" fill="#1D2021"/>
<path d="M31.733 62.447L31.686 62.422L34.565 60.758L34.612 60.783L31.733 62.447Z" fill="#4F5458"/>
<path d="M31.663 62.566L31.616 62.539V56.051L31.663 56.078V62.566Z" fill="#1D2021"/>
<path d="M34.612 60.783L34.565 60.758V54.43L34.61 54.455L34.612 60.783Z" fill="#1D2021"/>
<path d="M31.663 56.078L37.62 52.639L37.622 59.129L31.663 62.567V56.078ZM34.612 60.783L34.61 54.455L31.733 56.119V62.447L34.612 60.783ZM37.55 59.088V52.758L34.669 54.42V60.748L37.55 59.088Z" fill="#3B3F41"/>
<path d="M31.616 56.051L31.661 56.078L25.706 59.516L25.659 59.49L31.616 56.051Z" fill="#4F5458"/>
<path d="M28.714 64.191L28.669 64.162L31.546 62.502L31.593 62.527L28.714 64.191Z" fill="#4F5458"/>
<path d="M31.593 62.527L31.546 62.502L31.544 56.17L31.591 56.199L31.593 62.527Z" fill="#1D2021"/>
<path d="M25.776 65.885L25.729 65.857L28.61 64.193L28.653 64.221L25.776 65.885Z" fill="#4F5458"/>
<path d="M25.706 66.006L25.663 65.98L25.659 59.488L25.706 59.516V66.006Z" fill="#1D2021"/>
<path d="M28.653 64.221L28.61 64.193L28.608 57.865L28.653 57.893V64.221Z" fill="#1D2021"/>
<path d="M25.706 59.516L31.663 56.078V62.566L25.706 66.005V59.516ZM28.653 64.221V57.893L25.776 59.555V65.885L28.653 64.221ZM31.593 62.527L31.591 56.199L28.712 57.855L28.714 64.191L31.593 62.527Z" fill="#3B3F41"/>
<path d="M43.556 58.65L43.577 63.51L25.706 73.834V67.344L43.577 57.025L43.556 58.65Z" fill="#8DBBD3"/>
<path d="M37.622 66.957L37.575 66.93V60.438L37.622 60.465V66.957Z" fill="#1D2021"/>
<path d="M43.509 63.477L43.464 63.451V57.119L43.507 57.147L43.509 63.477Z" fill="#1D2021"/>
<path d="M40.571 65.172L40.524 65.147V58.816L40.571 58.844V65.172Z" fill="#1D2021"/>
<path d="M40.628 65.141L40.583 65.113L43.464 63.451L43.509 63.477L40.628 65.141Z" fill="#4F5458"/>
<path d="M37.69 66.834L37.645 66.809L40.524 65.147L40.571 65.172L37.69 66.834Z" fill="#4F5458"/>
<path d="M43.53 57L43.577 57.025L37.622 60.463L37.575 60.438L43.53 57Z" fill="#4F5458"/>
<path d="M37.622 60.465L43.577 57.026L43.581 63.516L37.622 66.957V60.465ZM40.571 65.172V58.844L37.69 60.506V66.834L40.571 65.172ZM43.509 63.477L43.507 57.147L40.628 58.809V65.141L43.509 63.477Z" fill="#3B3F41"/>
<path d="M37.571 60.438L37.62 60.463L31.663 63.904L31.616 63.877L37.571 60.438Z" fill="#4F5458"/>
<path d="M34.669 68.576L34.624 68.549L37.503 66.889L37.55 66.918L34.669 68.576Z" fill="#4F5458"/>
<path d="M37.55 66.918L37.503 66.889V60.56L37.55 60.588V66.918Z" fill="#1D2021"/>
<path d="M31.733 70.272L31.686 70.244L34.565 68.586L34.612 68.613L31.733 70.272Z" fill="#4F5458"/>
<path d="M31.663 70.393L31.616 70.367V63.877L31.663 63.904V70.393Z" fill="#1D2021"/>
<path d="M34.612 68.613L34.565 68.586V62.254L34.61 62.279L34.612 68.613Z" fill="#1D2021"/>
<path d="M31.663 63.904L37.62 60.463L37.622 66.957L31.663 70.393V63.904ZM34.612 68.613L34.61 62.279L31.733 63.943V70.271L34.612 68.613ZM37.55 66.918V60.588L34.669 62.246V68.576L37.55 66.918Z" fill="#3B3F41"/>
<path d="M31.616 63.877L31.661 63.904L25.706 67.344L25.659 67.316L31.616 63.877Z" fill="#4F5458"/>
<path d="M28.714 72.016L28.669 71.988L31.546 70.326L31.593 70.352L28.714 72.016Z" fill="#4F5458"/>
<path d="M31.593 70.352L31.546 70.326L31.544 63.996L31.591 64.023L31.593 70.352Z" fill="#1D2021"/>
<path d="M25.776 73.713L25.729 73.685L28.61 72.023L28.653 72.049L25.776 73.713Z" fill="#4F5458"/>
<path d="M25.706 73.834L25.663 73.807L25.659 67.315L25.706 67.344V73.834Z" fill="#1D2021"/>
<path d="M28.653 72.049L28.61 72.023L28.608 65.693L28.653 65.721V72.049Z" fill="#1D2021"/>
<path d="M25.706 67.344L31.663 63.904V70.392L25.706 73.833V67.344ZM28.653 72.049V65.721L25.776 67.383V73.713L28.653 72.049ZM31.593 70.352L31.591 64.024L28.712 65.686L28.714 72.016L31.593 70.352Z" fill="#3B3F41"/>
<path d="M20.588 77.125L20.598 78.348L0.817993 66.897V65.721L20.588 77.125Z" fill="#CDCFD0"/>
<path d="M48.185 61.184V60.834L20.592 76.832L1.11499 65.555L0.817993 65.721L20.592 77.137L20.598 78.348L48.185 61.184Z" fill="#939598"/>
<path d="M20.586 77.133L20.596 78.346L48.192 62.41L48.185 61.184L20.586 77.133Z" fill="#CDCFD0"/>
<path d="M20.588 61.098L20.598 62.316L0.817993 50.865V49.693L20.588 61.098Z" fill="#CDCFD0"/>
<path d="M48.185 45.152V44.803L20.592 60.803L1.11499 49.523L0.817993 49.693L20.592 61.107L20.598 62.316L48.185 45.152Z" fill="#939598"/>
<path d="M20.586 61.103L20.596 62.316L48.192 46.381L48.185 45.152L20.586 61.103Z" fill="#CDCFD0"/>
<path d="M48.22 13.313L20.719 29.201L0.914001 17.772L0.911987 16.068L28.573 1.89999L48.204 11.525L48.22 13.313Z" fill="#F1F2F2"/>
<path d="M48.204 11.525L20.615 27.455L0.911987 16.068L28.472 0.153992L48.204 11.525Z" fill="#5B95AB"/>
</svg>
