<svg width="41" height="80" viewBox="0 0 41 80" fill="none" xmlns="http://www.w3.org/2000/svg">
<path d="M0.959015 12.386L22.282 24.941V79.793L0.924988 67.459L0.959015 12.386Z" fill="#939598"/>
<path d="M40.081 12.48V69.516L22.282 79.793V22.755L40.081 12.48Z" fill="#939598"/>
<path d="M40.081 12.48V66.322L22.282 76.598V22.755L40.081 12.48Z" fill="#B5C2CE"/>
<path d="M0.959015 12.386L22.282 24.941V76.598L0.924988 64.266L0.959015 12.386Z" fill="#F1F2F2"/>
<path d="M18.721 2.82802L40.081 15.158L22.282 25.435L0.924988 13.103L18.721 2.82802Z" fill="#939598"/>
<path d="M3.155 32.679L3.16199 42.99L3.922 42.557L19.521 51.563L19.517 42.121L3.155 32.679Z" fill="#8DBBD3"/>
<path d="M8.61499 45.264V35.839L9.02499 36.072V45.502L14.057 48.41V38.982L14.472 39.22V48.648L19.521 51.563V52.453L3.16199 42.99V42.115L8.61499 45.264Z" fill="#7E7F82"/>
<path d="M3.95001 33.154L3.922 42.557L3.16199 42.99L3.151 32.679L3.95001 33.154Z" fill="#7E7F82"/>
<path d="M3.14999 48.143L3.15799 58.451L3.91699 58.018L19.517 67.027L19.514 57.584L3.14999 48.143Z" fill="#8DBBD3"/>
<path d="M8.60901 60.727V51.301L9.01999 51.531V60.965L14.055 63.869V54.445L14.468 54.682V64.111L19.517 67.027V67.916L3.15799 58.451L3.15601 57.578L8.60901 60.727Z" fill="#7E7F82"/>
<path d="M3.94501 48.617L3.91699 58.018L3.15799 58.451L3.14801 48.143L3.94501 48.617Z" fill="#7E7F82"/>
<path d="M3.35001 17.462L3.35599 27.775L4.117 27.339L19.719 36.351L19.712 26.904L3.35001 17.462Z" fill="#8DBBD3"/>
<path d="M8.81 30.048V20.621L9.22198 20.857V30.289L14.253 33.191V23.767L14.666 24.005V33.433L19.719 36.351V37.24L3.35599 27.775V26.9L8.81 30.048Z" fill="#7E7F82"/>
<path d="M4.14499 17.941L4.117 27.339L3.35599 27.775L3.349 17.462L4.14499 17.941Z" fill="#7E7F82"/>
<path d="M22.13 22.669L0.959015 10.472L0.938995 13.257L22.13 25.619V22.669Z" fill="#939598"/>
<path d="M40.081 12.328V15.279L22.13 25.619V22.669L40.081 12.328Z" fill="#939598"/>
<path d="M37.438 10.873V13.822L17.01 2.02902L18.848 0.123016L37.438 10.873Z" fill="#C0C7CE"/>
<path d="M37.449 10.876L40.081 12.328L22.13 22.669L19.575 21.193L37.449 10.876Z" fill="#C0C7CE"/>
<path d="M22.13 19.722V22.669L0.959015 10.472L4.25699 9.40402L22.13 19.722Z" fill="#C0C7CE"/>
<path d="M6.04401 10.462L18.81 3.09102V0.142014L0.940002 10.462H6.04401Z" fill="#C0C7CE"/>
<path d="M22.063 18.533L5.31699 8.88004L5.30099 11.087L22.063 20.865V18.533Z" fill="#939598"/>
<path d="M36.204 10.367V12.705L22.063 20.865V18.533L36.204 10.367Z" fill="#939598"/>
<path d="M34.173 9.20103V11.535L18.015 2.20502L19.468 0.697021L34.173 9.20103Z" fill="#D5D8E6"/>
<path d="M34.184 9.20303L36.204 10.367L22.063 18.533L20.043 17.363L34.184 9.20303Z" fill="#D5D8E6"/>
<path d="M22.063 16.201V18.533L5.31699 8.88004L7.92599 8.03903L22.063 16.201Z" fill="#D5D8E6"/>
<path d="M9.341 8.87103L19.438 3.04203V0.710022L5.30399 8.87402L9.341 8.87103Z" fill="#D5D8E6"/>
<path d="M19.438 3.04202L9.341 8.87102L22.063 16.201L32.111 10.404L19.438 3.04202Z" fill="#C0C7CE"/>
</svg>
